<svg width="60" height="58" viewBox="0 0 60 58" fill="none" xmlns="http://www.w3.org/2000/svg">
<mask id="mask0_27_1281" style="mask-type:alpha" maskUnits="userSpaceOnUse" x="6" y="1" width="52" height="53">
<ellipse cx="32" cy="27.4299" rx="26" ry="26.3343" fill="#C4C4C4"/>
</mask>
<g mask="url(#mask0_27_1281)">
<path d="M56.1887 80.726C56.1887 77.9459 54.5932 75.5555 52.3272 74.5401C52.7864 73.6096 53.0466 72.5505 53.0466 71.4282C53.0466 67.7305 50.2241 64.722 46.7547 64.722H38.3871V53.3304C49.188 50.347 57.1877 39.8688 57.1877 27.4361C57.1877 12.6885 45.9317 0.690399 32.0958 0.690399C28.6386 0.690399 25.2871 1.42817 22.1344 2.88334C21.1562 3.33473 20.7066 4.54611 21.1301 5.58878C21.5536 6.63145 22.6906 7.11102 23.6682 6.65923C26.3338 5.42892 29.1693 4.80513 32.0958 4.80513C43.8029 4.80513 53.3274 14.9574 53.3274 27.4361C53.3274 39.9149 43.8029 50.0672 32.0958 50.0672C20.3887 50.0672 10.8641 39.9149 10.8641 27.4361C10.8641 24.3157 11.4495 21.2933 12.6041 18.452C13.0278 17.4094 12.5784 16.198 11.6002 15.7464C10.6226 15.2948 9.48556 15.7738 9.06208 16.8166C7.69631 20.1769 7.00378 23.75 7.00378 27.4361C7.00378 39.8688 15.0034 50.3468 25.8041 53.3304V62.6278H25.4841C19.8325 62.6278 14.4649 65.1298 10.6184 69.5247H1.21335C0.70128 69.5247 0.210252 69.7415 -0.151843 70.1277C-0.513745 70.5137 -0.717182 71.0373 -0.716796 71.5833L-0.703285 97.0745C-0.702706 98.2103 0.161226 99.1306 1.22686 99.1306H10.6284C14.4852 103.526 19.8491 106.028 25.4841 106.028L45.2681 106.028C48.7373 106.028 51.5598 103.019 51.5598 99.3213C51.5598 98.1731 51.2878 97.0918 50.8088 96.1458C53.0016 95.0969 54.5326 92.7472 54.5326 90.0237C54.5326 88.63 54.1317 87.3343 53.4465 86.2605C55.101 85.0514 56.1887 83.0214 56.1887 80.726ZM32.0958 54.1819C32.916 54.1819 33.7268 54.1383 34.527 54.056V64.722H29.6646V64.6852V54.056C30.4647 54.1385 31.2755 54.1819 32.0958 54.1819ZM49.897 83.3179H48.2415C47.1757 83.3179 46.3113 84.239 46.3113 85.3753C46.3113 86.5115 47.1757 87.4326 48.2415 87.4326C49.5818 87.4326 50.6723 88.595 50.6723 90.0239C50.6723 91.4527 49.582 92.6153 48.2415 92.6153H45.2681C44.2023 92.6153 43.338 93.5364 43.338 94.6727C43.338 95.8088 44.2021 96.7301 45.2681 96.7301C46.6088 96.7301 47.6995 97.8927 47.6995 99.3217C47.6995 100.751 46.609 101.913 45.2681 101.913L25.4841 101.913C20.6777 101.913 16.1115 99.661 12.9567 95.7349C12.5902 95.2786 12.0546 95.0159 11.4908 95.0159H3.15604L3.14465 73.6394H11.4821C12.047 73.6394 12.5834 73.3757 12.9502 72.9177C16.0926 68.9933 20.6611 66.7423 25.4839 66.7423H25.8039V66.7791C25.8039 67.9154 26.6683 68.8365 27.7341 68.8365H46.7545C48.0952 68.8365 49.1861 69.9989 49.1861 71.428C49.1861 72.857 48.0954 74.0196 46.7545 74.0196C45.6887 74.0196 44.8244 74.9407 44.8244 76.077C44.8244 77.2133 45.6887 78.1344 46.7545 78.1344H49.8968C51.2374 78.1344 52.3282 79.297 52.3282 80.7258C52.3284 82.1551 51.2378 83.3179 49.897 83.3179Z" fill="#080D21"/>
<path d="M25.791 36.8215C26.9199 38.0247 28.4025 38.6262 29.8852 38.6262C31.368 38.6262 32.8505 38.0247 33.9795 36.8215L43.4009 26.7791C45.6584 24.3728 45.6584 20.4572 43.4009 18.0509C41.1432 15.6448 37.4701 15.6448 35.2124 18.0509L29.8852 23.7292L28.98 22.7643C26.7223 20.3582 23.0492 20.3582 20.7915 22.7643C19.6979 23.93 19.0957 25.4799 19.0957 27.1284C19.0957 28.777 19.6979 30.3268 20.7915 31.4925L25.791 36.8215ZM23.5211 25.6741C23.8973 25.2731 24.3915 25.0727 24.8856 25.0727C25.3797 25.0727 25.874 25.2733 26.25 25.6741L28.5202 28.0938C29.2741 28.8972 30.4959 28.8972 31.25 28.0938L37.942 20.9606C38.6944 20.1587 39.9185 20.1587 40.6711 20.9606C41.0357 21.3491 41.2364 21.8657 41.2364 22.415C41.2364 22.9643 41.0357 23.4809 40.6711 23.8694L31.2496 33.9118C30.4973 34.7137 29.2732 34.7137 28.5206 33.9118L23.5211 28.5828C23.1565 28.1944 22.9558 27.678 22.9558 27.1284C22.9558 26.5789 23.1565 26.0625 23.5211 25.6741Z" fill="#080D21"/>
<path d="M15.7193 12.0353C16.2136 12.0353 16.7079 11.8343 17.0848 11.4325C17.8386 10.6291 17.8386 9.3264 17.0848 8.52299C16.3309 7.71959 15.1091 7.71959 14.355 8.52299L14.3541 8.52402C13.6003 9.32742 13.6009 10.6295 14.3546 11.4329C14.7316 11.8345 15.2255 12.0353 15.7193 12.0353Z" fill="#080D21"/>
</g>
</svg>
