<svg width="35" height="36" viewBox="0 0 35 36" fill="none" xmlns="http://www.w3.org/2000/svg">
<path d="M20.5049 2.61458C20.5049 2.76653 20.4922 2.91607 20.4676 3.06079C19.6731 2.77216 18.8166 2.61458 17.9243 2.61458C17.0321 2.61458 16.1756 2.77216 15.3811 3.06079C15.3565 2.91607 15.3438 2.76653 15.3438 2.61458C15.3438 1.17061 16.4987 0 17.9243 0C19.35 0 20.5049 1.17061 20.5049 2.61458Z" fill="#2ABCCD"/>
<path opacity="0.2" d="M20.5049 2.61453C20.5049 2.76648 20.4922 2.91602 20.4676 3.06073C19.6731 2.77211 18.8166 2.61453 17.9243 2.61453C17.0321 2.61453 16.1756 2.77211 15.3811 3.06073C15.3565 2.91602 15.3438 2.76648 15.3438 2.61453C15.3438 2.43525 15.3612 2.25999 15.3953 2.09115C16.186 1.80575 17.0377 1.64978 17.9243 1.64978C18.811 1.64978 19.6627 1.80575 20.4533 2.09115C20.4875 2.25999 20.5049 2.43525 20.5049 2.61453Z" fill="#080D21"/>
<path d="M12.4678 29.558H23.3808C23.3808 32.6099 20.9375 35.0846 17.9243 35.0846C14.9111 35.0846 12.4678 32.6099 12.4678 29.558Z" fill="#080D21"/>
<path opacity="0.2" d="M23.3799 29.558C23.3799 32.6099 20.9366 35.0846 17.9234 35.0846C17.4193 35.0846 16.9304 35.0155 16.4668 34.8852C18.7727 34.2396 20.4667 32.0994 20.4667 29.558H23.3799Z" fill="#080D21"/>
<path d="M20.4672 3.06084C23.3732 4.11728 25.4513 6.93206 25.4513 10.2381V22.0768C25.4513 24.0249 27.0103 25.604 28.9337 25.604V29.558H23.3804H12.4674H6.91406V25.604C8.83741 25.604 10.3964 24.0249 10.3964 22.0768V10.2381C10.3964 6.93206 12.4745 4.11728 15.3806 3.06084C16.1752 2.77221 17.0317 2.61462 17.9239 2.61462C18.8161 2.61462 19.6726 2.77221 20.4672 3.06084Z" fill="#24AAE3"/>
<path opacity="0.2" d="M28.9336 25.604V29.558H27.1341V25.604C25.2107 25.604 23.6517 24.0249 23.6517 22.0768V10.2381C23.6517 6.93206 21.5736 4.11728 18.6676 3.06084C18.1444 2.8711 17.5936 2.73763 17.0244 2.66849C17.3197 2.63312 17.6198 2.61462 17.9238 2.61462C18.816 2.61462 19.6725 2.77221 20.4671 3.06084C23.3731 4.11728 25.4513 6.93206 25.4513 10.2381V22.0768C25.4513 24.0249 27.0102 25.604 28.9336 25.604Z" fill="#080D21"/>
<path d="M5.63048 22.3197C5.48799 22.3197 5.35837 22.2218 5.32257 22.0755C4.68793 19.4831 4.36621 16.8029 4.36621 14.1092C4.36621 9.94087 5.1238 5.87773 6.61803 2.03287C6.68233 1.86757 6.86657 1.78637 7.02977 1.85141C7.19298 1.91646 7.27315 2.10322 7.20893 2.26844C5.74399 6.03796 5.00124 10.0217 5.00124 14.1092C5.00124 16.7507 5.31669 19.3789 5.93895 21.9206C5.98118 22.0931 5.87743 22.2674 5.70716 22.3102C5.68152 22.3166 5.6558 22.3197 5.63048 22.3197Z" fill="#24AAE3"/>
<path d="M2.11192 22.3197C1.96944 22.3197 1.83981 22.2218 1.80401 22.0755C1.16938 19.4831 0.847656 16.8029 0.847656 14.1092C0.847656 9.94078 1.60525 5.87772 3.09947 2.03287C3.16385 1.86757 3.34817 1.78652 3.51129 1.85141C3.67441 1.91645 3.75466 2.10322 3.69045 2.26852C2.22543 6.03796 1.48269 10.0217 1.48269 14.1092C1.48269 16.7507 1.79814 19.3789 2.42039 21.9206C2.46262 22.0931 2.35887 22.2674 2.1886 22.3102C2.16296 22.3166 2.13716 22.3197 2.11192 22.3197Z" fill="#24AAE3"/>
<path d="M30.2159 22.3197C30.1906 22.3197 30.1648 22.3166 30.1392 22.3102C29.969 22.2674 29.8652 22.0931 29.9074 21.9206C30.5296 19.3789 30.8451 16.7508 30.8451 14.1092C30.8451 10.0218 30.1024 6.03796 28.6374 2.26843C28.5731 2.10321 28.6534 1.91645 28.8166 1.8514C28.9796 1.78636 29.1641 1.86764 29.2283 2.03286C30.7225 5.87772 31.4801 9.94078 31.4801 14.1092C31.4801 16.8029 31.1583 19.4831 30.5239 22.0755C30.488 22.2218 30.3584 22.3197 30.2159 22.3197Z" fill="#24AAE3"/>
<path d="M33.7354 22.3197C33.7101 22.3197 33.6843 22.3166 33.6587 22.3102C33.4885 22.2674 33.3848 22.0931 33.4269 21.9206C34.0491 19.3789 34.3646 16.7508 34.3646 14.1092C34.3646 10.0218 33.6219 6.03796 32.1569 2.26843C32.0927 2.10321 32.1729 1.91645 32.3361 1.8514C32.4991 1.78636 32.6836 1.86764 32.7478 2.03286C34.2421 5.87772 34.9996 9.94078 34.9996 14.1092C34.9996 16.8029 34.6778 19.4831 34.0434 22.0755C34.0075 22.2218 33.8779 22.3197 33.7354 22.3197Z" fill="#24AAE3"/>
<path opacity="0.2" d="M14.7911 8.73863L12.4665 6.96985L11.8925 16.6808C11.8925 16.6808 11.6396 21.9225 14.7911 23.7916C14.7911 23.7916 13.5183 21.117 14.7911 8.73863Z" fill="white"/>
</svg>
