<svg width="54" height="35" viewBox="0 0 54 35" fill="none" xmlns="http://www.w3.org/2000/svg">
<path d="M21.7697 9.05216C21.4719 8.76192 21.068 8.59887 20.6468 8.59887C20.2257 8.59887 19.8218 8.76192 19.524 9.05216L0.465017 27.6305C0.167267 27.9208 0 28.3145 0 28.725C0 29.1356 0.167267 29.5293 0.465017 29.8196L5.22975 34.4642C5.52759 34.7544 5.9315 34.9175 6.35264 34.9175C6.77379 34.9175 7.17769 34.7544 7.47553 34.4642L20.6468 21.625L29.0534 29.8196C29.3513 30.1099 29.7552 30.2729 30.1763 30.2729C30.5975 30.2729 31.0014 30.1099 31.2992 29.8196L47.647 13.8841L51.2889 17.4341C51.511 17.6505 51.794 17.7979 52.102 17.8576C52.41 17.9173 52.7293 17.8867 53.0195 17.7695C53.3097 17.6524 53.5577 17.454 53.7322 17.1995C53.9067 16.9449 53.9999 16.6457 54 16.3395V2.40577C54 1.99516 53.8327 1.60137 53.5348 1.31103C53.237 1.02069 52.833 0.857574 52.4118 0.857574H38.1175C37.8035 0.85764 37.4965 0.948475 37.2353 1.1186C36.9742 1.28872 36.7707 1.53049 36.6505 1.81334C36.5303 2.0962 36.4989 2.40744 36.5601 2.70771C36.6214 3.00799 36.7726 3.28382 36.9947 3.50034L40.6365 7.05034L30.1763 17.2467L21.7697 9.05216ZM44.0052 8.14492C44.3029 7.85459 44.4702 7.46087 44.4702 7.05034C44.4702 6.63982 44.3029 6.2461 44.0052 5.95577L41.9516 3.95396H50.8235V12.6022L48.7699 10.6004C48.4721 10.3101 48.0682 10.1471 47.647 10.1471C47.2259 10.1471 46.822 10.3101 46.5241 10.6004L30.1763 26.5359L21.7697 18.3413C21.4719 18.0511 21.068 17.888 20.6468 17.888C20.2257 17.888 19.8218 18.0511 19.524 18.3413L6.35264 31.1805L3.83368 28.725L20.6468 12.3359L29.0534 20.5305C29.3513 20.8207 29.7552 20.9837 30.1763 20.9837C30.5975 20.9837 31.0014 20.8207 31.2992 20.5305L44.0052 8.14492Z" fill="#080D21"/>
</svg>
