<svg width="50" height="52" viewBox="0 0 50 52" fill="none" xmlns="http://www.w3.org/2000/svg">
<g clip-path="url(#clip0_27_1295)">
<path d="M29.3944 15.6647H20.6054V21.5993H14.7461V30.5015H20.6054V36.4362H29.3944V30.5015H35.2538V21.5993H29.3944V15.6647ZM32.3241 24.5667V27.5341H26.4647V33.4689H23.5351V27.5341H17.6758V24.5667H23.5351V18.632H26.4647V24.5667H32.3241Z" fill="#080D21"/>
<path d="M42.6777 8.1454C37.9559 3.3628 31.6778 0.728973 25 0.728973C18.3223 0.728973 12.0441 3.3628 7.32227 8.1454C2.60039 12.928 0 19.2868 0 26.0504C0 29.6647 0.736719 33.1561 2.18984 36.4274C3.41025 39.1751 5.07881 41.6456 7.15898 43.788L1.49609 51.3719H25C31.6778 51.3719 37.9559 48.738 42.6777 43.9554C47.3995 39.1728 50 32.814 50 26.0504C50 19.2868 47.3995 12.928 42.6777 8.1454ZM25 48.4046H7.38506L11.0831 43.4521L10.0998 42.5401C5.54307 38.3135 2.92969 32.3033 2.92969 26.0504C2.92969 13.7243 12.8304 3.69633 25 3.69633C37.1696 3.69633 47.0703 13.7243 47.0703 26.0504C47.0703 38.3766 37.1696 48.4046 25 48.4046Z" fill="#080D21"/>
</g>
<defs>
<clipPath id="clip0_27_1295">
<rect width="50" height="50.6429" fill="white" transform="translate(0 0.728973)"/>
</clipPath>
</defs>
</svg>
