<svg width="26" height="26" viewBox="0 0 26 26" fill="none" xmlns="http://www.w3.org/2000/svg">
<path d="M24.936 4.99164L20.5374 0.968385C20.3298 0.776519 20.0574 0.669963 19.7747 0.669963C19.492 0.669963 19.2196 0.776519 19.012 0.968385L14.6135 4.99164C14.4725 5.1206 14.3737 5.28917 14.3301 5.47524C14.2866 5.66132 14.3003 5.85621 14.3694 6.03436C14.4386 6.21252 14.5599 6.36562 14.7176 6.4736C14.8753 6.58157 15.0619 6.63938 15.253 6.63943H16.999C17.0513 6.63951 17.1014 6.66031 17.1384 6.69727C17.1753 6.73424 17.1961 6.78435 17.1962 6.83663V18.5835C17.1964 18.8298 17.2944 19.0658 17.4685 19.2399C17.6426 19.414 17.8787 19.512 18.1249 19.5122H21.3273C21.5735 19.5119 21.8096 19.414 21.9837 19.24C22.1578 19.0659 22.2558 18.8299 22.2561 18.5837V6.83663C22.2561 6.78435 22.2769 6.73423 22.3139 6.69726C22.3509 6.66029 22.401 6.6395 22.4533 6.63943H24.2965C24.4876 6.63938 24.6742 6.58157 24.8319 6.4736C24.9895 6.36562 25.1109 6.21252 25.18 6.03436C25.2492 5.85621 25.2629 5.66132 25.2193 5.47524C25.1758 5.28917 25.077 5.1206 24.936 4.99164Z" fill="#24AAE3"/>
<path d="M21.8498 23.182H17.6025C17.414 23.182 17.2332 23.2569 17.0998 23.3902C16.9665 23.5236 16.8916 23.7044 16.8916 23.8929C16.8916 24.0815 16.9665 24.2623 17.0998 24.3956C17.2332 24.529 17.414 24.6039 17.6025 24.6039H21.8498C22.0384 24.6039 22.2192 24.529 22.3526 24.3956C22.4859 24.2623 22.5608 24.0815 22.5608 23.8929C22.5608 23.7044 22.4859 23.5236 22.3526 23.3902C22.2192 23.2569 22.0384 23.182 21.8498 23.182Z" fill="#24AAE3"/>
<path d="M21.8498 20.9363H17.6025C17.414 20.9363 17.2332 21.0113 17.0998 21.1446C16.9665 21.2779 16.8916 21.4587 16.8916 21.6473C16.8916 21.8358 16.9665 22.0167 17.0998 22.15C17.2332 22.2833 17.414 22.3582 17.6025 22.3582H21.8498C22.0384 22.3582 22.2192 22.2833 22.3526 22.15C22.4859 22.0167 22.5608 21.8358 22.5608 21.6473C22.5608 21.4587 22.4859 21.2779 22.3526 21.1446C22.2192 21.0113 22.0384 20.9363 21.8498 20.9363Z" fill="#24AAE3"/>
<path d="M5.88961 15.0848H2.83238C2.27936 15.0848 1.83105 15.5331 1.83105 16.0861V23.7041C1.83105 24.2572 2.27936 24.7055 2.83238 24.7055H5.88961C6.44263 24.7055 6.89094 24.2572 6.89094 23.7041V16.0861C6.89094 15.5331 6.44263 15.0848 5.88961 15.0848Z" fill="#24AAE3"/>
<path d="M10.1434 10.5798H13.2008C13.4664 10.5798 13.7211 10.6852 13.9089 10.873C14.0966 11.0608 14.2021 11.3155 14.2021 11.5811V23.7041C14.2021 23.9697 14.0966 24.2244 13.9089 24.4122C13.7211 24.6 13.4664 24.7055 13.2008 24.7055H10.1434C9.87785 24.7055 9.62316 24.6 9.43537 24.4122C9.24759 24.2244 9.14209 23.9697 9.14209 23.7041V11.5809C9.14209 11.4494 9.16799 11.3192 9.21831 11.1977C9.26864 11.0763 9.3424 10.9659 9.43538 10.8729C9.52837 10.78 9.63875 10.7062 9.76024 10.6559C9.88172 10.6056 10.0119 10.5797 10.1434 10.5798Z" fill="#24AAE3"/>
</svg>
