<svg width="26" height="26" viewBox="0 0 26 26" fill="none" xmlns="http://www.w3.org/2000/svg">
<path d="M8.4195 2.64225L9.58517 2.26958C10.6793 1.92075 11.8461 2.48516 12.3152 3.588L13.2458 5.785C13.6509 6.74158 13.4267 7.86716 12.6889 8.567L10.6371 10.5148C10.7628 11.6805 11.1549 12.8277 11.8114 13.9566C12.4352 15.0488 13.2718 16.0048 14.2717 16.7678L16.7363 15.9445C17.6712 15.6336 18.6884 15.9922 19.2604 16.8339L20.5962 18.7948C21.2624 19.7741 21.1433 21.1239 20.3167 21.9537L19.4305 22.8432C18.5487 23.7282 17.2888 24.05 16.1242 23.686C13.3736 22.828 10.8451 20.2811 8.53759 16.0452C6.22684 11.8029 5.41109 8.20191 6.09142 5.24658C6.37742 4.00291 7.2625 3.01166 8.4195 2.64225Z" fill="#24AAE3"/>
</svg>
