<svg width="501" height="564" viewBox="0 0 501 564" fill="none" xmlns="http://www.w3.org/2000/svg">
<path d="M375.752 438.828C444.926 369.698 444.926 257.616 375.752 188.485C306.578 119.355 194.425 119.355 125.251 188.485C56.0766 257.616 56.0766 369.698 125.251 438.828C194.425 507.959 306.578 507.959 375.752 438.828Z" fill="#EBEBEB"/>
<path d="M250.499 491.822C215.24 491.821 180.773 481.372 151.456 461.795C122.139 442.219 99.2896 414.394 85.7965 381.839C72.3035 349.285 68.773 313.462 75.6514 278.903C82.5299 244.343 99.5085 212.598 124.44 187.681C149.372 162.765 181.136 145.796 215.718 138.921C250.299 132.046 286.144 135.573 318.72 149.057C351.295 162.541 379.138 185.375 398.728 214.673C418.318 243.971 428.774 278.416 428.776 313.652C428.724 360.889 409.925 406.177 376.503 439.579C343.081 472.98 297.765 491.769 250.499 491.822ZM250.499 137.785C215.692 137.786 181.668 148.101 152.728 167.426C123.788 186.752 101.232 214.22 87.9129 246.356C74.5937 278.493 71.1092 313.855 77.9002 347.971C84.6911 382.087 101.453 413.424 126.065 438.02C150.677 462.615 182.035 479.365 216.172 486.15C250.31 492.936 285.694 489.452 317.85 476.14C350.007 462.828 377.491 440.285 396.828 411.363C416.164 382.44 426.485 348.437 426.484 313.652C426.43 267.025 407.872 222.322 374.88 189.352C341.887 156.382 297.156 137.837 250.499 137.785Z" fill="#263238"/>
<path d="M202.185 225.979L224.785 217.962L287.722 212.648L318.643 229.685C318.643 229.685 262.479 316.678 260.331 316.774C258.184 316.871 202.185 225.979 202.185 225.979Z" fill="#A36957"/>
<path d="M343.293 332.872L363.352 254.283L306.954 223.251L252.514 307.12L203.193 225.564L152.378 248.559C149.035 250.071 146.35 252.736 144.815 256.067L98.875 380.288L160.987 400.332L168.092 371.536L176.276 421.267L171.592 470.841C195.867 483.064 222.648 489.495 249.829 489.627C277.011 489.759 303.854 483.59 328.247 471.603L319.537 417.051L324.527 387.171L343.293 332.872Z" fill="#011936"/>
<path d="M321.997 321.01H280.029V327.952H321.997V321.01Z" fill="#263238"/>
<path d="M324.852 405.809C341.785 411.84 360.378 410.928 378.172 408.308C382.452 408.02 386.58 406.606 390.136 404.21C391.253 403.314 393.934 401.047 393.895 400.518C393.776 398.9 390.829 396.731 389.112 395.391C382.649 390.41 375.193 386.872 367.246 385.015C359.299 383.158 351.046 383.025 343.044 384.626C338.765 385.4 334.675 386.989 330.997 389.308C327.394 391.715 325.137 393.044 323.892 397.196" fill="#E8505B"/>
<g opacity="0.3">
<g opacity="0.3">
<g opacity="0.3">
<g opacity="0.3">
<path opacity="0.3" d="M324.852 405.809C341.785 411.84 360.378 410.928 378.172 408.308C382.452 408.02 386.58 406.606 390.136 404.21C391.253 403.314 393.934 401.047 393.895 400.518C393.776 398.9 390.829 396.731 389.112 395.391C382.649 390.41 375.193 386.872 367.246 385.015C359.299 383.158 351.046 383.025 343.044 384.626C338.765 385.4 334.675 386.989 330.997 389.308C327.394 391.715 325.137 393.044 323.892 397.196" fill="black"/>
</g>
</g>
</g>
</g>
<path d="M393.895 400.518C393.895 400.518 376.082 294.305 374.971 284.833C372.22 261.342 363.353 253.822 363.353 253.822L321.997 380.32L324.857 405.809C324.857 405.809 337.928 386.154 393.895 400.518Z" fill="#011936"/>
<path d="M371.102 315.221C370.913 316.116 370.655 316.996 370.332 317.851C369.798 319.532 368.927 321.933 367.771 324.869C364.728 332.512 361.099 339.908 356.917 346.993C352.732 354.081 347.985 360.821 342.72 367.15C340.694 369.568 338.994 371.474 337.765 372.743C337.165 373.433 336.512 374.077 335.812 374.667C336.331 373.913 336.905 373.199 337.531 372.532C338.677 371.204 340.318 369.248 342.278 366.79C347.388 360.387 352.048 353.636 356.222 346.588C360.376 339.529 364.058 332.203 367.244 324.658C368.464 321.759 369.413 319.39 370.036 317.75C370.326 316.881 370.682 316.036 371.102 315.221Z" fill="#263238"/>
<path d="M176.024 418.706C175.978 418.596 175.948 418.48 175.935 418.361L175.756 417.332C175.604 416.359 175.398 415.039 175.14 413.372C174.551 409.867 173.719 404.92 172.699 398.836C170.579 386.571 167.526 369.648 164.109 350.965C160.691 332.281 157.632 315.416 155.399 303.105C154.336 297.028 153.472 292.085 152.857 288.583C152.598 286.915 152.391 285.594 152.239 284.618C152.193 284.201 152.154 283.86 152.124 283.578C152.101 283.462 152.097 283.343 152.11 283.225C152.159 283.336 152.191 283.453 152.204 283.574L152.399 284.595C152.587 285.562 152.843 286.872 153.167 288.526C153.841 292.019 154.79 296.943 155.958 303.002C158.299 315.228 161.496 332.13 164.911 350.821C168.326 369.511 171.294 386.449 173.27 398.742C174.262 404.89 174.989 409.877 175.458 413.328C175.655 415.008 175.808 416.336 175.917 417.312C175.958 417.726 175.99 418.067 176.018 418.349C176.038 418.467 176.04 418.588 176.024 418.706Z" fill="#263238"/>
<path d="M346.362 290.672C346.326 291.075 346.255 291.474 346.149 291.865C345.961 292.713 345.709 293.842 345.393 295.253C344.692 298.269 343.708 302.495 342.503 307.683C340.053 318.176 336.649 332.666 333.042 348.704C329.434 364.742 326.306 379.301 324.227 389.871C323.2 395.155 322.366 399.436 321.866 402.405C321.609 403.827 321.408 404.963 321.247 405.82C321.193 406.221 321.103 406.617 320.979 407.002C320.978 406.597 321.014 406.193 321.087 405.795C321.206 404.934 321.359 403.788 321.545 402.359C321.949 399.381 322.691 395.073 323.656 389.761C325.593 379.156 328.627 364.566 332.244 348.532C335.861 332.499 339.349 318.014 341.939 307.553C343.248 302.392 344.316 298.185 345.077 295.184C345.454 293.787 345.76 292.67 345.993 291.833C346.081 291.435 346.204 291.047 346.362 290.672Z" fill="#263238"/>
<path d="M190.152 231.009C190.281 231.16 190.397 231.323 190.498 231.494L191.451 232.967C192.297 234.309 193.514 236.224 195.047 238.673L208.178 259.777L251.462 329.915L250.79 329.892C251.439 328.976 252.14 327.991 252.853 327.001L259.27 317.982L259.254 318.421L219.285 252.189L207.429 232.376L204.247 227.003C203.908 226.412 203.642 225.947 203.441 225.599C203.342 225.442 203.257 225.278 203.188 225.106C203.309 225.248 203.415 225.402 203.507 225.564L204.378 226.939C205.155 228.185 206.26 229.962 207.674 232.239L219.741 251.923L259.942 318.004L260.079 318.233L259.926 318.449C257.884 321.323 255.711 324.381 253.508 327.471C252.805 328.461 252.103 329.448 251.445 330.359L251.093 330.856L250.774 330.339C233.896 302.807 218.698 278.021 207.697 260.073L194.782 238.838C193.292 236.353 192.125 234.412 191.309 233.054C190.938 232.415 190.645 231.909 190.425 231.54C190.318 231.371 190.227 231.194 190.152 231.009Z" fill="#263238"/>
<path d="M306.954 222.793C306.888 222.953 306.807 223.106 306.711 223.251L305.932 224.518L302.872 229.367C300.154 233.604 296.258 239.685 291.426 247.232L252.848 306.9V306.472L258.198 315.199L259.928 318.025L259.252 318.011C267.503 305.672 275.133 293.808 282.096 283.056C289.059 272.304 295.43 262.714 300.968 254.803C306.505 246.891 311.139 240.615 314.387 236.32L318.173 231.414C318.595 230.887 318.925 230.471 319.175 230.154C319.281 230.004 319.404 229.866 319.539 229.742C319.453 229.903 319.352 230.057 319.239 230.2L318.302 231.51C317.435 232.688 316.207 234.362 314.635 236.504C311.465 240.856 306.892 247.164 301.431 255.119C295.969 263.074 289.636 272.68 282.715 283.452C275.793 294.224 268.193 306.094 259.928 318.437L259.577 318.96L259.25 318.424L257.517 315.597C255.683 312.619 253.875 309.642 252.17 306.87L252.039 306.655L252.177 306.442C267.494 282.939 281.133 262.006 290.97 246.916L302.622 229.192L305.804 224.424L306.645 223.196C306.735 223.052 306.838 222.917 306.954 222.793Z" fill="#263238"/>
<path d="M199.205 371.478C196.135 370.163 192.686 370.028 189.522 371.1C186.358 372.173 183.702 374.376 182.066 377.287C180.818 379.763 180.328 382.552 180.658 385.304C180.989 388.057 182.124 390.651 183.923 392.762C187.59 396.656 196.466 399.31 200.597 394.613L199.205 371.478Z" fill="#EBEBEB"/>
<path d="M199.205 371.478C199.317 372.015 199.384 372.561 199.405 373.109L199.792 377.83C200.085 382.049 200.48 387.821 200.963 394.589L200.975 394.741L200.872 394.855C199.95 395.814 198.82 396.55 197.57 397.005C196.32 397.46 194.982 397.622 193.659 397.48C190.833 397.291 188.106 396.363 185.752 394.789C183.464 393.285 181.765 391.041 180.939 388.433C180.157 386.039 179.981 383.489 180.427 381.011C180.804 378.757 181.794 376.649 183.288 374.919C184.586 373.429 186.191 372.236 187.993 371.423C190.582 370.209 193.495 369.863 196.297 370.436C197.313 370.63 198.292 370.982 199.198 371.478C199.116 371.538 198.174 371.093 196.24 370.743C193.512 370.308 190.717 370.724 188.236 371.936C186.396 372.779 184.789 374.058 183.555 375.662C182.322 377.267 181.499 379.148 181.159 381.142C180.755 383.497 180.936 385.914 181.686 388.183C182.465 390.619 184.056 392.714 186.194 394.12C188.428 395.615 191.014 396.502 193.695 396.694C194.903 396.836 196.126 396.7 197.273 396.297C198.42 395.894 199.459 395.235 200.312 394.37L200.221 394.635C199.884 387.926 199.597 382.207 199.386 378.027C199.311 376.062 199.249 374.46 199.201 373.237C199.159 372.652 199.161 372.064 199.205 371.478Z" fill="#263238"/>
<path d="M190.695 370.489C190.695 370.489 195.1 279.686 197.369 266.672C199.638 253.657 205.492 232.596 214.692 219.877C223.491 207.714 224.362 206.86 224.362 206.86L223.78 218.196C215.429 232.859 209.464 248.755 206.109 265.291C201.215 291.015 197.842 370.489 197.842 370.489H190.695Z" fill="#263238"/>
<path d="M312.937 387.739C310.359 387.712 307.81 387.188 305.431 386.195L306.595 383.33C309.747 384.71 313.272 384.992 316.604 384.131C318.248 383.647 319.761 382.798 321.031 381.648C322.301 380.498 323.294 379.076 323.938 377.489C324.936 374.348 324.988 370.984 324.087 367.814C323.462 365.464 322.689 363.157 321.772 360.906C321.39 359.898 321.004 358.892 320.642 357.875C314.145 339.618 315.263 319.179 316.251 301.149L319.338 301.318C318.369 319.058 317.275 339.166 323.558 356.84C323.911 357.834 324.286 358.817 324.665 359.804C325.625 362.176 326.436 364.606 327.094 367.078C328.168 370.856 328.075 374.869 326.826 378.593C326.023 380.631 324.763 382.458 323.143 383.933C321.523 385.409 319.587 386.494 317.482 387.104C316.005 387.533 314.474 387.746 312.937 387.739Z" fill="#E0E0E0"/>
<path d="M312.657 389.104C309.977 389.034 307.35 388.34 304.985 387.077C302.621 385.814 300.583 384.017 299.036 381.829C293.936 375.551 293.122 359.976 292.407 346.235C292.151 341.319 291.905 336.676 291.477 333.319C289.953 321.438 283.141 305.512 283.072 305.354L285.914 304.131C286.201 304.797 292.964 320.622 294.546 332.925C294.99 336.399 295.233 341.1 295.495 346.072C296.155 358.686 296.973 374.383 301.435 379.88C308.176 388.174 316.356 388.094 327.962 379.614L329.796 382.111C323.404 386.772 317.717 389.104 312.657 389.104Z" fill="#EBEBEB"/>
<path d="M323.55 382.288C324.132 380.704 324.927 379.206 325.913 377.837C326.861 376.506 328.295 375.6 329.906 375.317C330.711 375.22 331.527 375.377 332.238 375.768C332.949 376.158 333.519 376.762 333.869 377.493C334.159 378.253 334.246 379.076 334.12 379.879C333.994 380.683 333.66 381.44 333.151 382.075C332.152 383.263 330.752 384.045 329.216 384.273C327.724 384.476 326.212 384.49 324.717 384.312" fill="#263238"/>
<path d="M292.68 247.56C304.786 263.097 312.047 281.852 313.558 301.485H319.991C318.661 278.971 309.824 257.551 294.89 240.643C296.51 235.513 297.696 230.256 298.435 224.927C299.854 212.843 286.987 205.534 286.987 205.534L286.634 214.696C288.306 215.644 289.691 217.026 290.642 218.696C291.593 220.366 292.074 222.262 292.036 224.183C291.754 230.69 286.861 244.527 282.073 256.456C278.054 266.253 276.254 276.816 276.802 287.39C277.26 300.922 282.531 307.056 282.531 307.056L288.917 304.355C288.917 304.355 285.092 299.573 283.441 286.508C282.179 276.535 285.135 268.722 287.698 261.502C288.986 257.92 290.847 252.979 292.68 247.56Z" fill="#263238"/>
<path d="M109.118 383.259L101.353 412.731C100.054 417.412 99.9935 422.351 101.179 427.062C102.364 431.774 104.754 436.097 108.114 439.607C108.528 440.024 108.957 440.431 109.4 440.828C113.44 444.438 118.407 446.852 123.743 447.799C129.079 448.746 134.573 448.189 139.61 446.19L219.746 414.387L207.915 378.291L147.263 395.566L109.118 383.259Z" fill="#A36957"/>
<path d="M174.883 334.132L189.407 411.379C189.713 413.01 190.596 414.477 191.894 415.513C193.192 416.549 194.818 417.083 196.478 417.02L307.447 412.79C309.279 412.72 311.009 411.928 312.257 410.586C313.506 409.244 314.171 407.463 314.108 405.632L311.573 332.613C311.511 330.82 310.754 329.12 309.462 327.873C308.17 326.626 306.445 325.93 304.649 325.929H181.69C180.672 325.929 179.667 326.154 178.745 326.586C177.823 327.019 177.009 327.649 176.359 328.433C175.709 329.216 175.24 330.132 174.984 331.118C174.729 332.103 174.695 333.132 174.883 334.132Z" fill="#455A64"/>
<path d="M296.123 365.596C294.042 365.59 292.008 366.215 290.289 367.388C288.571 368.561 287.248 370.226 286.496 372.165C284.892 376.343 282.54 381.224 279.934 382.645C275.121 385.267 266.813 387.361 262.438 385.221C258.062 383.082 240.568 367.355 237.506 369.092C234.444 370.828 231.82 374.777 234.879 378.272C237.939 381.767 254.132 392.262 251.065 395.758C247.998 399.253 213.885 383.863 208.634 385.221C203.383 386.58 200.324 389.802 203.386 391.907C206.448 394.012 229.631 402.753 230.944 405.813C230.944 405.813 195.951 396.633 194.637 398.818C193.324 401.003 191.137 404.501 194.637 405.813C198.137 407.125 228.329 414.993 230.944 416.303C235.281 418.11 239.806 419.429 244.434 420.239C249.206 421.485 253.91 422.976 258.528 424.705C265.615 427.161 273.355 426.954 280.301 424.123L283.845 422.68C286.533 421.586 288.812 419.677 290.359 417.222C291.906 414.767 292.644 411.888 292.469 408.992L291.754 397.07L295.572 387.232L296.123 365.596Z" fill="#A36957"/>
<path d="M268.09 426.407C268.09 426.407 331.948 484.167 353.451 484.332C376.107 484.504 388.864 461.005 386.455 446.406C385.165 438.618 381.805 397.879 381.805 397.879C366.628 393.731 343.956 391.878 327.793 402.627L333.674 426.407L291.057 405.809L268.09 426.407Z" fill="#A36957"/>
<path d="M393.895 400.518C393.646 400.511 393.399 400.471 393.161 400.398L391.099 399.911C389.311 399.473 386.73 398.834 383.535 398.115C375.231 396.106 366.712 395.121 358.168 395.181C353.473 395.327 348.797 395.853 344.187 396.754C340.413 397.408 336.726 398.492 333.199 399.984C330.835 401.012 328.628 402.367 326.642 404.011C325.267 405.202 324.598 405.983 324.538 405.93C324.655 405.71 324.802 405.508 324.976 405.33C325.427 404.781 325.914 404.262 326.434 403.777C328.374 402.011 330.577 400.557 332.963 399.466C336.505 397.879 340.225 396.726 344.043 396.031C348.687 395.079 353.404 394.527 358.143 394.381C366.752 394.308 375.334 395.379 383.661 397.565C386.856 398.36 389.421 399.081 391.183 399.613L393.207 400.247C393.448 400.303 393.68 400.394 393.895 400.518Z" fill="#263238"/>
<path d="M284.406 81.3106C287.108 81.6019 289.603 82.896 291.396 84.9369C293.19 86.9778 294.152 89.6169 294.092 92.3325L287.617 224.87C287.347 242.168 262.044 251.898 243.509 251.458C224.786 247.04 224.103 235.817 223.871 219.357C223.479 191.871 223.598 201.514 223.587 201.67C223.587 201.67 199.945 197.693 195.114 166.854C192.712 151.508 193.54 126.372 194.885 105.821C196.093 87.3232 208.407 64.654 226.848 66.6536L284.406 81.3106Z" fill="#A36957"/>
<path d="M205.675 127.984C205.663 129.015 206.054 130.01 206.765 130.757C207.476 131.504 208.451 131.944 209.482 131.984C209.986 132.025 210.492 131.965 210.972 131.807C211.452 131.65 211.896 131.398 212.277 131.066C212.658 130.735 212.969 130.33 213.191 129.877C213.413 129.424 213.542 128.93 213.571 128.426C213.583 127.396 213.193 126.402 212.482 125.655C211.772 124.908 210.799 124.468 209.769 124.427C209.265 124.385 208.758 124.445 208.277 124.602C207.797 124.759 207.352 125.011 206.971 125.343C206.589 125.674 206.278 126.079 206.056 126.533C205.833 126.986 205.704 127.48 205.675 127.984Z" fill="#263238"/>
<path d="M200.31 120.002C200.798 120.519 203.801 118.309 208.059 118.33C212.313 118.288 215.434 120.485 215.897 119.965C216.127 119.736 215.627 118.804 214.268 117.81C212.429 116.528 210.237 115.848 207.995 115.863C205.78 115.849 203.619 116.54 201.825 117.837C200.514 118.838 200.067 119.77 200.31 120.002Z" fill="#263238"/>
<path d="M246.39 129.638C246.377 130.669 246.767 131.664 247.478 132.411C248.189 133.158 249.164 133.598 250.195 133.637C250.698 133.678 251.205 133.618 251.685 133.461C252.165 133.303 252.608 133.051 252.989 132.72C253.37 132.388 253.681 131.984 253.903 131.531C254.126 131.077 254.255 130.584 254.283 130.08C254.295 129.049 253.904 128.055 253.194 127.308C252.483 126.562 251.509 126.121 250.479 126.081C249.975 126.039 249.469 126.099 248.988 126.256C248.508 126.414 248.065 126.666 247.684 126.997C247.302 127.329 246.992 127.733 246.769 128.187C246.547 128.64 246.418 129.134 246.39 129.638Z" fill="#263238"/>
<path d="M242.544 120.002C243.036 120.519 246.041 118.309 250.297 118.33C254.551 118.288 257.671 120.485 258.134 119.965C258.363 119.736 257.868 118.804 256.504 117.81C254.665 116.529 252.475 115.849 250.233 115.863C248.019 115.851 245.857 116.542 244.061 117.837C242.752 118.838 242.305 119.77 242.544 120.002Z" fill="#263238"/>
<path d="M226.642 151.318C224.399 150.61 222.076 150.186 219.727 150.056C218.641 149.941 217.612 149.721 217.435 148.981C217.346 147.858 217.602 146.735 218.169 145.761C219.199 143.133 220.276 140.377 221.403 137.492C225.895 125.721 229.149 116.042 228.673 115.865C228.196 115.689 224.169 125.087 219.679 136.858C218.597 139.759 217.564 142.531 216.58 145.175C215.893 146.485 215.69 147.995 216.007 149.439C216.162 149.825 216.403 150.17 216.713 150.448C217.022 150.726 217.39 150.93 217.79 151.043C218.393 151.208 219.013 151.295 219.638 151.304C221.963 151.604 224.316 151.609 226.642 151.318Z" fill="#263238"/>
<path d="M223.587 201.67C238.116 201.923 252.431 198.141 264.936 190.744C264.936 190.744 254.464 212.488 223.587 209.526V201.67Z" fill="#7C3B29"/>
<path d="M227.325 161.664C228.199 160.21 229.387 158.97 230.803 158.034C232.219 157.099 233.827 156.492 235.508 156.258C236.483 156.171 237.463 156.379 238.319 156.855C239.174 157.332 239.866 158.056 240.305 158.931C240.766 160.079 240.945 161.321 240.825 162.553C240.706 163.784 240.291 164.969 239.617 166.007C238.964 167.1 238.005 167.979 236.858 168.533C235.711 169.087 234.426 169.292 233.163 169.124C231.081 168.523 229.226 167.316 227.834 165.656C227.354 165.244 226.983 164.719 226.755 164.128C226.641 163.755 226.613 163.361 226.671 162.975C226.73 162.589 226.874 162.22 227.094 161.897" fill="#7C3B29"/>
<path d="M239.168 154.288C238.48 154.247 238.455 158.869 234.492 162.136C230.529 165.402 225.609 164.884 225.572 165.533C225.506 165.823 226.668 166.433 228.746 166.495C231.454 166.537 234.09 165.626 236.193 163.92C238.208 162.278 239.506 159.919 239.814 157.339C240.002 155.408 239.482 154.263 239.168 154.288Z" fill="#263238"/>
<path d="M240.119 110.231C240.651 111.342 244.829 110.377 249.86 110.487C254.902 110.487 259.046 111.552 259.603 110.455C259.848 109.933 259.044 108.918 257.311 107.963C255.012 106.81 252.481 106.195 249.909 106.165C247.337 106.135 244.793 106.691 242.468 107.791C240.715 108.707 239.885 109.702 240.119 110.231Z" fill="#263238"/>
<path d="M200.686 112.984C201.616 113.948 205.27 112.938 209.643 112.883C214.023 112.704 217.736 113.52 218.582 112.507C218.953 112.015 218.368 111.048 216.748 110.134C214.495 108.994 211.987 108.454 209.464 108.565C206.954 108.583 204.492 109.256 202.322 110.519C200.78 111.515 200.273 112.512 200.686 112.984Z" fill="#263238"/>
<path d="M306.283 185.368C306.101 185.376 305.92 185.352 305.746 185.297C305.245 185.185 304.75 185.046 304.263 184.88C302.442 184.295 300.76 183.344 299.32 182.086C298.228 181.135 297.384 179.933 296.859 178.585C296.333 177.236 296.143 175.78 296.304 174.342C296.399 173.469 296.689 172.629 297.151 171.882C297.614 171.136 298.237 170.502 298.976 170.027C299.399 169.764 299.883 169.613 300.38 169.59C300.878 169.566 301.374 169.67 301.82 169.891C302.302 170.125 302.691 170.515 302.922 170.997C303.154 171.48 303.216 172.027 303.097 172.548C302.93 173.075 302.562 173.515 302.072 173.772C301.623 173.995 301.132 174.118 300.631 174.133C299.707 174.153 298.79 173.969 297.945 173.595C296.366 172.969 294.933 172.024 293.736 170.819C291.677 168.797 290.42 166.098 290.198 163.221C290.046 161.31 290.348 159.39 291.078 157.617C291.278 157.141 291.515 156.682 291.786 156.242C291.981 155.947 292.091 155.798 292.114 155.812C292.137 155.825 291.786 156.478 291.344 157.717C290.741 159.468 290.526 161.329 290.716 163.171C290.996 165.897 292.235 168.436 294.211 170.336C295.354 171.459 296.713 172.339 298.206 172.922C298.957 173.255 299.772 173.419 300.594 173.403C300.969 173.433 301.344 173.346 301.667 173.154C301.99 172.961 302.244 172.673 302.395 172.328C302.463 171.97 302.409 171.599 302.243 171.273C302.078 170.948 301.809 170.687 301.479 170.53C301.141 170.367 300.766 170.292 300.391 170.313C300.016 170.334 299.653 170.451 299.336 170.652C298.69 171.072 298.144 171.629 297.737 172.283C297.33 172.937 297.073 173.673 296.982 174.438C296.788 175.861 296.983 177.31 297.546 178.632C298.037 179.793 298.765 180.84 299.684 181.703C301.053 182.955 302.643 183.94 304.374 184.61C305.586 185.112 306.299 185.309 306.283 185.368Z" fill="#263238"/>
<path d="M231.446 48.5426C229.587 47.3176 228.227 45.4702 227.608 43.3324C226.99 41.1947 227.155 38.9067 228.073 36.8793C226.782 35.0469 228.302 32.3281 230.413 31.5745C232.603 31.048 234.902 31.203 237.002 32.0189C236.425 30.9859 237.974 30.1018 239.143 29.914L247.307 28.606C245.423 28.1346 243.673 27.2358 242.193 25.9794C240.713 24.723 239.542 23.1427 238.771 21.3612C237.264 17.7665 236.857 13.8055 237.603 9.97966C237.635 9.4215 237.779 8.87553 238.027 8.37421C238.274 7.8729 238.62 7.42652 239.044 7.06158C241.507 9.87239 243.439 13.1072 244.744 16.6084C245.869 16.667 246.969 16.959 247.974 17.4657C248.98 17.9724 249.869 18.6828 250.584 19.5517C250.719 19.2483 250.919 18.9789 251.171 18.7631C251.424 18.5472 251.721 18.3906 252.041 18.3045C252.362 18.2184 252.698 18.2051 253.024 18.2655C253.351 18.326 253.66 18.4586 253.928 18.6538C255.654 13.8437 258.925 8.74508 264.013 8.16329C262.408 5.9163 265.315 3.22955 267.781 1.99955C269.531 0.986418 271.457 0.314843 273.458 0.0205607C274.461 -0.110973 275.481 0.0412208 276.403 0.459851C277.324 0.878482 278.109 1.54678 278.67 2.38893C278.913 2.82158 279.057 3.30318 279.09 3.79845C279.123 4.29371 279.045 4.7901 278.861 5.25126C278.677 5.71243 278.393 6.12667 278.028 6.46369C277.664 6.8007 277.228 7.05195 276.754 7.19901C276.197 8.34109 276.088 9.64991 276.448 10.8683C276.808 12.0867 277.61 13.1265 278.698 13.7835C279.786 14.4405 281.081 14.6672 282.327 14.419C283.574 14.1707 284.683 13.4655 285.436 12.442C288.965 10.902 292.844 10.3372 296.666 10.8065C297.656 10.8595 298.61 11.1932 299.416 11.7686C299.992 12.2496 300.372 12.9344 300.968 13.3856C301.889 13.9271 302.941 14.2074 304.01 14.1965C306.465 14.31 308.826 15.1726 310.775 16.668C311.729 17.4351 312.419 18.4811 312.747 19.6596C313.076 20.8381 313.028 22.0898 312.609 23.2394C318.24 25.0718 323.828 18.592 329.636 19.7395C331.289 20.2632 332.8 21.1586 334.054 22.3569C335.307 23.5552 336.268 25.0246 336.865 26.6523C333.989 27.8166 330.875 28.273 327.786 27.983C327.585 28.8269 327.107 29.5789 326.427 30.1188C325.748 30.6586 324.907 30.9551 324.039 30.9607C324.26 31.2612 324.403 31.6115 324.455 31.9805C324.508 32.3495 324.469 32.7259 324.341 33.0761C324.214 33.4264 324.002 33.7398 323.724 33.9885C323.446 34.2372 323.111 34.4135 322.749 34.5018C326.309 33.5644 330.06 33.627 333.587 34.6828C339.01 35.9632 344.964 38.8057 346.216 44.2342C346.547 46.1812 346.543 48.1704 346.204 50.1162C345.863 53.0388 344.371 56.8847 341.474 56.3441C339.686 56.012 338.76 54.0994 337.807 52.5533C335.67 49.1296 332.274 46.6797 328.35 45.7299C326.975 47.0721 329.535 48.7877 330.642 50.3613C331.749 51.9349 331.297 54.026 331.577 55.9111C332.001 58.7788 334.112 61.0648 335.37 63.676C338.089 69.3152 336.663 75.9828 335.187 82.0664C334.784 83.7224 332.906 85.7656 331.887 84.4028C332.914 84.6636 333.819 85.2721 334.448 86.1249C335.077 86.9777 335.391 88.022 335.336 89.08C335.168 91.1962 334.498 93.2422 333.383 95.049C332.971 95.8507 332.453 96.7394 331.573 96.9455C330.298 97.2433 329.258 95.9629 328.577 94.8452L323.035 85.7472C323.465 87.8231 323.415 89.9698 322.888 92.0233C321.99 96.011 319.627 100.081 315.708 101.249C312.941 101.798 310.077 101.584 307.422 100.631" fill="#263238"/>
<path d="M292.189 144.428C290.986 143.933 286.171 145.903 285.376 144.872C281.349 139.645 279.167 124.716 278.163 118.194C277.159 111.673 281.232 104.394 280.617 97.825C280.125 92.5569 279.148 87.0207 275.655 83.0559C273.461 80.719 270.721 78.9638 267.679 77.948C263.051 76.2998 258.095 75.7788 253.225 76.4282C248.354 77.0775 243.709 78.8784 239.674 81.6815C236.369 84.0224 233.257 87.1467 229.214 87.5269C225.171 87.9071 221.568 85.4449 218.116 83.3766C214.664 81.3082 210.404 79.5033 206.746 81.1799C205.341 81.9051 204.107 82.92 203.124 84.1576C200.603 87.0344 195.435 99.6597 195.332 104.66C193.92 97.1706 194.554 89.4396 197.165 82.2794C202.476 69.2854 216.761 54.5941 239.539 50.8995C276.011 44.9831 293.106 65.2747 299.588 79.7805C302.366 86.0038 304.678 102.312 302.664 114.885C300.916 125.266 297.371 135.263 292.189 144.428Z" fill="#263238"/>
<path d="M301.974 84.7988C301.426 84.9706 299.943 80.8798 296.292 75.0253C294.183 71.6088 291.771 68.3892 289.084 65.4052C285.902 61.7663 282.129 58.6891 277.924 56.3027C273.629 54.0744 268.998 52.5641 264.214 51.8317C260.272 51.2219 256.271 51.0834 252.296 51.4193C245.468 52.0263 241.37 53.6045 241.152 53.0433C241.061 52.8143 241.971 52.1615 243.795 51.3186C246.401 50.158 249.142 49.3277 251.954 48.8471C256.152 48.1063 260.436 47.9828 264.67 48.4806C269.908 49.0721 274.992 50.6251 279.666 53.0616C284.261 55.6492 288.324 59.0819 291.642 63.1788C294.352 66.4231 296.674 69.9721 298.561 73.7541C301.779 80.2133 302.398 84.6981 301.974 84.7988Z" fill="#E8505B"/>
<path d="M266.359 53.1373C265.632 53.2755 264.896 53.362 264.157 53.3961C262.161 53.6017 260.18 53.9322 258.225 54.3856C251.759 55.8407 245.704 58.7373 240.515 62.8591C235.326 66.9808 231.136 72.2212 228.258 78.1886C227.378 79.9893 226.612 81.8437 225.966 83.7408C225.766 84.4531 225.515 85.1503 225.216 85.8274C225.211 85.6332 225.239 85.4395 225.299 85.2547C225.384 84.8905 225.485 84.3386 225.691 83.6514C226.242 81.7028 226.946 79.8004 227.795 77.9618C230.589 71.8423 234.791 66.4702 240.06 62.2843C245.328 58.0985 251.513 55.2176 258.108 53.8771C260.092 53.4643 262.105 53.2086 264.129 53.1121C264.844 53.064 265.401 53.0892 265.779 53.0892C265.974 53.0727 266.17 53.0889 266.359 53.1373Z" fill="#455A64"/>
<path d="M276.066 57.5351C274.682 58.3833 273.257 59.1616 271.796 59.8668C264.91 63.5531 258.493 68.0534 252.683 73.2708C251.524 74.4053 250.308 75.4802 249.039 76.4913C249.257 76.1091 249.531 75.761 249.85 75.4583C250.405 74.8238 251.251 73.9443 252.33 72.8906C257.995 67.4178 264.484 62.867 271.56 59.4041C272.917 58.7468 274.033 58.2588 274.819 57.9473C275.212 57.7495 275.632 57.6106 276.066 57.5351Z" fill="#455A64"/>
<path d="M295.793 73.8939C295.833 74.3028 295.809 74.7155 295.722 75.117C295.634 75.898 295.442 77.0204 295.151 78.397C293.585 85.5876 290.605 92.3955 286.384 98.4251C285.571 99.5704 284.876 100.473 284.36 101.068C283.845 101.664 283.549 101.985 283.51 101.95C283.418 101.879 284.447 100.484 285.951 98.1343C289.888 92.019 292.823 85.3152 294.647 78.2756C295.353 75.5774 295.676 73.8755 295.793 73.8939Z" fill="#455A64"/>
<path d="M285.612 117.982C285.509 117.888 287.101 116.186 289.228 113.114C290.47 111.315 291.596 109.438 292.6 107.496C295.06 102.735 296.752 97.6161 297.612 92.3279C297.964 90.1699 298.178 87.9918 298.254 85.8068C298.376 82.0733 298.11 79.7576 298.254 79.7438C298.408 80.2697 298.501 80.8116 298.532 81.3587C298.711 82.8382 298.794 84.3279 298.779 85.8183C298.776 88.0316 298.612 90.2417 298.286 92.4309C297.487 97.8103 295.768 103.012 293.205 107.809C292.16 109.762 290.974 111.636 289.657 113.417C288.781 114.623 287.827 115.771 286.801 116.852C286.45 117.274 286.051 117.653 285.612 117.982Z" fill="#455A64"/>
<path d="M169.194 85.6258C169.242 85.5869 169.774 86.2259 170.861 87.2452C172.375 88.692 174.155 89.8329 176.102 90.6053C177.522 91.173 179.05 91.4199 180.576 91.3285C182.102 91.237 183.589 90.8094 184.931 90.0763C186.467 89.1591 187.627 87.7251 188.202 86.0312C188.531 85.1504 188.652 84.2051 188.555 83.2697C188.458 82.3342 188.146 81.434 187.642 80.6394C187.403 80.2628 187.071 79.9532 186.679 79.7396C186.287 79.5261 185.847 79.4156 185.401 79.4185C184.983 79.431 184.583 79.5875 184.267 79.8613C183.952 80.1352 183.741 80.5096 183.67 80.9211C183.4 82.6756 183.833 84.466 184.876 85.903C185.794 87.2414 187.088 88.2776 188.596 88.8806C189.914 89.3981 191.357 89.5051 192.737 89.1875C194.772 88.7205 196.559 87.5127 197.75 85.7999C198.16 85.1511 198.52 84.4719 198.827 83.7682C198.822 83.9725 198.784 84.1745 198.712 84.366C198.541 84.9247 198.299 85.459 197.99 85.9556C196.83 87.8206 194.989 89.1606 192.857 89.6915C191.375 90.0746 189.812 89.9946 188.378 89.4624C186.738 88.835 185.324 87.7308 184.319 86.2923C183.736 85.5054 183.316 84.6097 183.085 83.658C182.854 82.7064 182.816 81.7181 182.974 80.7516C183.094 80.2032 183.377 79.7037 183.785 79.3178C184.224 78.9334 184.783 78.7132 185.366 78.6947C185.935 78.6846 186.497 78.8188 187 79.0848C187.502 79.3508 187.929 79.7399 188.24 80.2156C188.813 81.1047 189.169 82.1153 189.28 83.1664C189.391 84.2176 189.255 85.2803 188.882 86.2695C188.245 88.118 186.966 89.6772 185.277 90.6649C183.848 91.4335 182.265 91.871 180.645 91.9452C179.024 92.0193 177.407 91.7282 175.914 91.0932C173.928 90.26 172.139 89.0202 170.661 87.4537C170.26 87.0361 169.881 86.5972 169.527 86.1389C169.389 85.9867 169.277 85.8135 169.194 85.6258Z" fill="#263238"/>
<path d="M356.433 76.5394C356.167 76.6313 355.89 76.6913 355.61 76.7181C355.069 76.8097 354.267 76.9334 353.229 77.0525C350.28 77.4778 347.278 77.359 344.373 76.7021C342.348 76.197 340.469 75.226 338.886 73.8664C337.965 73.0775 337.211 72.1132 336.667 71.0297C336.124 69.9462 335.802 68.7653 335.721 67.5561C335.617 66.2329 335.858 64.9054 336.422 63.7035C337.025 62.4403 338.011 61.3987 339.239 60.7258C340.517 60.0311 341.95 59.6696 343.405 59.6748C344.86 59.68 346.29 60.0517 347.563 60.7556C348.272 61.0608 348.873 61.5705 349.291 62.2194C349.708 62.8683 349.921 63.6269 349.904 64.3981C349.887 65.1692 349.64 65.9177 349.195 66.5476C348.75 67.1776 348.126 67.6604 347.405 67.9341C346.133 68.483 344.742 68.6975 343.364 68.5571C342.081 68.4685 340.809 68.2575 339.566 67.9271C335.239 66.7781 331.427 64.2007 328.751 60.6136C326.972 58.2139 325.765 55.4398 325.223 52.5029C325.075 51.7112 324.985 50.9097 324.953 50.1048C324.928 49.8238 324.936 49.5408 324.978 49.2618C325.054 49.2618 325.049 50.4208 325.503 52.4456C326.143 55.2985 327.394 57.979 329.17 60.3021C330.869 62.5017 333.018 64.3137 335.474 65.6172C337.929 66.9207 340.635 67.6855 343.41 67.8607C344.666 67.9873 345.934 67.791 347.093 67.2904C347.696 67.0726 348.217 66.6768 348.589 66.1557C348.962 65.6346 349.166 65.0127 349.177 64.3726C349.187 63.7325 349.002 63.1045 348.647 62.5718C348.291 62.0391 347.782 61.6269 347.187 61.39C346.024 60.7544 344.72 60.4186 343.395 60.413C342.069 60.4074 340.763 60.7322 339.594 61.358C338.525 61.9681 337.654 62.8739 337.088 63.9666C336.521 65.0592 336.283 66.2922 336.401 67.5172C336.47 68.643 336.761 69.7442 337.258 70.7569C337.754 71.7697 338.447 72.674 339.296 73.4175C340.799 74.7333 342.585 75.687 344.515 76.205C347.358 76.8885 350.298 77.0799 353.206 76.7708L355.599 76.5738C355.875 76.5314 356.154 76.5198 356.433 76.5394Z" fill="#263238"/>
<path d="M213.8 9.90186C213.436 10.8088 213.17 11.7527 213.01 12.7169C212.844 14.0262 212.948 15.3554 213.313 16.6235C213.679 17.8915 214.299 19.0718 215.137 20.0923C216.436 21.545 218.113 22.6087 219.981 23.1648C221.85 23.7209 223.836 23.7475 225.719 23.2418C226.82 23.0293 227.849 22.5432 228.713 21.8283C229.577 21.1133 230.246 20.1926 230.66 19.1509C230.807 18.5974 230.837 18.019 230.747 17.4533C230.657 16.8875 230.449 16.3469 230.137 15.8663C229.84 15.3789 229.397 14.9979 228.87 14.7778C228.343 14.5577 227.76 14.5097 227.204 14.6409C226.64 14.8109 226.121 15.102 225.682 15.4937C225.243 15.8854 224.895 16.3683 224.662 16.9085C224.196 17.9837 224.157 19.1954 224.552 20.2985C225.401 22.4358 226.856 24.2793 228.737 25.6033C231.881 28.0055 235.639 29.4734 239.58 29.8384C242.24 30.0942 244.925 29.8526 247.497 29.126C249.314 28.5924 250.247 28.0977 250.288 28.1755C250.083 28.3294 249.858 28.4556 249.619 28.5512C248.961 28.8825 248.28 29.1658 247.581 29.3986C244.99 30.2471 242.255 30.5725 239.537 30.3561C235.471 30.0536 231.578 28.589 228.322 26.1369C226.314 24.7435 224.763 22.7868 223.867 20.5138C223.414 19.2417 223.46 17.8452 223.997 16.6062C224.273 15.9634 224.688 15.3898 225.213 14.9265C225.737 14.4631 226.357 14.1215 227.03 13.9263C227.732 13.7598 228.47 13.8187 229.137 14.0946C229.804 14.3704 230.367 14.8493 230.747 15.4632C231.116 16.0313 231.36 16.6708 231.464 17.3398C231.569 18.0089 231.53 18.6924 231.352 19.3456C230.961 20.5749 230.181 21.644 229.129 22.392C228.158 23.1007 227.057 23.612 225.888 23.8968C223.89 24.4193 221.785 24.3707 219.814 23.7564C217.842 23.1421 216.082 21.9868 214.735 20.4221C213.878 19.3438 213.256 18.0976 212.91 16.764C212.564 15.4305 212.502 14.0392 212.728 12.6802C212.859 11.95 213.086 11.24 213.402 10.5684C213.503 10.329 213.638 10.1048 213.8 9.90186Z" fill="#263238"/>
<path d="M284.626 139.883C284.682 138.303 285.137 136.761 285.95 135.404C286.764 134.047 287.908 132.918 289.276 132.123C290.645 131.328 292.192 130.892 293.775 130.857C295.357 130.822 296.923 131.188 298.325 131.922C301.575 133.8 304.055 137.575 303.762 144.819C302.966 164.142 283.719 159.357 283.707 158.803C283.702 158.459 284.237 147.875 284.626 139.883Z" fill="#A36957"/>
<path d="M289.916 151.725C290.003 151.668 290.244 151.975 290.803 152.259C291.591 152.637 292.495 152.693 293.324 152.415C295.398 151.748 297.252 148.578 297.488 145.101C297.605 143.447 297.351 141.787 296.743 140.243C296.587 139.632 296.285 139.068 295.862 138.599C295.439 138.131 294.909 137.772 294.316 137.554C293.934 137.436 293.522 137.456 293.153 137.609C292.783 137.763 292.479 138.041 292.293 138.395C292.011 138.924 292.116 139.311 292.013 139.345C291.958 139.391 291.612 139.004 291.8 138.2C291.928 137.726 292.214 137.309 292.611 137.02C293.16 136.641 293.835 136.492 294.493 136.606C295.28 136.795 296.006 137.184 296.601 137.733C297.195 138.283 297.639 138.976 297.889 139.746C298.643 141.454 298.967 143.32 298.834 145.181C298.549 149.075 296.407 152.63 293.576 153.322C293.051 153.451 292.504 153.461 291.975 153.351C291.446 153.241 290.948 153.013 290.518 152.685C289.932 152.193 289.847 151.757 289.916 151.725Z" fill="#7C3B29"/>
</svg>
