<svg width="30" height="30" viewBox="0 0 30 30" fill="none" xmlns="http://www.w3.org/2000/svg">
<path d="M24.4113 8.66956C23.7318 8.66955 23.0675 8.87105 22.5025 9.24857C21.9375 9.62609 21.4971 10.1627 21.2371 10.7905C20.9771 11.4183 20.909 12.1091 21.0416 12.7755C21.1742 13.442 21.5014 14.0542 21.9819 14.5347C22.4624 15.0151 23.0746 15.3424 23.741 15.4749C24.4075 15.6075 25.0983 15.5394 25.7261 15.2794C26.3539 15.0193 26.8905 14.579 27.268 14.014C27.6455 13.449 27.847 12.7847 27.847 12.1052C27.847 11.194 27.485 10.3201 26.8407 9.67582C26.1963 9.03151 25.3225 8.66955 24.4113 8.66956ZM24.4112 13.6657C24.1025 13.6657 23.8008 13.5742 23.5441 13.4026C23.2874 13.2311 23.0874 12.9874 22.9693 12.7022C22.8511 12.417 22.8202 12.1031 22.8805 11.8004C22.9407 11.4976 23.0894 11.2195 23.3077 11.0013C23.526 10.783 23.8041 10.6344 24.1069 10.5742C24.4096 10.514 24.7235 10.5449 25.0087 10.6631C25.2938 10.7812 25.5376 10.9813 25.709 11.238C25.8805 11.4947 25.972 11.7965 25.972 12.1052C25.9715 12.519 25.8069 12.9156 25.5143 13.2082C25.2217 13.5007 24.825 13.6653 24.4112 13.6657Z" fill="#24AAE3"/>
<path d="M23.5035 16.8588V20.0882C23.5017 21.7204 22.8526 23.2852 21.6985 24.4393C20.5444 25.5934 18.9797 26.2427 17.3475 26.2446C14.0852 26.2446 11.3723 23.6449 11.2042 20.4072C15.2653 19.9455 18.4153 16.4405 18.4154 12.3329V3.81608C18.4151 3.57548 18.3194 3.3448 18.1493 3.17467C17.9791 3.00453 17.7485 2.90883 17.5079 2.90857H15.5059C15.3048 2.54478 14.9884 2.25817 14.6066 2.09379C14.2247 1.92941 13.7991 1.89658 13.3966 2.00046C12.9941 2.10434 12.6375 2.33904 12.3829 2.66766C12.1283 2.99629 11.9902 3.40021 11.9901 3.81591C11.9901 4.23162 12.1283 4.63554 12.3828 4.96418C12.6374 5.29283 12.994 5.52755 13.3965 5.63146C13.799 5.73536 14.2246 5.70256 14.6065 5.5382C14.9883 5.37384 15.3047 5.08725 15.5059 4.72348H16.6006V12.3329C16.6014 13.1629 16.4386 13.985 16.1215 14.7521C15.8044 15.5192 15.3393 16.2162 14.7526 16.8035C14.166 17.3907 13.4694 17.8565 12.7026 18.1743C11.9358 18.4922 11.1139 18.6557 10.2839 18.6557C9.45382 18.6557 8.63191 18.4922 7.86513 18.1743C7.09835 17.8565 6.40172 17.3907 5.81508 16.8035C5.22843 16.2162 4.76327 15.5192 4.44618 14.7521C4.12909 13.985 3.96629 13.1629 3.96709 12.3329V4.72348H5.06183C5.26305 5.08725 5.57945 5.37383 5.96129 5.53817C6.34313 5.70252 6.76876 5.73531 7.17127 5.63139C7.57378 5.52747 7.93034 5.29273 8.18489 4.96408C8.43945 4.63543 8.57758 4.2315 8.57755 3.8158C8.57752 3.40009 8.43935 2.99618 8.18475 2.66756C7.93014 2.33895 7.57355 2.10426 7.17103 2.00039C6.76851 1.89652 6.34289 1.92937 5.96107 2.09376C5.57925 2.25816 5.26289 2.54478 5.06172 2.90857H3.0598C2.8192 2.90884 2.58854 3.00455 2.41842 3.17468C2.2483 3.34482 2.15261 3.57549 2.15234 3.81608V12.3329C2.1524 16.4506 5.31406 19.9591 9.3877 20.4097C9.55856 24.6463 13.0871 28.0591 17.3475 28.0591C21.7425 28.0591 25.3183 24.4835 25.3183 20.0882V16.8588C24.7191 16.9764 24.1027 16.9764 23.5035 16.8588Z" fill="#24AAE3"/>
</svg>
