<svg width="30" height="30" viewBox="0 0 30 30" fill="none" xmlns="http://www.w3.org/2000/svg">
<path d="M26.667 10.9V22.2583L20.5337 16.125L19.3587 17.3L25.3837 23.3333H4.71699L10.5503 17.3L9.35033 16.1417L3.33366 22.3667V7.93333L13.692 18.2417C14.0043 18.5521 14.4267 18.7263 14.867 18.7263C15.3073 18.7263 15.7297 18.5521 16.042 18.2417L23.4003 10.925C22.8131 10.7717 22.2516 10.5331 21.7337 10.2167L14.8503 17.0583L4.42533 6.66667H19.0087C18.8475 6.12536 18.7606 5.56468 18.7503 5H3.33366C2.89163 5 2.46771 5.17559 2.15515 5.48816C1.84259 5.80072 1.66699 6.22464 1.66699 6.66667V23.3333C1.66699 23.7754 1.84259 24.1993 2.15515 24.5118C2.46771 24.8244 2.89163 25 3.33366 25H26.667C27.109 25 27.5329 24.8244 27.8455 24.5118C28.1581 24.1993 28.3337 23.7754 28.3337 23.3333V10.1667C27.8172 10.4917 27.2556 10.7388 26.667 10.9Z" fill="#24AAE3"/>
<path d="M24.9997 9.05001C27.3009 9.05001 29.1663 7.18453 29.1663 4.88334C29.1663 2.58215 27.3009 0.716675 24.9997 0.716675C22.6985 0.716675 20.833 2.58215 20.833 4.88334C20.833 7.18453 22.6985 9.05001 24.9997 9.05001Z" fill="#24AAE3"/>
</svg>
