<svg width="30" height="30" viewBox="0 0 30 30" fill="none" xmlns="http://www.w3.org/2000/svg">
<path d="M25.0034 6.41248H16.8003C16.5963 6.41248 16.4007 6.4935 16.2565 6.63772C16.1123 6.78195 16.0312 6.97756 16.0312 7.18152C16.0312 7.38548 16.1123 7.58109 16.2565 7.72531C16.4007 7.86954 16.5963 7.95056 16.8003 7.95056H17.3129V24.1003C17.3129 25.0522 17.691 25.965 18.364 26.638C19.0371 27.3111 19.9499 27.6892 20.9017 27.6892C21.8536 27.6892 22.7664 27.3111 23.4395 26.638C24.1125 25.965 24.4906 25.0522 24.4906 24.1003V7.95056H25.0034C26.0143 7.93348 26.0141 6.42943 25.0034 6.41248ZM22.9526 24.1005C22.8664 26.811 18.9367 26.8099 18.8511 24.1004V19.9886C20.7319 20.1565 21.0717 18.8149 22.9526 18.9837V24.1005Z" fill="#24AAE3"/>
<path d="M13.2114 2.31091H5.0083C4.80434 2.31091 4.60873 2.39194 4.46451 2.53616C4.32028 2.68038 4.23926 2.87599 4.23926 3.07996C4.23926 3.28392 4.32028 3.47953 4.46451 3.62375C4.60873 3.76797 4.80434 3.849 5.0083 3.849H5.52087V24.1003C5.52087 25.0522 5.89899 25.965 6.57203 26.638C7.24507 27.3111 8.15791 27.6892 9.10974 27.6892C10.0616 27.6892 10.9744 27.3111 11.6475 26.638C12.3205 25.965 12.6986 25.0522 12.6986 24.1003V3.849H13.2114C14.2223 3.83191 14.2221 2.32787 13.2114 2.31091ZM11.1606 24.1005C11.0747 26.8104 7.14482 26.8104 7.05908 24.1004V14.3489C8.93988 14.5168 9.27972 13.1752 11.1606 13.344V24.1005Z" fill="#24AAE3"/>
</svg>
