<svg width="16" height="15" viewBox="0 0 16 15" fill="none" xmlns="http://www.w3.org/2000/svg">
<g clip-path="url(#clip0_5_344)">
<path d="M8 12.6562C7.89219 12.6562 7.78391 12.6192 7.69625 12.5447C7.58281 12.4481 4.91094 10.1541 3.79625 7.65187C3.69078 7.41562 3.79719 7.13812 4.03391 7.03312C4.26969 6.92812 4.54719 7.03406 4.65266 7.27078C5.46781 9.10125 7.26687 10.8797 7.99203 11.5505C9.27172 10.3083 11.75 7.53234 11.75 5.73281C11.75 3.60562 10.0677 1.875 8 1.875C5.93234 1.875 4.25 3.60562 4.25 5.73281C4.25 5.99156 4.04 6.20156 3.78125 6.20156C3.5225 6.20156 3.3125 5.99156 3.3125 5.73281C3.3125 3.08859 5.41531 0.9375 8 0.9375C10.5847 0.9375 12.6875 3.08859 12.6875 5.73281C12.6875 8.50406 8.495 12.3698 8.31641 12.5334C8.22687 12.615 8.11344 12.6562 8 12.6562Z" fill="white"/>
<path d="M8 7.5C6.96594 7.5 6.125 6.65906 6.125 5.625C6.125 4.59094 6.96594 3.75 8 3.75C9.03406 3.75 9.875 4.59094 9.875 5.625C9.875 6.65906 9.03406 7.5 8 7.5ZM8 4.6875C7.48297 4.6875 7.0625 5.10797 7.0625 5.625C7.0625 6.14203 7.48297 6.5625 8 6.5625C8.51703 6.5625 8.9375 6.14203 8.9375 5.625C8.9375 5.10797 8.51703 4.6875 8 4.6875Z" fill="white"/>
<path d="M14.0938 14.0625H1.90625C1.73938 14.0625 1.58469 13.9739 1.50078 13.8291C1.41688 13.6842 1.41641 13.5066 1.49938 13.3613L3.37438 10.08C3.50281 9.85547 3.78922 9.77672 4.01375 9.90563C4.23828 10.0341 4.31656 10.3205 4.18813 10.545L2.71391 13.125H13.2856L11.8114 10.545C11.683 10.3205 11.7613 10.0341 11.9858 9.90563C12.2103 9.77626 12.4967 9.85547 12.6252 10.08L14.5002 13.3613C14.5831 13.5066 14.5827 13.6842 14.4988 13.8291C14.4153 13.9739 14.2606 14.0625 14.0938 14.0625Z" fill="white"/>
</g>
<defs>
<clipPath id="clip0_5_344">
<rect width="15" height="15" fill="white" transform="translate(0.5)"/>
</clipPath>
</defs>
</svg>
