<svg width="20" height="24" viewBox="0 0 20 24" fill="none" xmlns="http://www.w3.org/2000/svg">
<path d="M16.4999 6.8V9.4C17.9299 9.4 19.0999 10.57 19.0999 12V21.1C19.0999 22.53 17.9299 23.7 16.4999 23.7H3.4999C2.0699 23.7 0.899902 22.53 0.899902 21.1V12C0.899902 10.57 2.0699 9.4 3.4999 9.4V6.8C3.4999 3.212 6.4119 0.3 9.9999 0.3C13.5879 0.3 16.4999 3.212 16.4999 6.8ZM7.3999 6.8V9.4H12.5999V6.8C12.5999 5.37 11.4299 4.2 9.9999 4.2C8.5699 4.2 7.3999 5.37 7.3999 6.8ZM11.0399 20.125V17.304C11.9499 16.901 12.5999 15.991 12.5999 14.925C12.5999 13.495 11.4299 12.325 9.9999 12.325C8.5699 12.325 7.3999 13.495 7.3999 14.925C7.3999 15.991 8.0499 16.901 8.9599 17.304V20.125H11.0399Z" fill="#24AAE3"/>
</svg>
