<svg width="727" height="553" viewBox="0 0 727 553" fill="none" xmlns="http://www.w3.org/2000/svg">
<path d="M812.84 492.04C815.637 496.039 821.179 494.789 823.772 492.397C826.364 490.005 827.49 486.508 828.516 483.173C830.861 475.552 833.229 467.557 831.647 459.75C831.272 457.385 830.237 455.167 828.657 453.338C827.856 452.437 826.826 451.757 825.671 451.367C824.516 450.977 823.276 450.89 822.076 451.116C819.281 451.802 817.517 454.449 816.234 456.971C812.456 464.417 810.425 472.591 810.288 480.899C809.973 484.778 810.859 488.66 812.832 492.04" fill="#263238"/>
<path d="M823.255 512.252C828.05 510.122 833.416 509.548 838.569 510.613C841.39 510.889 844.035 512.079 846.084 513.993C847.946 516.049 848.261 519.635 846.072 521.359C844.665 522.265 842.977 522.663 841.302 522.483C837.261 522.392 832.784 521.645 829.533 523.984C827.674 525.318 826.421 527.556 824.209 528.197C823.104 528.434 821.95 528.313 820.921 527.852C819.893 527.391 819.046 526.615 818.509 525.642C817.483 523.652 817.279 521.352 817.939 519.219C818.216 517.736 818.84 516.336 819.762 515.128C820.684 513.92 821.88 512.935 823.255 512.252Z" fill="#263238"/>
<path d="M804.962 497.642C806.445 495.794 807.444 493.621 807.872 491.311C808.301 489 808.145 486.623 807.42 484.385C805.915 479.911 803.175 475.93 799.502 472.879C795.336 469.171 790.47 466.291 785.175 464.401C783.128 463.565 780.919 463.173 778.701 463.25C777.593 463.3 776.515 463.614 775.559 464.163C774.603 464.713 773.8 465.482 773.218 466.405C771.664 469.216 773.079 472.662 774.62 475.478C777.336 480.442 780.448 485.19 783.927 489.678C786.723 493.287 789.933 496.851 794.243 498.516C798.553 500.181 803.05 500.043 805.375 497.139" fill="#263238"/>
<path d="M811.929 551.88C812.086 551.292 812.18 550.689 812.207 550.082C812.353 548.771 812.538 547.131 812.757 545.168C813.037 542.748 813.444 540.343 813.977 537.965C814.673 535.068 815.605 532.23 816.765 529.478C817.902 526.73 819.432 524.152 821.31 521.823C822.839 519.929 824.781 518.39 826.995 517.319C828.496 516.614 830.102 516.146 831.753 515.933C832.374 515.917 832.991 515.836 833.595 515.693C832.975 515.611 832.348 515.594 831.725 515.644C830.012 515.751 828.332 516.158 826.766 516.844C824.436 517.886 822.384 519.441 820.772 521.387C818.815 523.747 817.227 526.378 816.062 529.194C814.884 531.985 813.957 534.872 813.292 537.82C812.784 540.23 812.426 542.668 812.221 545.12C812.035 547.207 811.954 548.898 811.903 550.066C811.845 550.67 811.854 551.278 811.929 551.88Z" fill="#263238"/>
<path d="M812.323 548.1C812.376 547.824 812.396 547.543 812.382 547.263C812.382 546.642 812.396 545.843 812.404 544.871C812.423 542.796 812.462 539.791 812.619 536.084C812.897 528.668 813.673 518.433 815.073 507.196C816.472 495.96 818.288 485.841 819.914 478.592C820.299 476.775 820.683 475.139 821.046 473.709C821.409 472.278 821.682 471.036 821.97 470.036L822.569 467.717C822.656 467.45 822.709 467.173 822.728 466.894C822.595 467.14 822.492 467.4 822.422 467.67L821.682 469.953C821.355 470.944 821.017 472.173 820.631 473.602C820.244 475.03 819.806 476.656 819.386 478.47C817.173 487.918 815.48 497.475 814.314 507.1C812.913 518.366 812.22 528.63 812.088 536.068C811.997 539.786 812.042 542.798 812.115 544.876C812.164 545.848 812.204 546.639 812.236 547.268C812.23 547.547 812.259 547.827 812.323 548.1Z" fill="#263238"/>
<path d="M812.609 528.29C812.681 527.459 812.685 526.623 812.622 525.791C812.547 524.186 812.349 521.861 811.919 519.014C811.399 515.68 810.686 512.378 809.783 509.124C808.708 505.128 807.344 501.212 805.701 497.406C802.856 490.403 798.73 483.965 793.526 478.404C792.623 477.451 791.658 476.555 790.639 475.722C790.196 475.346 789.805 474.973 789.405 474.676L788.283 473.9C787.608 473.389 786.893 472.931 786.145 472.528C788.603 474.463 790.937 476.545 793.131 478.761C798.161 484.366 802.174 490.768 804.998 497.691C806.629 501.469 808.001 505.349 809.106 509.304C810.034 512.529 810.795 515.797 811.388 519.096C811.883 521.917 812.161 524.221 812.326 525.81C812.355 526.643 812.449 527.472 812.609 528.29Z" fill="#263238"/>
<path d="M447.552 125.895C448.807 127.088 450.47 127.786 452.22 127.855C453.923 127.902 455.623 128.049 457.309 128.295C458.181 128.445 459.005 128.79 459.719 129.301C460.433 129.813 461.017 130.478 461.426 131.245C461.786 132.103 461.914 133.037 461.797 133.957C461.681 134.876 461.324 135.752 460.761 136.498C460.224 137.183 459.534 137.738 458.742 138.121C457.951 138.505 457.08 138.705 456.197 138.708L447.555 135.2V125.895" fill="#263238"/>
<path d="M456.207 103.338C455.922 104.172 456.207 138.068 456.207 138.068L476.066 188.793C476.326 189.458 476.416 190.174 476.33 190.88C476.243 191.586 475.982 192.262 475.57 192.847C475.157 193.433 474.604 193.912 473.959 194.243C473.315 194.575 472.598 194.748 471.869 194.748H416.339C415.583 194.748 414.838 194.561 414.175 194.204C413.512 193.848 412.952 193.334 412.546 192.71C412.141 192.086 411.903 191.372 411.856 190.634C411.808 189.897 411.952 189.159 412.275 188.491L436.854 137.512V103.344L456.207 103.338Z" fill="#263238"/>
<path d="M456.207 103.338C456.107 103.325 456.006 103.319 455.906 103.321L454.969 103.304L451.25 103.257L436.861 103.133H436.652V103.34C436.622 112.037 436.582 123.716 436.535 137.507L436.565 137.372L413.062 185.94L411.869 188.425C411.552 189.12 411.41 189.879 411.455 190.639C411.5 191.398 411.73 192.136 412.126 192.791C412.523 193.446 413.074 193.998 413.734 194.403C414.394 194.807 415.143 195.051 415.92 195.115C417.903 195.169 419.781 195.132 421.735 195.144L470.449 195.135C471.049 195.125 471.594 195.155 472.235 195.111C472.87 195.073 473.491 194.908 474.058 194.625C475.194 194.069 476.063 193.101 476.481 191.929C476.889 190.778 476.836 189.519 476.335 188.404C475.928 187.368 475.524 186.34 475.123 185.319L456.467 137.962L456.486 138.057C456.38 127.214 456.294 118.541 456.235 112.538C456.186 106.573 456.21 103.329 456.21 103.329C456.17 103.526 456.141 103.725 456.122 103.925C456.102 104.358 456.076 104.944 456.043 105.694C455.99 107.247 455.96 109.555 455.935 112.538C455.887 118.504 455.884 127.187 455.935 138.06V138.108L455.952 138.155C460.381 149.545 465.858 163.626 472.044 179.531C472.818 181.52 473.604 183.539 474.403 185.588L475.608 188.674C476.043 189.621 476.09 190.694 475.74 191.674C475.388 192.658 474.657 193.468 473.703 193.934C472.671 194.337 471.553 194.482 470.449 194.355L421.735 194.346C419.813 194.335 417.834 194.369 415.99 194.324C415.343 194.271 414.719 194.067 414.17 193.731C413.62 193.394 413.161 192.934 412.83 192.389C412.5 191.844 412.308 191.229 412.27 190.597C412.232 189.964 412.349 189.332 412.612 188.753C413.008 187.925 413.402 187.101 413.793 186.282L437.158 137.649L437.19 137.584V137.512C437.142 123.714 437.101 112.041 437.07 103.344L436.861 103.549L451.105 103.426L454.882 103.378L455.86 103.361C455.976 103.36 456.092 103.352 456.207 103.338Z" fill="#263238"/>
<path d="M405.557 117.125C405.099 117.759 404.736 118.454 404.479 119.189C404.479 119.189 393.523 131.44 392.636 134.662C391.749 137.885 375.165 164.326 375.165 164.326L398.261 174.64C398.261 174.64 406.553 165.292 406.849 161.75C406.849 161.75 418.693 162.163 420.469 159.538C421.766 157.545 422.952 155.486 424.022 153.369C425.606 153.157 427.123 152.607 428.464 151.757C430.296 149.914 431.887 147.856 433.201 145.632C433.201 145.632 437.939 144.666 438.828 143.215C439.717 141.764 442.085 136.607 442.085 136.607C442.085 136.607 449.488 144.02 452.151 143.215C454.815 142.411 460.146 138.54 454.817 133.705C450.765 130.029 442.777 122.812 439.179 119.572C438.009 118.502 436.573 117.749 435.013 117.387L415.71 112.998C413.788 112.583 411.783 112.757 409.966 113.495C408.149 114.234 406.61 115.501 405.557 117.125Z" fill="#263238"/>
<path d="M442.085 136.597C442.158 136.504 440.909 135.429 439.098 133.48L435.917 130.037C435.316 129.389 434.683 128.709 433.987 128.026C433.633 127.671 433.262 127.333 432.874 127.015C432.663 126.842 432.438 126.686 432.201 126.549C431.948 126.42 431.681 126.319 431.406 126.248C427.467 125.042 423.887 123.994 421.282 123.273C419.897 122.807 418.469 122.47 417.018 122.269C418.327 122.912 419.696 123.433 421.107 123.822C423.666 124.68 427.217 125.814 431.154 127.019C432.035 127.345 432.815 127.888 433.417 128.596C434.103 129.251 434.745 129.917 435.359 130.55C436.585 131.817 437.699 132.96 438.673 133.884C439.659 134.957 440.81 135.872 442.085 136.597Z" fill="#263238"/>
<path d="M432.031 146.8C432.074 146.817 432.288 146.459 432.478 145.742C432.732 144.715 432.757 143.648 432.551 142.611C432.271 141.033 431.459 139.593 430.243 138.518C428.714 137.327 426.956 136.446 425.073 135.926C421.799 134.816 418.452 133.922 415.054 133.249C413.662 132.894 412.234 132.695 410.796 132.657C412.14 133.148 413.523 133.532 414.93 133.806C417.487 134.459 421.008 135.395 424.808 136.69C426.591 137.179 428.266 137.988 429.746 139.078C430.871 140.031 431.656 141.311 431.985 142.73C432.248 144.073 432.264 145.451 432.031 146.8Z" fill="#263238"/>
<path d="M423.558 154.023C423.78 153.522 423.875 152.977 423.836 152.433C423.796 151.888 423.623 151.361 423.33 150.897C422.8 149.831 421.978 148.93 420.956 148.292C419.729 147.551 418.395 146.994 416.998 146.64C413.571 145.524 410.063 144.667 406.502 144.075C409.832 145.441 413.264 146.557 416.767 147.415C418.091 147.749 419.363 148.254 420.549 148.918C421.487 149.464 422.267 150.236 422.815 151.159C423.277 152.048 423.53 153.026 423.558 154.023Z" fill="#263238"/>
<path d="M410.185 161.61C406.528 161.654 402.88 161.946 399.264 162.483C402.925 163.024 406.664 162.725 410.185 161.61Z" fill="#263238"/>
<path d="M459.347 153.4L472.688 187.989C472.842 188.388 472.894 188.818 472.839 189.242C472.785 189.665 472.625 190.069 472.374 190.418C472.124 190.768 471.79 191.052 471.401 191.247C471.012 191.442 470.581 191.541 470.144 191.536L418.79 190.997C418.344 190.993 417.905 190.879 417.515 190.668C417.125 190.456 416.795 190.153 416.555 189.785C416.315 189.418 416.172 188.997 416.14 188.563C416.108 188.128 416.187 187.692 416.371 187.295L432.036 153.4H459.347Z" fill="#263238"/>
<path d="M492.814 415.493L499.243 381.325L498.365 373.78L500.736 373.393L521.919 260.84L571.87 197.989L614.244 147.166L622.637 167.387C622.637 167.387 665.278 203.364 669.298 208.904C669.298 208.904 680.833 225.522 682.609 243.051C683.306 249.923 665.815 378.601 663.843 384.381C662.357 388.738 648.842 398.01 639.297 403.567C640.569 441.672 644.081 552.587 642.228 552.587L477.381 552.18L492.814 415.493Z" fill="#263238"/>
<path d="M516.119 234.948C516.119 234.948 522.488 204.932 521.972 204.001C521.455 203.071 536.332 167.614 536.332 167.614C536.332 167.614 541.317 151.389 541.317 151.445C541.317 151.501 609.223 140.222 609.223 140.222L612.523 150.246L521.965 261.99L512.691 309.95L503.098 296.873L516.119 234.948Z" fill="#263238"/>
<path d="M455.532 460.823L470.273 287.731L482.359 220.195C483.978 206.732 505.196 180.126 505.196 180.126L528.573 173.204C528.573 173.204 538.146 161.711 538.665 160.029L521.967 201.67L516.114 234.942L512.473 311.275L493.192 413.724L477.335 552.588L435.117 552.304L455.532 460.823Z" fill="#263238"/>
<path d="M511.027 259.176L503.104 202.392L528.57 173.21L538.662 160.035L523.008 204.001L511.027 259.176Z" fill="#263238"/>
<path d="M506.919 224.692C507.091 224.737 505.762 230.27 503.952 237.051C502.142 243.832 500.536 249.297 500.364 249.254C500.193 249.21 501.522 243.678 503.332 236.894C505.141 230.11 506.749 224.648 506.919 224.692Z" fill="#263238"/>
<path d="M486.487 263.068C486.099 265.508 486.43 268.005 487.442 270.267C487.947 271.434 488.703 272.481 489.659 273.339C490.614 274.196 491.747 274.843 492.981 275.237C494.652 275.753 496.432 275.836 498.146 275.479C499.861 275.122 501.451 274.336 502.761 273.199C506.64 269.635 509.682 260.941 508.882 255.138C508.332 251.148 505.83 246.933 501.867 245.82C499.657 245.236 497.311 245.399 495.207 246.281C493.104 247.163 491.367 248.713 490.279 250.679" fill="#263238"/>
<path d="M490.288 250.684C490.696 249.844 491.251 249.08 491.926 248.424C492.693 247.623 493.582 246.942 494.561 246.405C495.869 245.685 497.334 245.28 498.834 245.223C499.706 245.189 500.579 245.272 501.428 245.469C502.363 245.655 503.255 246.009 504.058 246.511C505.8 247.661 507.171 249.271 508.012 251.153C508.974 253.2 509.421 255.442 509.318 257.692C509.217 260.08 508.777 262.444 508.012 264.715C507.03 268.261 505.05 271.467 502.298 273.971C500.93 275.015 499.296 275.673 497.572 275.874C496.004 276.067 494.412 275.929 492.902 275.471L492.939 275.481C491.82 275.201 490.789 274.654 489.94 273.889C489.178 273.23 488.515 272.471 487.968 271.634C487.133 270.256 486.587 268.729 486.362 267.144C486.199 266.14 486.173 265.12 486.284 264.11C486.313 263.846 486.355 263.584 486.412 263.325C486.424 263.233 486.451 263.144 486.494 263.062C486.374 264.409 486.427 265.766 486.653 267.1C486.922 268.628 487.487 270.092 488.318 271.413C488.858 272.205 489.508 272.921 490.247 273.541C491.042 274.238 492 274.733 493.038 274.984H493.046L493.073 274.991C494.562 275.446 496.14 275.549 497.678 275.29C499.216 275.032 500.668 274.42 501.916 273.505C504.554 271.061 506.45 267.955 507.396 264.527C508.879 259.993 509.326 255.16 507.47 251.395C506.688 249.603 505.405 248.063 503.767 246.95C503.019 246.47 502.186 246.128 501.31 245.941C499.093 245.393 496.746 245.67 494.727 246.717C493.762 247.215 492.877 247.848 492.099 248.595C491.452 249.254 490.847 249.952 490.288 250.684Z" fill="#263238"/>
<path d="M483.639 262.588C483.251 265.028 483.582 267.525 484.593 269.788C485.099 270.956 485.856 272.003 486.811 272.861C487.767 273.718 488.9 274.365 490.134 274.758C491.805 275.274 493.585 275.358 495.299 275.001C497.013 274.644 498.603 273.859 499.913 272.722C503.791 269.15 506.834 260.462 506.035 254.661C505.485 250.672 502.982 246.455 499.019 245.343C496.809 244.76 494.463 244.923 492.36 245.805C490.257 246.688 488.52 248.238 487.432 250.204" fill="#263238"/>
<path d="M487.435 250.206C487.844 249.366 488.398 248.601 489.073 247.946C489.839 247.144 490.728 246.463 491.708 245.927C493.016 245.207 494.481 244.802 495.981 244.745C496.853 244.712 497.725 244.794 498.574 244.99C499.509 245.178 500.401 245.532 501.206 246.034C502.947 247.183 504.318 248.793 505.157 250.675C506.119 252.722 506.568 254.963 506.465 257.213C506.363 259.602 505.923 261.965 505.157 264.236C504.175 267.783 502.196 270.99 499.443 273.494C498.076 274.538 496.441 275.196 494.717 275.397C493.15 275.588 491.558 275.451 490.05 274.993L490.085 275.002C488.965 274.723 487.935 274.176 487.087 273.41C486.324 272.752 485.66 271.993 485.113 271.155C484.28 269.777 483.734 268.252 483.507 266.667C483.346 265.663 483.32 264.643 483.429 263.632C483.458 263.368 483.502 263.107 483.56 262.848C483.57 262.756 483.597 262.667 483.639 262.585C483.521 263.933 483.575 265.289 483.798 266.623C484.068 268.151 484.633 269.614 485.465 270.935C486.004 271.727 486.653 272.443 487.394 273.062C488.188 273.76 489.146 274.255 490.183 274.505H490.191L490.22 274.515C491.709 274.969 493.288 275.072 494.825 274.813C496.363 274.555 497.816 273.943 499.063 273.028C501.7 270.584 503.596 267.476 504.542 264.048C506.026 259.516 506.473 254.683 504.617 250.917C503.834 249.125 502.55 247.585 500.913 246.472C500.165 245.992 499.332 245.65 498.458 245.464C496.24 244.917 493.894 245.194 491.874 246.241C490.908 246.737 490.023 247.369 489.245 248.117C488.599 248.776 487.994 249.474 487.435 250.206Z" fill="#263238"/>
<path d="M492.379 250.065C491.101 249.57 489.692 249.494 488.366 249.85C487.04 250.205 485.869 250.973 485.029 252.036C483.396 254.224 482.678 256.936 483.019 259.623C483.089 260.989 483.454 262.325 484.089 263.544C484.736 264.77 485.848 265.7 487.188 266.135C488.194 266.335 489.235 266.295 490.222 266.019C491.21 265.743 492.114 265.239 492.859 264.549C494.124 263.505 495.141 262.206 495.842 260.74C496.542 259.275 496.909 257.679 496.916 256.062C496.916 253.907 495.945 251.455 493.826 250.857" fill="#263238"/>
<path d="M493.823 250.856C493.989 250.859 494.151 250.896 494.3 250.965C494.742 251.134 495.143 251.391 495.477 251.72C496.06 252.355 496.506 253.097 496.79 253.903C497.075 254.709 497.191 255.563 497.133 256.413C497.07 258.944 496.143 261.382 494.499 263.34C493.544 264.513 492.319 265.451 490.924 266.077C490.162 266.442 489.322 266.623 488.474 266.607C487.625 266.59 486.793 266.376 486.047 265.982C484.613 265.103 483.579 263.721 483.159 262.119C482.76 260.686 482.605 259.198 482.702 257.716C482.714 256.451 482.992 255.202 483.519 254.047C484.046 252.891 484.81 251.853 485.764 250.998C486.428 250.444 487.197 250.025 488.028 249.764C488.859 249.503 489.735 249.405 490.605 249.477C491.072 249.523 491.53 249.638 491.963 249.819C492.251 249.959 492.394 250.041 492.384 250.06C491.797 249.888 491.194 249.774 490.584 249.719C488.919 249.674 487.299 250.252 486.056 251.335C485.178 252.167 484.481 253.164 484.006 254.265C483.53 255.367 483.287 256.551 483.291 257.746C483.216 259.159 483.374 260.575 483.76 261.939C484.143 263.386 485.076 264.635 486.368 265.435C487.029 265.781 487.764 265.967 488.513 265.98C489.262 265.993 490.004 265.831 490.676 265.508C491.988 264.926 493.143 264.055 494.051 262.963C495.639 261.11 496.564 258.802 496.686 256.388C496.836 254.769 496.341 253.156 495.304 251.884C494.876 251.46 494.375 251.112 493.823 250.856Z" fill="#263238"/>
<path d="M493.279 270.7C493.179 270.7 493.152 270.276 492.869 269.706C492.485 268.969 491.899 268.349 491.177 267.917C490.42 267.491 489.616 267.151 488.78 266.901C488.128 266.685 487.721 266.525 487.742 266.435C487.763 266.345 488.195 266.358 488.89 266.468C489.818 266.604 490.71 266.915 491.517 267.383C492.355 267.873 492.985 268.64 493.292 269.545C493.5 270.257 493.352 270.709 493.279 270.7Z" fill="#263238"/>
<path d="M499.736 250.249C499.776 250.314 499.442 250.617 498.772 250.904C497.888 251.259 496.931 251.407 495.978 251.336C495.025 251.265 494.103 250.977 493.284 250.494C492.669 250.112 492.386 249.763 492.435 249.704C493.55 250.276 494.772 250.62 496.028 250.714C497.283 250.807 498.545 250.649 499.736 250.249Z" fill="#263238"/>
<path d="M549.229 292.446C552.481 293.343 556.085 291.027 559.239 292.209C559.825 292.429 560.36 292.763 560.812 293.189C561.264 293.615 561.624 294.125 561.871 294.69C562.117 295.255 562.245 295.862 562.246 296.475C562.248 297.089 562.124 297.697 561.88 298.263C561.637 298.828 561.28 299.341 560.83 299.769C560.38 300.198 559.847 300.534 559.262 300.757C558.676 300.981 558.051 301.087 557.423 301.07C556.795 301.054 556.177 300.914 555.605 300.659C552.361 299.21 551.667 294.726 548.607 292.939" fill="#263238"/>
<path d="M575.582 303.733C574.576 303.41 573.597 303.011 572.654 302.538L573.184 301.524C574.761 302.421 576.51 302.994 578.322 303.207C580.134 303.421 581.972 303.271 583.723 302.767C587.783 301.45 591.294 297.907 594.157 292.235L594.267 292.019C595.412 289.777 611.262 243.641 614.177 234.852C618.732 221.126 607.013 215.348 606.51 215.109C606.033 214.862 595.432 209.485 584.508 222.598C573.071 236.329 553.076 263.444 551.241 266.777C551.017 267.187 550.715 267.686 550.366 268.265C547.822 272.477 542.537 281.244 547.186 288.727C552.369 297.068 558.82 296.516 559.091 296.492L559.218 297.624C558.914 297.654 551.778 298.319 546.19 289.322C541.181 281.258 546.707 272.095 549.363 267.692C549.703 267.128 549.999 266.642 550.215 266.243C552.065 262.879 572.137 235.647 583.611 221.885C595.168 208.008 606.935 214.039 607.051 214.103C610.814 216.044 613.725 219.256 615.241 223.139C616.758 227.023 616.776 231.312 615.292 235.207C612.89 242.448 596.526 290.149 595.316 292.532L595.208 292.745C592.202 298.698 588.463 302.436 584.097 303.851C581.321 304.718 578.331 304.676 575.582 303.733Z" fill="#263238"/>
<path d="M611.795 243.886C611.927 241.831 611.753 239.767 611.278 237.761C609.961 232.934 606.78 228.793 602.404 226.207C597.993 223.684 592.817 222.747 587.773 223.558C585.7 223.939 583.682 224.565 581.764 225.421C581.754 225.404 581.878 225.317 582.128 225.17C582.485 224.946 582.857 224.746 583.241 224.569C584.653 223.9 586.151 223.42 587.694 223.14C592.85 222.187 598.184 223.095 602.706 225.695C605.165 227.148 607.272 229.104 608.883 231.429C610.193 233.322 611.142 235.432 611.683 237.655C612.045 239.15 612.171 240.69 612.057 242.223C612.035 242.64 611.982 243.055 611.898 243.465C611.854 243.745 611.815 243.889 611.795 243.886Z" fill="#263238"/>
<path d="M622.688 167.387L569.564 231.668L521.973 260.836L614.296 147.166L622.688 167.387Z" fill="#263238"/>
<path d="M620.117 251.412C620.341 251.509 621.818 248.499 624.215 243.675C627.174 237.364 630.901 231.425 635.315 225.985C639.789 220.636 645.642 216.55 652.272 214.148C657.401 212.422 660.882 212.633 660.86 212.321C660.082 212.077 659.261 211.993 658.448 212.074C656.233 212.105 654.033 212.433 651.91 213.05C644.889 215.22 638.674 219.352 634.032 224.935C629.504 230.469 625.832 236.622 623.133 243.197C621.01 248.173 619.92 251.322 620.117 251.412Z" fill="#263238"/>
<path d="M634.337 359.572C634.695 359.377 629.544 353.254 620.459 349.907C611.408 346.464 603.387 347.655 603.52 348.033C603.509 348.549 611.227 348.129 619.861 351.428C628.539 354.602 633.992 359.956 634.337 359.572Z" fill="#263238"/>
<path d="M624.251 369.639C624.658 369.59 622.58 362.34 616.073 355.918C609.63 349.432 602.248 347.256 602.189 347.652C601.96 348.118 608.746 350.861 614.881 357.058C621.099 363.172 623.777 369.852 624.251 369.639Z" fill="#263238"/>
<path d="M521.972 260.836C523.253 260.287 524.485 259.634 525.655 258.884L535.645 253.024L569.984 232.322L570.094 232.257L570.18 232.153L586.143 212.894C600.841 195.111 614.01 179.018 623.133 167.73L623.346 167.465L623.219 167.168C620.578 161.085 618.421 156.116 616.822 152.434L615.021 148.488C614.842 148.014 614.598 147.567 614.295 147.158C614.368 147.658 614.512 148.146 614.721 148.607L616.241 152.662L622.159 167.588L622.243 167.028C612.87 178.119 599.541 194.089 584.845 211.871L568.943 231.173L569.137 231.003L535.115 252.2L525.368 258.439C524.169 259.143 523.033 259.945 521.972 260.836Z" fill="#263238"/>
<path d="M514.214 272.91C514.241 271.51 514.132 270.111 513.887 268.731C513.503 265.766 513.007 261.944 512.409 257.333C511.091 247.677 509.149 234.252 506.873 219.152L506.784 219.653L509.944 213.922C518.079 199.146 525.359 185.728 530.556 175.977L536.634 164.39C537.442 163.002 538.12 161.547 538.662 160.041C537.675 161.315 536.805 162.671 536.062 164.095L529.518 175.432C524.055 185.044 516.609 198.376 508.475 213.154L505.192 219.125L505.232 219.391C507.552 234.485 509.685 247.881 511.304 257.496C512.099 262.076 512.769 265.873 513.284 268.821C513.461 270.21 513.773 271.579 514.214 272.91Z" fill="#263238"/>
<path d="M611.667 217.185L608.927 215.566L611.677 217.17C616.231 210.226 620.229 202.948 623.636 195.403L624.205 194.058C627.453 186.395 631.133 177.711 629.574 169.321L629.528 169.102C628.736 165.416 626.675 162.107 623.689 159.724L622.795 158.996L620.15 159.007L620.169 163.852L619.59 164.534C619.791 164.69 619.988 164.868 620.176 165.044V165.264H620.408C621.863 166.655 622.856 168.44 623.258 170.389L623.293 170.57C624.447 177.117 621.173 184.841 618.283 191.66L617.711 193.018C614.42 200.262 610.571 207.252 606.195 213.927L611.667 217.185Z" fill="#263238"/>
<path d="M535.583 481.314C535.513 481.404 536.289 482.123 537.754 483.349C539.218 484.574 541.376 486.3 544.089 488.381C551.138 493.853 558.567 498.839 566.325 503.303C570.64 505.719 575.107 507.867 579.699 509.734C583.466 511.228 587.342 512.446 591.294 513.376C593.95 514.026 596.653 514.479 599.379 514.732C600.372 514.904 601.386 514.934 602.388 514.822C602.425 514.524 598.175 514.073 591.593 512.263C587.746 511.188 583.971 509.88 580.289 508.347C575.797 506.426 571.413 504.271 567.157 501.891C558.109 496.78 550.395 491.356 544.797 487.458C539.199 483.56 535.729 481.128 535.583 481.314Z" fill="#263238"/>
<path d="M530.693 493.495C531.141 494.414 531.72 495.266 532.413 496.027C534.119 498.23 535.971 500.322 537.956 502.29C551.117 515.467 568.148 524.322 586.69 527.629C589.47 528.138 592.281 528.47 595.105 528.623C596.137 528.758 597.184 528.752 598.215 528.604C598.241 528.314 593.839 527.983 586.924 526.5C568.831 522.631 552.179 513.972 538.792 501.472C533.67 496.691 530.925 493.313 530.693 493.495Z" fill="#263238"/>
<path d="M599.168 529.713C599.627 529.758 600.4 525.922 600.898 521.145C601.396 516.367 601.424 512.457 600.966 512.412C600.508 512.367 599.734 516.201 599.238 520.98C598.742 525.759 598.71 529.668 599.168 529.713Z" fill="#263238"/>
<path d="M375.165 164.32C375.165 164.32 355.671 211.395 354.087 223.471C352.503 235.546 351.974 246.767 351.974 246.767L375.165 262.581L395.815 238.429L398.261 174.64L375.165 164.32Z" fill="#263238"/>
<path d="M362.338 174.634C362.338 174.634 352.596 218.36 351.974 220.042C351.352 221.724 347.604 234.448 347.604 234.448V257.497C347.604 257.497 348.707 276.465 360.837 280.307C372.966 284.15 416.54 279.657 416.54 279.657C416.54 279.657 433.626 276.204 437.373 275.484C441.119 274.763 478.393 260.085 478.393 260.085L507.397 179.79L492.5 182.106L436.261 213.449C436.261 213.449 431.662 211.399 429.55 212.362C427.438 213.324 399.261 221.484 399.261 221.484C399.261 221.484 407.982 179.551 406.492 179.792C405.002 180.032 362.338 174.634 362.338 174.634Z" fill="#263238"/>
<path d="M475.953 552.172C475.992 552.05 476.013 551.924 476.015 551.796C476.041 551.5 476.072 551.135 476.111 550.689C476.182 549.654 476.279 548.235 476.402 546.432C476.62 542.734 477.014 537.387 477.572 530.788C478.106 524.185 478.919 516.344 479.883 507.634C480.888 498.937 482.095 489.378 483.45 479.359C486.188 459.324 488.828 441.19 490.531 428.042C491.389 421.468 492.053 416.145 492.462 412.461C492.658 410.671 492.812 409.257 492.923 408.218C492.963 407.772 492.996 407.409 493.022 407.112C493.04 406.986 493.04 406.858 493.022 406.732C492.974 406.85 492.943 406.975 492.931 407.101C492.884 407.397 492.825 407.757 492.751 408.198C492.6 409.233 492.395 410.641 492.136 412.422C491.61 416.162 490.864 421.455 489.945 427.966C488.094 441.091 485.361 459.201 482.629 479.253C481.273 489.275 480.085 498.841 479.131 507.553C478.208 516.271 477.456 524.13 476.995 530.743C476.534 537.356 476.2 542.711 476.087 546.416C476.029 548.216 475.984 549.638 475.952 550.683C475.952 551.13 475.94 551.495 475.937 551.793C475.924 551.92 475.929 552.047 475.953 552.172Z" fill="#263238"/>
<path d="M646.508 187.394C646.508 187.394 646.754 187.644 647.261 188.11C647.769 188.576 648.534 189.275 649.529 190.174L658.367 198.134C660.275 199.887 662.501 201.76 664.761 203.969C667.198 206.404 669.362 209.087 671.216 211.972C673.282 215.358 675.083 218.892 676.604 222.544C678.443 226.616 680.007 230.803 681.284 235.075C681.979 237.376 682.425 239.74 682.615 242.131C682.694 243.367 682.624 244.609 682.405 245.829C682.228 247.084 682.05 248.352 681.871 249.634C681.149 254.762 680.397 260.113 679.614 265.687C678.051 276.827 676.37 288.828 674.583 301.563L662.748 386.22L662.907 385.969C656.565 390.614 650.025 395.304 643.213 399.889C639.835 402.25 636.304 404.394 632.64 406.306L620.502 409.948C604.144 414.943 587.245 420.012 569.892 424.759C558.976 427.709 548.165 430.552 537.42 432.904C532.041 434.051 526.701 435.18 521.358 436C516.096 436.919 510.765 437.405 505.42 437.45L505.806 437.801C503.251 415.51 500.805 394.16 498.491 374.052L498.173 374.456L587.473 359.594L587.559 359.58L587.625 359.521C592.632 355.073 597.326 350.923 602.088 347.432L602.18 347.365L602.197 347.26C606.128 323.437 609.26 304.474 611.41 291.445C612.45 284.947 613.251 279.933 613.795 276.523C614.314 273.16 614.59 271.284 614.503 271.424L601.661 347.174L601.769 347.003C596.938 350.518 592.255 354.646 587.221 359.096L587.38 359.023L498.054 373.729L497.702 373.788L497.742 374.134C500.029 394.243 502.457 415.602 504.994 437.888L505.033 438.241H505.378C510.778 438.201 516.165 437.716 521.48 436.789C526.849 435.966 532.202 434.837 537.591 433.69C548.361 431.334 559.181 428.494 570.107 425.537C587.474 420.787 604.379 415.712 620.737 410.709L632.965 407.029C636.671 405.096 640.244 402.927 643.659 400.537C650.479 395.935 657.018 391.238 663.379 386.579L663.51 386.483L663.53 386.327C667.776 355.646 671.722 327.141 675.251 301.639C677.01 288.89 678.663 276.891 680.201 265.746C680.968 260.175 681.705 254.822 682.412 249.685C682.588 248.402 682.762 247.134 682.935 245.88C683.151 244.633 683.218 243.364 683.132 242.102C682.933 239.677 682.473 237.279 681.761 234.948C680.463 230.657 678.876 226.455 677.01 222.368C675.465 218.704 673.638 215.16 671.544 211.767C669.661 208.871 667.466 206.181 664.996 203.742C662.7 201.526 660.475 199.681 658.548 197.938L649.625 190.07L647.314 188.051C646.786 187.612 646.508 187.394 646.508 187.394Z" fill="#263238"/>
<path d="M551.906 364.946L490.71 280.624L383.579 312.279L464.614 414.639L501.315 407.701L497.934 373.844L551.906 364.946Z" fill="#263238"/>
<path d="M414.88 308.321C414.88 308.833 415.035 309.333 415.326 309.759C415.618 310.185 416.032 310.517 416.516 310.712C417 310.908 417.533 310.96 418.048 310.86C418.562 310.76 419.034 310.513 419.405 310.151C419.776 309.789 420.028 309.328 420.131 308.826C420.233 308.323 420.18 307.803 419.98 307.33C419.779 306.857 419.439 306.452 419.003 306.168C418.567 305.883 418.055 305.732 417.531 305.732C416.827 305.732 416.153 306.004 415.656 306.49C415.159 306.975 414.88 307.634 414.88 308.321Z" fill="#263238"/>
<path d="M457.687 296.661C457.687 297.174 457.842 297.674 458.134 298.1C458.425 298.526 458.839 298.857 459.324 299.053C459.808 299.249 460.341 299.301 460.855 299.201C461.37 299.101 461.842 298.854 462.213 298.492C462.583 298.13 462.836 297.669 462.938 297.167C463.041 296.664 462.988 296.144 462.787 295.671C462.587 295.198 462.247 294.793 461.811 294.509C461.375 294.224 460.862 294.073 460.338 294.073C459.635 294.073 458.961 294.345 458.464 294.831C457.966 295.316 457.687 295.975 457.687 296.661Z" fill="#263238"/>
<path d="M498.671 377.278L493.173 376.335C493.173 376.335 491.414 368.178 489.216 366.46C487.019 364.743 465.006 354.947 460.17 352.372C455.334 349.797 436.425 341.383 434.049 345.849C431.361 350.911 439.06 355.07 443.236 357.002C447.412 358.934 459.325 363.455 456.908 366.251C454.491 369.046 427.869 367.777 427.869 367.777L424.53 363.402C424.53 363.402 418.664 368.827 419.323 373.549C419.668 376.27 420.565 378.897 421.961 381.277H423.939C423.383 382.098 423.069 383.053 423.03 384.037C422.991 385.021 423.23 385.996 423.72 386.857C425.298 389.138 427.062 391.291 428.993 393.296C428.993 393.296 432.112 399.718 441.522 402.233C442.621 402.526 486.6 406.257 486.6 406.257L501.317 407.699L498.671 377.278Z" fill="#263238"/>
<path d="M597.709 9.68218C613.057 13.9656 625.581 24.4225 625.166 40.0062C624.98 46.9811 622.871 54.6906 626.915 60.4402C625.968 60.1621 625.102 59.6673 624.389 58.9968C623.677 58.3264 623.138 57.4998 622.819 56.5854C620.244 66.4817 619.834 81.2111 611.359 87.1905" fill="#263238"/>
<path d="M608.552 76.6699C608.993 76.4929 626.279 71.8942 625.395 89.017C624.511 106.14 607.091 101.741 607.086 101.249C607.081 100.757 608.552 76.6699 608.552 76.6699Z" fill="#263238"/>
<path d="M612.776 95.0258C612.855 94.9746 613.072 95.2495 613.571 95.5058C614.282 95.8436 615.099 95.8993 615.852 95.6611C617.738 95.088 619.446 92.294 619.691 89.2111C619.809 87.7452 619.592 86.2718 619.054 84.8982C618.917 84.3566 618.646 83.8556 618.267 83.4383C617.887 83.0209 617.41 82.6996 616.876 82.5018C616.529 82.3942 616.156 82.408 615.819 82.5411C615.482 82.6741 615.203 82.9178 615.031 83.2302C614.772 83.6961 614.872 84.0455 614.772 84.0704C614.719 84.1108 614.409 83.7598 614.587 83.064C614.707 82.6451 614.97 82.279 615.333 82.0265C615.834 81.6942 616.448 81.5671 617.044 81.6724C617.757 81.8469 618.412 82.1971 618.947 82.6895C619.481 83.182 619.878 83.8002 620.098 84.4851C620.767 86.0042 621.047 87.6603 620.91 89.3089C620.619 92.7537 618.644 95.894 616.073 96.4842C615.595 96.5951 615.098 96.5996 614.619 96.4975C614.139 96.3953 613.689 96.1891 613.302 95.894C612.787 95.4405 612.714 95.0538 612.776 95.0258Z" fill="#263238"/>
<path d="M518.414 108.514C518.49 96.4096 520.723 71.5012 523.012 48.9768C524.199 37.2963 529.845 26.4803 538.828 18.6813C547.81 10.8823 559.47 6.67196 571.487 6.88818L573.962 6.93323C600.631 8.93826 613.787 32.1771 610.998 58.1556L607.251 141.02L543.639 175.106L543.849 137.947C543.849 137.947 518.258 133.58 518.414 108.514Z" fill="#263238"/>
<path d="M543.819 137.924C555.663 138.355 567.371 135.333 577.449 129.242C577.449 129.242 569.374 147.413 543.811 144.697L543.819 137.924Z" fill="#263238"/>
<path d="M529.268 67.6496C529.241 68.5823 529.588 69.4884 530.236 70.1747C530.883 70.8611 531.779 71.2735 532.733 71.3242C533.199 71.3687 533.669 71.3218 534.115 71.1862C534.562 71.0506 534.977 70.8292 535.334 70.5348C535.692 70.2404 535.986 69.8791 536.198 69.4722C536.411 69.0652 536.538 68.6208 536.572 68.1652C536.599 67.2327 536.253 66.3267 535.606 65.6401C534.959 64.9535 534.064 64.5405 533.11 64.489C532.644 64.4443 532.174 64.4911 531.727 64.6267C531.28 64.7622 530.865 64.9838 530.507 65.2783C530.149 65.5728 529.855 65.9344 529.642 66.3416C529.429 66.7489 529.302 67.1936 529.268 67.6496Z" fill="#263238"/>
<path d="M527.938 60.0038C528.384 60.4774 531.197 58.5206 535.141 58.606C539.082 58.6308 541.938 60.6654 542.374 60.201C542.588 59.996 542.141 59.1449 540.899 58.227C539.215 57.041 537.195 56.3932 535.119 56.3726C533.068 56.3284 531.056 56.9223 529.374 58.0686C528.145 58.9523 527.719 59.7894 527.938 60.0038Z" fill="#263238"/>
<path d="M566.174 67.6496C566.147 68.5828 566.494 69.4895 567.143 70.1754C567.791 70.8613 568.689 71.272 569.644 71.3196C570.11 71.3638 570.579 71.3168 571.026 71.1811C571.473 71.0455 571.887 70.824 572.245 70.5296C572.602 70.2353 572.896 69.8741 573.109 69.4672C573.322 69.0604 573.449 68.6161 573.483 68.1606C573.509 67.2283 573.162 66.3227 572.516 65.6363C571.869 64.9498 570.974 64.5366 570.021 64.4844C569.554 64.4388 569.083 64.4851 568.635 64.6205C568.187 64.756 567.771 64.9778 567.412 65.273C567.054 65.5681 566.759 65.9305 566.547 66.3387C566.334 66.7469 566.207 67.1927 566.174 67.6496Z" fill="#263238"/>
<path d="M567.258 59.6263C567.65 60.1466 570.666 58.5004 574.574 59.0051C578.488 59.4478 581.102 61.7712 581.587 61.3565C581.822 61.1748 581.477 60.2833 580.339 59.2381C578.796 57.8805 576.861 57.0227 574.8 56.7827C572.766 56.5218 570.699 56.8999 568.9 57.862C567.576 58.606 567.06 59.3918 567.258 59.6263Z" fill="#263238"/>
<path d="M552.194 91.0437C552.216 90.8247 549.773 90.3666 545.81 89.8012C544.805 89.6817 543.856 89.4689 543.7 88.7949C543.633 87.7775 543.887 86.7646 544.427 85.8921C545.419 83.5304 546.459 81.0522 547.545 78.4575C551.884 67.8701 555.042 59.1573 554.605 58.9911C554.167 58.8249 550.295 67.2691 545.958 77.8565C544.914 80.4667 543.916 82.9604 542.964 85.3377C542.307 86.5126 542.096 87.8758 542.367 89.1878C542.507 89.5372 542.726 89.851 543.008 90.1054C543.29 90.3597 543.628 90.5478 543.996 90.6554C544.551 90.8136 545.124 90.9023 545.702 90.9195C549.695 91.199 552.175 91.2627 552.194 91.0437Z" fill="#263238"/>
<path d="M563.749 93.9185C563.113 93.8688 563.02 98.0497 559.296 100.951C555.571 103.852 551.026 103.31 550.982 103.902C550.918 104.163 551.984 104.731 553.909 104.818C556.416 104.897 558.871 104.111 560.843 102.597C562.735 101.142 563.974 99.0258 564.297 96.6954C564.499 94.9435 564.043 93.8983 563.749 93.9185Z" fill="#263238"/>
<path d="M567.026 43.0037C567.395 44.0566 571.341 43.6249 575.957 44.2601C580.587 44.7975 584.292 46.1875 584.923 45.2588C585.206 44.8146 584.574 43.8175 583.085 42.7738C581.095 41.4949 578.833 40.6754 576.471 40.3775C574.108 40.0796 571.707 40.3111 569.45 41.0546C567.736 41.696 566.867 42.502 567.026 43.0037Z" fill="#263238"/>
<path d="M529.957 50.2053C530.634 51.0937 533.368 50.2333 536.636 50.2504C539.902 50.1541 542.657 50.9477 543.315 50.0423C543.603 49.6043 543.185 48.7206 541.992 47.8679C540.386 46.847 538.506 46.3146 536.591 46.3381C534.675 46.3616 532.809 46.94 531.23 48C530.055 48.8806 529.659 49.7736 529.957 50.2053Z" fill="#263238"/>
<path d="M552.714 4.21378C561.788 0.725543 570.977 2.56594 580.625 3.94819C588.05 4.86032 595.114 7.60562 601.151 11.9248C610.904 18.9588 615.737 30.1643 616.259 41.9942C616.787 53.3746 615.508 64.7662 612.467 75.7645L611.513 75.5517C612.102 78.4404 612.679 81.5031 611.648 84.2707C610.618 87.0383 607.329 89.2282 604.567 88.0447C601.34 86.664 601.227 82.3138 601.526 78.8815C602.412 67.3028 602.458 55.6774 601.664 44.0924C601.162 35.4339 596.106 24.8341 589.19 20.7293C576.601 12.5476 560.217 19.229 554.644 20.178C546.12 13.0338 538.14 18.6249 532.921 24.817C534.829 15.4799 543.639 7.70045 552.714 4.21378Z" fill="#263238"/>
<path d="M596.698 20.3366C593.35 17.734 589.153 16.3983 584.877 16.5749C580.602 16.7515 576.535 18.4285 573.424 21.298C570.935 23.7441 569.253 26.9077 566.632 29.2187C561.085 34.1109 552.796 34.142 545.322 33.8951C547.582 33.0683 549.471 31.49 550.658 29.4377C546.037 31.9586 540.927 33.5054 535.656 33.9781C530.385 34.4508 525.072 33.8389 520.059 32.182C525.35 18.3984 537.676 5.15831 552.324 1.67629C566.972 -1.80573 586.533 -0.198301 597.709 9.67933" fill="#263238"/>
<path d="M523.525 31.9457C523.797 32.0257 524.077 32.0711 524.36 32.0808C525.163 32.173 525.97 32.2248 526.778 32.2361C529.762 32.2572 532.734 31.8677 535.607 31.0791C539.893 29.9185 543.892 27.9155 547.358 25.1928C551.298 22.1131 554.531 17.7272 558.288 13.582C560.078 11.5427 562.127 9.73346 564.383 8.19743C566.496 6.80352 568.856 5.80601 571.342 5.25589C575.614 4.43935 580.008 4.43935 584.28 5.25589C587.953 5.87713 590.874 6.6692 592.897 7.18794L595.229 7.79518C595.496 7.88454 595.774 7.93988 596.056 7.95981C595.812 7.81921 595.551 7.71159 595.278 7.63988C594.758 7.45351 593.988 7.19724 592.99 6.88507C590.167 5.98886 587.294 5.25658 584.383 4.69211C580.035 3.77848 575.544 3.72251 571.174 4.52748C568.588 5.07824 566.131 6.09875 563.932 7.53583C561.612 9.10117 559.508 10.951 557.671 13.04C553.868 17.2442 550.688 21.5819 546.876 24.6135C543.503 27.3047 539.617 29.315 535.443 30.5277C532.627 31.3545 529.713 31.8242 526.774 31.9255C524.688 31.9721 523.525 31.8711 523.525 31.9457Z" fill="#263238"/>
<path d="M548.215 34.0936C548.415 34.1299 548.62 34.1299 548.821 34.0936C549.396 34.0468 549.968 33.9623 550.532 33.8404C552.612 33.3744 554.609 32.6031 556.452 31.5527C559.171 29.9827 561.681 28.0924 563.927 25.9244C566.495 23.5248 569.049 20.6578 571.893 17.8359C574.483 15.1278 577.468 12.8083 580.752 10.9526C583.462 9.50846 586.465 8.66582 589.546 8.48475C591.625 8.37121 593.705 8.6888 595.648 9.41661C597.018 9.95708 597.695 10.4339 597.743 10.3593C597.759 10.336 597.6 10.204 597.275 9.98504C596.803 9.65571 596.301 9.36877 595.776 9.12773C593.816 8.26138 591.678 7.84637 589.527 7.91476C586.338 8.01763 583.215 8.83206 580.398 10.2956C577.018 12.1501 573.95 14.5021 571.304 17.269C568.442 20.1189 565.897 22.9937 563.396 25.3916C561.213 27.5454 558.786 29.4479 556.16 31.062C553.7 32.4916 551.016 33.5159 548.215 34.0936Z" fill="#263238"/>
<path d="M626.607 56.0154C624.41 54.4634 622.448 52.6179 620.777 50.533C619.028 48.2284 617.552 45.7373 616.378 43.1077C615.009 40.1568 613.816 36.7634 612.471 33.2254C611.268 29.8561 609.74 26.6059 607.908 23.5187C606.369 20.9963 604.414 18.7398 602.121 16.8404C600.569 15.5676 598.807 14.5605 596.911 13.8616C596.397 13.677 595.87 13.5286 595.334 13.4174C594.968 13.3397 594.772 13.3133 594.766 13.3413C597.319 14.2233 599.683 15.5574 601.741 17.2768C603.922 19.1882 605.782 21.4217 607.254 23.896C609.023 26.9628 610.509 30.1768 611.694 33.5003C613.035 37.0243 614.256 40.4271 615.683 43.4106C616.911 46.0743 618.467 48.5819 620.317 50.8778C621.575 52.4218 623.045 53.7885 624.686 54.9391C625.132 55.2481 625.599 55.5293 626.082 55.7809C626.417 55.9611 626.591 56.0403 626.607 56.0154Z" fill="#263238"/>
<path d="M623.266 62.0445C623.266 61.9591 622.47 61.9715 621.074 61.6873C619.118 61.2571 617.269 60.4515 615.634 59.3173C613.22 57.6243 611.197 55.4549 609.697 52.9496C607.923 49.8304 606.617 46.4789 605.817 42.9974C604.863 39.298 604.196 35.6979 603.318 32.4706C602.586 29.5906 601.534 26.7976 600.179 24.1414C599.249 22.3519 598.072 20.6953 596.681 19.2181C596.301 18.8213 595.896 18.4479 595.469 18.0999C595.176 17.8607 595.014 17.7474 594.992 17.7676C596.855 19.7522 598.422 21.9843 599.645 24.3977C600.902 27.0476 601.882 29.8147 602.569 32.657C603.396 35.8594 604.047 39.4564 605.003 43.1962C605.821 46.7531 607.179 50.1704 609.032 53.3348C610.614 55.9075 612.751 58.112 615.295 59.7941C617.012 60.924 618.96 61.6769 621.004 62.001C621.557 62.0811 622.115 62.1149 622.674 62.1019C623.067 62.0895 623.266 62.0725 623.266 62.0445Z" fill="#263238"/>
<path d="M0 552.595C0 552.818 239.324 553 534.475 553C829.729 553 1069 552.818 1069 552.595C1069 552.371 829.729 552.191 534.475 552.191C239.322 552.191 0 552.373 0 552.595Z" fill="#263238"/>
</svg>
