<svg width="30" height="30" viewBox="0 0 30 30" fill="none" xmlns="http://www.w3.org/2000/svg">
<path d="M28.0496 7.78766C27.8165 7.78813 27.5895 7.86172 27.4005 7.99806C27.2115 8.1344 27.07 8.32662 26.9961 8.54763H25.6701V6.84665H27.2896C27.3828 6.84657 27.4722 6.80951 27.5381 6.7436C27.6041 6.67768 27.6411 6.5883 27.6412 6.49509V5.41169C27.8916 5.32821 28.1041 5.15837 28.2407 4.93254C28.3773 4.70672 28.4291 4.43966 28.3868 4.17915C28.3445 3.91863 28.2109 3.68166 28.0099 3.51064C27.8089 3.33962 27.5536 3.2457 27.2896 3.2457C27.0257 3.2457 26.7704 3.33962 26.5694 3.51064C26.3684 3.68166 26.2347 3.91863 26.1925 4.17915C26.1502 4.43966 26.202 4.70672 26.3386 4.93254C26.4752 5.15837 26.6877 5.32821 26.9381 5.41169V6.14352H25.6701V5.58044C25.6699 5.39123 25.5946 5.20984 25.4608 5.07605C25.327 4.94226 25.1456 4.867 24.9564 4.86677H23.9931V2.95309C24.2435 2.86962 24.456 2.69977 24.5926 2.47395C24.7292 2.24813 24.781 1.98107 24.7387 1.72055C24.6965 1.46003 24.5629 1.22307 24.3618 1.05204C24.1608 0.881022 23.9055 0.787109 23.6416 0.787109C23.3777 0.787109 23.1223 0.881022 22.9213 1.05204C22.7203 1.22307 22.5867 1.46003 22.5444 1.72055C22.5021 1.98107 22.5539 2.24813 22.6905 2.47395C22.8271 2.69977 23.0396 2.86962 23.29 2.95309V4.86677H22.1088V3.5197C22.1087 3.42648 22.0716 3.3371 22.0057 3.27118C21.9398 3.20527 21.8504 3.1682 21.7572 3.16813H19.9965C19.913 2.91776 19.7431 2.70525 19.5173 2.56865C19.2915 2.43204 19.0244 2.38025 18.7639 2.42253C18.5034 2.46481 18.2664 2.59842 18.0954 2.79944C17.9244 3.00046 17.8305 3.25577 17.8305 3.5197C17.8305 3.78362 17.9244 4.03893 18.0954 4.23995C18.2664 4.44097 18.5034 4.57458 18.7639 4.61686C19.0244 4.65914 19.2915 4.60735 19.5173 4.47074C19.7431 4.33414 19.913 4.12163 19.9965 3.87126H21.4056V4.86677H20.5191C20.3299 4.867 20.1485 4.94226 20.0147 5.07605C19.8809 5.20984 19.8057 5.39123 19.8054 5.58044V6.28298H18.3418C18.2583 6.0326 18.0884 5.8201 17.8626 5.68349C17.6368 5.54688 17.3697 5.49509 17.1092 5.53737C16.8487 5.57966 16.6117 5.71326 16.4407 5.91428C16.2697 6.1153 16.1758 6.37061 16.1758 6.63454C16.1758 6.89847 16.2697 7.15378 16.4407 7.3548C16.6117 7.55582 16.8487 7.68942 17.1092 7.7317C17.3697 7.77399 17.6368 7.72219 17.8626 7.58559C18.0884 7.44898 18.2583 7.23648 18.3418 6.9861H19.8054V10.0183C19.8057 10.2075 19.8809 10.3889 20.0147 10.5227C20.1485 10.6565 20.3299 10.7318 20.5191 10.732H21.4056V11.6097H19.9965C19.913 11.3594 19.7431 11.1469 19.5173 11.0102C19.2915 10.8736 19.0244 10.8218 18.7639 10.8641C18.5034 10.9064 18.2664 11.04 18.0954 11.241C17.9244 11.4421 17.8305 11.6974 17.8305 11.9613C17.8305 12.2252 17.9244 12.4805 18.0954 12.6816C18.2664 12.8826 18.5034 13.0162 18.7639 13.0585C19.0244 13.1007 19.2915 13.049 19.5173 12.9123C19.7431 12.7757 19.913 12.5632 19.9965 12.3129H21.7572C21.8034 12.3129 21.8491 12.3038 21.8918 12.2861C21.9344 12.2685 21.9732 12.2426 22.0058 12.2099C22.0385 12.1773 22.0644 12.1385 22.082 12.0958C22.0997 12.0532 22.1088 12.0075 22.1088 11.9613V10.732H23.29V12.7564C23.0398 12.8399 22.8275 13.0097 22.691 13.2354C22.5545 13.4611 22.5027 13.728 22.545 13.9883C22.5873 14.2487 22.7208 14.4855 22.9217 14.6564C23.1226 14.8273 23.3778 14.9212 23.6416 14.9212C23.9053 14.9212 24.1605 14.8273 24.3614 14.6564C24.5623 14.4855 24.6959 14.2487 24.7382 13.9883C24.7804 13.728 24.7287 13.4611 24.5922 13.2354C24.4557 13.0097 24.2434 12.8399 23.9931 12.7564V10.732H24.9564C25.1456 10.7318 25.327 10.6565 25.4608 10.5227C25.5946 10.3889 25.6699 10.2075 25.6701 10.0183V9.25075H26.9961C27.0609 9.44477 27.178 9.61713 27.3344 9.74885C27.4909 9.88058 27.6808 9.96655 27.883 9.99729C28.0852 10.028 28.292 10.0024 28.4806 9.9231C28.6691 9.84383 28.8321 9.71406 28.9517 9.54806C29.0712 9.38207 29.1426 9.1863 29.158 8.98234C29.1733 8.77837 29.1321 8.57411 29.0388 8.39207C28.9456 8.21003 28.8038 8.05727 28.6293 7.95063C28.4547 7.84398 28.2541 7.78759 28.0496 7.78766ZM26.8812 4.35817C26.8812 4.2774 26.9052 4.19844 26.9501 4.13128C26.9949 4.06412 27.0587 4.01177 27.1333 3.98086C27.208 3.94995 27.2901 3.94186 27.3693 3.95762C27.4485 3.97338 27.5213 4.01228 27.5784 4.06939C27.6355 4.12651 27.6744 4.19928 27.6902 4.2785C27.7059 4.35772 27.6979 4.43983 27.6669 4.51446C27.636 4.58908 27.5837 4.65287 27.5165 4.69774C27.4494 4.74262 27.3704 4.76657 27.2896 4.76657C27.1813 4.76651 27.0775 4.72347 27.0009 4.64689C26.9243 4.57031 26.8813 4.46647 26.8812 4.35817H26.8812ZM18.9429 3.92809C18.8622 3.92809 18.7832 3.90414 18.716 3.85927C18.6489 3.81439 18.5965 3.75061 18.5656 3.67598C18.5347 3.60136 18.5266 3.51924 18.5424 3.44002C18.5581 3.3608 18.597 3.28803 18.6542 3.23091C18.7113 3.1738 18.784 3.1349 18.8633 3.11914C18.9425 3.10339 19.0246 3.11147 19.0992 3.14238C19.1739 3.1733 19.2376 3.22564 19.2825 3.2928C19.3274 3.35996 19.3513 3.43892 19.3513 3.5197C19.3512 3.62795 19.3081 3.73172 19.2315 3.80827C19.155 3.88482 19.0512 3.92791 18.9429 3.92809H18.9429ZM17.2883 7.04294C17.2075 7.04305 17.1284 7.0192 17.0612 6.9744C16.994 6.92959 16.9415 6.86585 16.9105 6.79123C16.8795 6.71662 16.8713 6.63448 16.887 6.55522C16.9027 6.47596 16.9416 6.40314 16.9987 6.34597C17.0558 6.28879 17.1285 6.24984 17.2078 6.23403C17.287 6.21823 17.3692 6.22628 17.4438 6.25717C17.5185 6.28807 17.5823 6.34041 17.6272 6.40758C17.6721 6.47476 17.6961 6.55374 17.6961 6.63454C17.696 6.74273 17.653 6.84646 17.5766 6.92302C17.5001 6.99957 17.3964 7.0427 17.2882 7.04294H17.2883ZM18.9429 12.3697C18.8622 12.3696 18.7834 12.3457 18.7163 12.3008C18.6492 12.2559 18.597 12.1922 18.5661 12.1176C18.5353 12.0431 18.5272 11.961 18.543 11.8819C18.5587 11.8028 18.5976 11.7301 18.6546 11.673C18.7117 11.6159 18.7844 11.5771 18.8635 11.5613C18.9427 11.5456 19.0247 11.5536 19.0993 11.5845C19.1738 11.6153 19.2376 11.6676 19.2824 11.7347C19.3273 11.8017 19.3513 11.8806 19.3513 11.9613C19.3513 12.0696 19.3082 12.1734 19.2316 12.25C19.1551 12.3266 19.0512 12.3696 18.9429 12.3697H18.9429ZM24.0494 13.8099C24.0493 13.8906 24.0253 13.9695 23.9805 14.0366C23.9356 14.1037 23.8718 14.156 23.7972 14.1868C23.7226 14.2176 23.6405 14.2257 23.5614 14.2099C23.4822 14.1941 23.4095 14.1551 23.3525 14.098C23.2955 14.0409 23.2566 13.9681 23.241 13.889C23.2253 13.8098 23.2334 13.7277 23.2643 13.6532C23.2953 13.5786 23.3476 13.5149 23.4148 13.4701C23.4819 13.4253 23.5609 13.4015 23.6416 13.4015C23.7498 13.4017 23.8535 13.4449 23.9299 13.5214C24.0064 13.598 24.0493 13.7017 24.0494 13.8099ZM23.6416 2.30798C23.5609 2.30803 23.4819 2.28416 23.4148 2.23936C23.3477 2.19457 23.2953 2.13087 23.2644 2.05632C23.2334 1.98177 23.2253 1.89972 23.241 1.82054C23.2567 1.74137 23.2955 1.66862 23.3525 1.6115C23.4095 1.55439 23.4822 1.51547 23.5614 1.49966C23.6405 1.48386 23.7226 1.49188 23.7972 1.52272C23.8718 1.55355 23.9356 1.60582 23.9804 1.6729C24.0253 1.73998 24.0493 1.81886 24.0494 1.89958C24.0494 2.00779 24.0065 2.11159 23.93 2.18816C23.8535 2.26474 23.7498 2.30783 23.6416 2.30798H23.6416ZM28.0496 9.30759C27.9688 9.30759 27.8899 9.28363 27.8227 9.23876C27.7555 9.19388 27.7032 9.1301 27.6723 9.05547C27.6414 8.98085 27.6333 8.89873 27.649 8.81951C27.6648 8.74029 27.7037 8.66752 27.7608 8.61041C27.8179 8.55329 27.8907 8.51439 27.9699 8.49864C28.0491 8.48288 28.1313 8.49097 28.2059 8.52188C28.2805 8.55279 28.3443 8.60513 28.3892 8.67229C28.434 8.73945 28.458 8.81841 28.458 8.89919C28.4579 9.00747 28.4148 9.1113 28.3383 9.18787C28.2617 9.26444 28.1579 9.3075 28.0496 9.30759Z" fill="#24AAE3"/>
<path d="M18.1516 25.1798V17.2505C18.1507 16.448 17.8315 15.6786 17.264 15.1111C16.6965 14.5436 15.9271 14.2244 15.1245 14.2235H5.85821V12.1745H12.1504C12.5316 12.1745 12.8973 12.0231 13.1669 11.7535C13.4364 11.4839 13.5879 11.1183 13.5879 10.737C13.5879 10.3558 13.4364 9.99016 13.1669 9.72058C12.8973 9.451 12.5316 9.29955 12.1504 9.29955H5.85821V6.89908C5.85777 6.4964 5.69761 6.11034 5.41287 5.8256C5.12814 5.54087 4.74208 5.3807 4.33941 5.38025H1.09277C0.999533 5.38025 0.910112 5.41729 0.844181 5.48322C0.77825 5.54915 0.741211 5.63857 0.741211 5.73181C0.741211 5.82505 0.77825 5.91447 0.844181 5.9804C0.910112 6.04633 0.999533 6.08337 1.09277 6.08337H2.98322V17.9562C2.11456 18.687 1.46035 19.6398 1.09028 20.713C0.720214 21.7862 0.648132 22.9396 0.881712 24.0505C1.11529 25.1615 1.64579 26.1882 2.41672 27.0215C3.18764 27.8548 4.17013 28.4634 5.25956 28.7825C6.34899 29.1016 7.50456 29.1193 8.60324 28.8336C9.70192 28.548 10.7026 27.9697 11.4986 27.1604C12.2947 26.3511 12.8563 25.341 13.1238 24.2378C13.3912 23.1345 13.3544 21.9794 13.0174 20.8954H17.4485V25.1798C16.9706 25.2675 16.5429 25.5307 16.2492 25.9177C15.9555 26.3046 15.8171 26.7874 15.8611 27.2712C15.9052 27.755 16.1285 28.2049 16.4872 28.5324C16.846 28.86 17.3142 29.0416 17.8 29.0416C18.2858 29.0416 18.7541 28.86 19.1128 28.5324C19.4716 28.2049 19.6949 27.755 19.7389 27.2712C19.783 26.7874 19.6446 26.3046 19.3509 25.9177C19.0572 25.5307 18.6294 25.2675 18.1516 25.1798L18.1516 25.1798ZM5.85821 10.0027H12.1504C12.3452 10.0027 12.532 10.0801 12.6697 10.2178C12.8074 10.3555 12.8848 10.5423 12.8848 10.7371C12.8848 10.9318 12.8074 11.1186 12.6697 11.2563C12.532 11.3941 12.3452 11.4714 12.1504 11.4714H5.85821V10.0027ZM3.68635 6.08336H4.33941C4.55567 6.08361 4.763 6.16963 4.91592 6.32256C5.06883 6.47548 5.15485 6.68282 5.15508 6.89908V16.7649C4.63822 16.9264 4.14451 17.1542 3.68635 17.4429V6.08336ZM7.02081 28.3381C5.91789 28.3381 4.83974 28.011 3.92269 27.3982C3.00564 26.7855 2.29089 25.9146 1.86882 24.8956C1.44675 23.8766 1.33632 22.7554 1.55149 21.6737C1.76666 20.5919 2.29776 19.5983 3.07765 18.8184C3.85753 18.0385 4.85117 17.5074 5.9329 17.2922C7.01463 17.0771 8.13587 17.1875 9.15484 17.6096C10.1738 18.0317 11.0447 18.7464 11.6575 19.6634C12.2702 20.5805 12.5973 21.6587 12.5973 22.7616C12.5956 24.24 12.0076 25.6575 10.9621 26.7029C9.9167 27.7483 8.49928 28.3364 7.02081 28.3381V28.3381ZM13.1644 20.1923H12.749C12.6214 19.9079 12.4727 19.6334 12.3043 19.3711H17.4484V20.1923H13.1644ZM17.8 28.3381C17.554 28.3381 17.3136 28.2651 17.109 28.1284C16.9045 27.9918 16.7451 27.7975 16.6509 27.5702C16.5568 27.343 16.5322 27.0929 16.5802 26.8516C16.6281 26.6104 16.7466 26.3887 16.9205 26.2148C17.0945 26.0409 17.3161 25.9224 17.5574 25.8744C17.7986 25.8264 18.0487 25.851 18.276 25.9452C18.5033 26.0393 18.6975 26.1987 18.8342 26.4033C18.9709 26.6078 19.0438 26.8483 19.0438 27.0943C19.0434 27.424 18.9123 27.7402 18.6791 27.9734C18.4459 28.2065 18.1298 28.3377 17.8 28.3381L17.8 28.3381Z" fill="#24AAE3"/>
<path d="M17.7991 26.5764C17.6967 26.5764 17.5966 26.6068 17.5114 26.6637C17.4262 26.7206 17.3599 26.8015 17.3207 26.8961C17.2815 26.9908 17.2712 27.0949 17.2912 27.1954C17.3112 27.2958 17.3605 27.3881 17.4329 27.4605C17.5054 27.5329 17.5976 27.5823 17.6981 27.6023C17.7986 27.6222 17.9027 27.612 17.9973 27.5728C18.092 27.5336 18.1728 27.4672 18.2297 27.382C18.2867 27.2969 18.317 27.1967 18.317 27.0943C18.317 27.0263 18.3036 26.9589 18.2776 26.8961C18.2516 26.8333 18.2134 26.7762 18.1653 26.7281C18.1172 26.68 18.0602 26.6419 17.9973 26.6158C17.9345 26.5898 17.8671 26.5764 17.7991 26.5764Z" fill="#24AAE3"/>
<path d="M10.2527 19.5985C10.2461 19.5908 10.2408 19.5824 10.2336 19.5751C10.229 19.5706 10.2237 19.5675 10.219 19.5632C9.58666 18.9302 8.78077 18.4989 7.90327 18.324C7.02577 18.149 6.1161 18.2383 5.28935 18.5805C4.4626 18.9227 3.75592 19.5024 3.25872 20.2463C2.76152 20.9902 2.49614 21.8649 2.49615 22.7596L2.49609 22.7606V22.761V22.7617C2.49572 23.3559 2.61276 23.9443 2.84047 24.4932C3.06818 25.0421 3.40209 25.5405 3.823 25.9599C3.82715 25.9645 3.83019 25.9697 3.83459 25.9741C3.84175 25.9813 3.84999 25.9865 3.85757 25.9929C4.70173 26.8221 5.83771 27.2867 7.02101 27.2868C8.20431 27.2868 9.34031 26.8222 10.1845 25.9931C10.1922 25.9866 10.2005 25.9813 10.2077 25.9741C10.2122 25.9697 10.2152 25.9644 10.2194 25.9598C11.0565 25.125 11.5325 23.995 11.5448 22.8129C11.5454 22.8048 11.5461 22.7968 11.5461 22.7887C11.5461 22.7855 11.5458 22.7824 11.5457 22.7793C11.5457 22.7734 11.5461 22.7676 11.5461 22.7617C11.5467 21.5784 11.0821 20.4424 10.2527 19.5985ZM4.07103 20.3346L5.64758 21.9112C5.55054 22.0672 5.481 22.2387 5.44195 22.4182L3.21598 22.4113C3.28553 21.6488 3.58353 20.925 4.07103 20.3346ZM3.21615 23.1144L5.44569 23.1213C5.48815 23.3073 5.56337 23.4842 5.66781 23.6438L4.09493 25.2166C3.59412 24.6221 3.28744 23.8885 3.21615 23.1144ZM6.6696 26.5668C5.90751 26.4971 5.18416 26.1991 4.59404 25.7118L6.17058 24.1353C6.32426 24.2308 6.49298 24.2997 6.6696 24.339V26.5668ZM6.6696 21.1844C6.48072 21.2265 6.301 21.3024 6.13909 21.4084L4.56622 19.8355C5.16104 19.3344 5.89512 19.0277 6.66959 18.9566L6.6696 21.1844ZM7.37273 18.9567C8.14719 19.0278 8.88127 19.3345 9.47607 19.8355L7.90324 21.4083C7.74133 21.3024 7.5616 21.2265 7.37272 21.1844L7.37273 18.9567ZM7.37273 26.5668V24.339C7.54936 24.2997 7.71807 24.2308 7.87175 24.1353L9.44828 25.7118C8.85817 26.1991 8.13482 26.497 7.37272 26.5668L7.37273 26.5668ZM9.94734 25.2167L8.37451 23.6438C8.47711 23.487 8.55152 23.3135 8.59437 23.1311L10.8243 23.138C10.7489 23.9036 10.4431 24.6283 9.94735 25.2166L9.94734 25.2167ZM8.60261 22.428C8.56396 22.2449 8.4936 22.07 8.3947 21.9111L9.97121 20.3346C10.4638 20.9313 10.7627 21.6639 10.8281 22.4349L8.60261 22.428Z" fill="#24AAE3"/>
<path d="M14.0479 6.98621H15.0528C15.1461 6.98621 15.2355 6.94917 15.3014 6.88324C15.3674 6.8173 15.4044 6.72788 15.4044 6.63464C15.4044 6.5414 15.3674 6.45198 15.3014 6.38605C15.2355 6.32012 15.1461 6.28308 15.0528 6.28308H14.0479C13.9546 6.28308 13.8652 6.32012 13.7993 6.38605C13.7333 6.45198 13.6963 6.5414 13.6963 6.63464C13.6963 6.72788 13.7333 6.8173 13.7993 6.88324C13.8652 6.94917 13.9546 6.98621 14.0479 6.98621Z" fill="#24AAE3"/>
<path d="M11.8076 6.98621H12.8125C12.9057 6.98621 12.9952 6.94917 13.0611 6.88324C13.127 6.8173 13.1641 6.72788 13.1641 6.63464C13.1641 6.5414 13.127 6.45198 13.0611 6.38605C12.9952 6.32012 12.9057 6.28308 12.8125 6.28308H11.8076C11.7144 6.28308 11.625 6.32012 11.559 6.38605C11.4931 6.45198 11.4561 6.5414 11.4561 6.63464C11.4561 6.72788 11.4931 6.8173 11.559 6.88324C11.625 6.94917 11.7144 6.98621 11.8076 6.98621Z" fill="#24AAE3"/>
<path d="M9.56738 6.98621H10.5723C10.6655 6.98621 10.7549 6.94917 10.8209 6.88324C10.8868 6.8173 10.9238 6.72788 10.9238 6.63464C10.9238 6.5414 10.8868 6.45198 10.8209 6.38605C10.7549 6.32012 10.6655 6.28308 10.5723 6.28308H9.56738C9.47414 6.28308 9.38472 6.32012 9.31879 6.38605C9.25286 6.45198 9.21582 6.5414 9.21582 6.63464C9.21582 6.72788 9.25286 6.8173 9.31879 6.88324C9.38472 6.94917 9.47414 6.98621 9.56738 6.98621Z" fill="#24AAE3"/>
<path d="M7.32715 6.98621H8.33212C8.42536 6.98621 8.51478 6.94917 8.58071 6.88324C8.64664 6.8173 8.68368 6.72788 8.68368 6.63464C8.68368 6.5414 8.64664 6.45198 8.58071 6.38605C8.51478 6.32012 8.42536 6.28308 8.33212 6.28308H7.32715C7.23391 6.28308 7.14449 6.32012 7.07856 6.38605C7.01263 6.45198 6.97559 6.5414 6.97559 6.63464C6.97559 6.72788 7.01263 6.8173 7.07856 6.88324C7.14449 6.94917 7.23391 6.98621 7.32715 6.98621Z" fill="#24AAE3"/>
</svg>
