<svg width="15" height="15" viewBox="0 0 15 15" fill="none" xmlns="http://www.w3.org/2000/svg">
<path d="M13 14.625H9.625C9.4375 14.625 9.3125 14.5 9.3125 14.3125C9.3125 13.3125 8.5 12.5 7.5 12.5C6.5 12.5 5.6875 13.3125 5.6875 14.3125C5.6875 14.5 5.5625 14.625 5.375 14.625H2C1.8125 14.625 1.6875 14.5 1.6875 14.3125C1.6875 11.125 4.3125 8.5 7.5 8.5C10.6875 8.5 13.25 11.0625 13.3125 14.1875V14.25C13.3125 14.4375 13.1875 14.625 13 14.625ZM9.9375 14H12.6875C12.5 11.25 10.25 9.125 7.5 9.125C4.75 9.125 2.5 11.3125 2.3125 14H5.0625C5.1875 12.8125 6.25 11.875 7.5 11.875C8.75 11.8125 9.8125 12.75 9.9375 14Z" fill="white"/>
<path d="M10.5625 7.25C10.5 7.25 10.375 7.25 10.3125 7.1875C8.75 5.625 6.25 5.625 4.6875 7.1875C4.5625 7.3125 4.375 7.3125 4.25 7.1875C4.125 7.0625 4.125 6.875 4.25 6.75C6.0625 4.9375 9 4.9375 10.8125 6.75C10.9375 6.875 10.9375 7.0625 10.8125 7.1875C10.6875 7.25 10.625 7.25 10.5625 7.25Z" fill="white"/>
<path d="M12.3125 5.5C12.25 5.5 12.125 5.5 12.0625 5.4375C10.8125 4.1875 9.1875 3.5 7.4375 3.5C5.6875 3.5 4.0625 4.1875 2.875 5.375C2.75 5.5 2.5625 5.5 2.4375 5.375C2.3125 5.25 2.3125 5.0625 2.4375 4.9375C3.75 3.5625 5.5625 2.875 7.5 2.875C9.375 2.875 11.1875 3.625 12.5625 4.9375C12.6875 5.0625 12.6875 5.25 12.5625 5.375C12.5 5.4375 12.375 5.5 12.3125 5.5Z" fill="white"/>
<path d="M14.0624 3.75C13.9999 3.75 13.8749 3.75 13.8124 3.6875C10.3124 0.1875 4.6249 0.1875 1.1249 3.6875C1.0624 3.75 0.812403 3.75 0.687403 3.6875C0.562403 3.625 0.624903 3.3125 0.687403 3.1875C4.4374 -0.5625 10.4999 -0.5625 14.2499 3.1875C14.3749 3.3125 14.3749 3.5 14.2499 3.625C14.2499 3.6875 14.1249 3.75 14.0624 3.75Z" fill="white"/>
</svg>
