<svg width="30" height="30" viewBox="0 0 30 30" fill="none" xmlns="http://www.w3.org/2000/svg">
<path d="M26 29.25H19.25C18.875 29.25 18.625 29 18.625 28.625C18.625 26.625 17 25 15 25C13 25 11.375 26.625 11.375 28.625C11.375 29 11.125 29.25 10.75 29.25H4C3.625 29.25 3.375 29 3.375 28.625C3.375 22.25 8.625 17 15 17C21.375 17 26.5 22.125 26.625 28.375V28.5C26.625 28.875 26.375 29.25 26 29.25ZM19.875 28H25.375C25 22.5 20.5 18.25 15 18.25C9.5 18.25 5 22.625 4.625 28H10.125C10.375 25.625 12.5 23.75 15 23.75C17.5 23.625 19.625 25.5 19.875 28Z" fill="#24AAE3"/>
<path d="M21.125 14.5C21 14.5 20.75 14.5 20.625 14.375C17.5 11.25 12.5 11.25 9.375 14.375C9.125 14.625 8.75 14.625 8.5 14.375C8.25 14.125 8.25 13.75 8.5 13.5C12.125 9.875 18 9.875 21.625 13.5C21.875 13.75 21.875 14.125 21.625 14.375C21.375 14.5 21.25 14.5 21.125 14.5Z" fill="#24AAE3"/>
<path d="M24.625 11C24.5 11 24.25 11 24.125 10.875C21.625 8.375 18.375 7 14.875 7C11.375 7 8.125 8.375 5.75 10.75C5.5 11 5.125 11 4.875 10.75C4.625 10.5 4.625 10.125 4.875 9.875C7.5 7.125 11.125 5.75 15 5.75C18.75 5.75 22.375 7.25 25.125 9.875C25.375 10.125 25.375 10.5 25.125 10.75C25 10.875 24.75 11 24.625 11Z" fill="#24AAE3"/>
<path d="M28.1248 7.5C27.9998 7.5 27.7498 7.5 27.6248 7.375C20.6248 0.375 9.24981 0.375 2.24981 7.375C2.12481 7.5 1.62481 7.5 1.37481 7.375C1.12481 7.25 1.24981 6.625 1.37481 6.375C8.87481 -1.125 20.9998 -1.125 28.4998 6.375C28.7498 6.625 28.7498 7 28.4998 7.25C28.4998 7.375 28.2498 7.5 28.1248 7.5Z" fill="#24AAE3"/>
</svg>
