<svg width="13" height="13" viewBox="0 0 13 13" fill="none" xmlns="http://www.w3.org/2000/svg">
<path d="M0.218168 6.71779C0.337788 6.71779 0.43487 6.62092 0.43487 6.50108C0.43487 3.15541 3.15687 0.433406 6.50255 0.433406C7.87363 0.433406 9.1849 0.891732 10.2519 1.73362H9.10298C8.98336 1.73362 8.88628 1.83049 8.88628 1.95033C8.88628 2.07016 8.98336 2.16703 9.10298 2.16703H10.8182C10.8325 2.16833 10.8459 2.16854 10.86 2.16703H11.0531V0.216703C11.0531 0.0968662 10.956 0 10.8364 0C10.7168 0 10.6197 0.0968662 10.6197 0.216703V1.47575C9.45903 0.52182 8.01535 0 6.50255 0C2.91785 0 0.00146484 2.91639 0.00146484 6.50108C0.00146484 6.62092 0.0985477 6.71779 0.218168 6.71779Z" fill="white"/>
<path d="M6.50232 1.73361C3.8735 1.73361 1.73486 3.87225 1.73486 6.50107C1.73486 9.12989 3.8735 11.2685 6.50232 11.2685C9.13115 11.2685 11.2698 9.12989 11.2698 6.50107C11.2698 3.87225 9.13115 1.73361 6.50232 1.73361ZM6.50232 10.8351C4.11253 10.8351 2.16827 8.89087 2.16827 6.50107C2.16827 4.11127 4.11253 2.16702 6.50232 2.16702C8.89212 2.16702 10.8364 4.11127 10.8364 6.50107C10.8364 8.89087 8.89212 10.8351 6.50232 10.8351Z" fill="white"/>
<path d="M6.50235 3.25054C6.62197 3.25054 6.71905 3.15367 6.71905 3.03384V2.60043C6.71905 2.48059 6.62197 2.38373 6.50235 2.38373C6.38273 2.38373 6.28564 2.48059 6.28564 2.60043V3.03384C6.28564 3.15367 6.38273 3.25054 6.50235 3.25054Z" fill="white"/>
<path d="M6.50235 9.75162C6.38273 9.75162 6.28564 9.84848 6.28564 9.96832V10.4017C6.28564 10.5216 6.38273 10.6184 6.50235 10.6184C6.62197 10.6184 6.71905 10.5216 6.71905 10.4017V9.96832C6.71905 9.84848 6.62197 9.75162 6.50235 9.75162Z" fill="white"/>
<path d="M9.96963 6.7178H10.403C10.5227 6.7178 10.6197 6.62093 10.6197 6.5011C10.6197 6.38126 10.5227 6.28439 10.403 6.28439H9.96963C9.85001 6.28439 9.75293 6.38126 9.75293 6.5011C9.75293 6.62093 9.85001 6.7178 9.96963 6.7178Z" fill="white"/>
<path d="M3.03536 6.28439H2.60196C2.48234 6.28439 2.38525 6.38126 2.38525 6.5011C2.38525 6.62093 2.48234 6.7178 2.60196 6.7178H3.03536C3.15498 6.7178 3.25207 6.62093 3.25207 6.5011C3.25207 6.38126 3.15498 6.28439 3.03536 6.28439Z" fill="white"/>
<path d="M6.71904 5.44833V4.33404C6.71904 4.21421 6.62196 4.11734 6.50234 4.11734C6.38272 4.11734 6.28564 4.21421 6.28564 4.33404V5.44833C5.91291 5.54519 5.63553 5.88152 5.63553 6.28437C5.63553 6.44473 5.68212 6.59295 5.7584 6.72189L3.9654 8.51489C3.88067 8.59962 3.88067 8.73658 3.9654 8.82131C4.00766 8.86356 4.06314 8.8848 4.11861 8.8848C4.17409 8.8848 4.22956 8.86356 4.27182 8.82131L6.06482 7.02831C6.19376 7.10459 6.34198 7.15118 6.50234 7.15118C6.98039 7.15118 7.36915 6.76241 7.36915 6.28437C7.36915 5.88152 7.09177 5.54519 6.71904 5.44833ZM6.50234 6.71777C6.26332 6.71777 6.06894 6.52339 6.06894 6.28437C6.06894 6.04534 6.26332 5.85096 6.50234 5.85096C6.74136 5.85096 6.93575 6.04534 6.93575 6.28437C6.93575 6.52339 6.74136 6.71777 6.50234 6.71777Z" fill="white"/>
<path d="M2.57763 11.4116C2.50612 11.5067 2.52562 11.6432 2.62314 11.7148C2.65998 11.7429 2.70549 11.7559 2.75099 11.7559C2.81817 11.7559 2.88318 11.7278 2.92652 11.6693C2.99587 11.5741 2.97637 11.4376 2.88102 11.3661C2.78567 11.2946 2.64936 11.3141 2.57763 11.4116Z" fill="white"/>
<path d="M1.56805 10.0268C1.4987 9.93169 1.36218 9.90764 1.26467 9.9772C1.16715 10.0487 1.14548 10.1831 1.21482 10.2804C1.25816 10.3391 1.32317 10.3714 1.39252 10.3714C1.43586 10.3714 1.4792 10.3584 1.51821 10.3304C1.61551 10.2609 1.63739 10.1243 1.56805 10.0268Z" fill="white"/>
<path d="M1.65251 10.4993C1.56366 10.5792 1.55499 10.716 1.63517 10.8046C1.67634 10.8544 1.73702 10.8785 1.7977 10.8785C1.84754 10.8785 1.89955 10.8612 1.94072 10.8243C2.02957 10.7441 2.03824 10.6076 1.95806 10.5188C1.88026 10.4277 1.74374 10.4212 1.65251 10.4993Z" fill="white"/>
<path d="M2.39812 10.9651C2.31144 10.885 2.17275 10.8915 2.09257 10.9784C2.01023 11.067 2.01673 11.2037 2.10558 11.2861C2.14675 11.3229 2.19876 11.3424 2.25077 11.3424C2.30928 11.3424 2.36779 11.3186 2.41113 11.2731C2.49131 11.1842 2.48697 11.0477 2.39812 10.9675C2.39812 10.9651 2.39812 10.9651 2.39812 10.9651Z" fill="white"/>
<path d="M1.2301 9.50026C1.22793 9.50026 1.22793 9.50026 1.22793 9.50026C1.16942 9.39624 1.03723 9.3594 0.933214 9.42008C0.829196 9.47881 0.792357 9.61078 0.853033 9.7148C0.89204 9.78393 0.965719 9.82315 1.04156 9.82315C1.07624 9.82315 1.11524 9.81448 1.14775 9.79498C1.25177 9.73647 1.28861 9.60406 1.2301 9.50026Z" fill="white"/>
<path d="M12.7736 6.96048C12.7779 6.96048 12.7801 6.96048 12.7823 6.96048C12.8993 6.96048 12.9946 6.86708 12.999 6.75245C13.0033 6.63088 12.9101 6.53119 12.7909 6.52708C12.6718 6.52253 12.5699 6.61592 12.5656 6.73511C12.5612 6.8543 12.6542 6.95615 12.7736 6.96048Z" fill="white"/>
<path d="M0.274332 7.36573C0.393519 7.35251 0.4802 7.24633 0.467198 7.12714C0.454196 7.00795 0.348011 6.92127 0.228825 6.93427C0.109638 6.94511 0.022957 7.05346 0.0359592 7.17048C0.0467943 7.28317 0.142144 7.36551 0.250495 7.36551C0.259163 7.36573 0.265664 7.36573 0.274332 7.36573Z" fill="white"/>
<path d="M0.395589 8.00284C0.512608 7.979 0.588454 7.86415 0.56245 7.74713C0.538612 7.63011 0.42376 7.55405 0.30674 7.58005C0.189721 7.60389 0.113875 7.71896 0.139879 7.83598C0.159382 7.93783 0.250398 8.00718 0.350081 8.00718C0.365033 8.00718 0.380419 8.00718 0.395589 8.00284Z" fill="white"/>
<path d="M0.945913 8.93898C0.898238 8.83063 0.770384 8.78079 0.659865 8.82846C0.551514 8.87614 0.501672 9.00399 0.549347 9.11429C0.586186 9.19447 0.664199 9.24453 0.748713 9.24453C0.776885 9.24453 0.807223 9.23803 0.835394 9.22481C0.943529 9.17735 0.993371 9.0495 0.945913 8.93898Z" fill="white"/>
<path d="M0.722562 8.3539C0.687889 8.23905 0.564369 8.17621 0.451683 8.21305C0.336831 8.24989 0.273987 8.37124 0.310827 8.48631C0.341165 8.57732 0.425679 8.63562 0.516694 8.63562C0.538364 8.63562 0.562202 8.63345 0.583872 8.62695C0.696774 8.59011 0.759618 8.46637 0.722562 8.3539Z" fill="white"/>
<path d="M6.38514 12.5666C6.26595 12.5642 6.16627 12.6598 6.1641 12.7788C6.16193 12.9003 6.25728 12.9976 6.37647 13C6.37863 13 6.3808 13 6.3808 13C6.49999 13 6.59534 12.9066 6.5975 12.7876C6.59945 12.6685 6.50432 12.5688 6.38514 12.5666Z" fill="white"/>
<path d="M11.2982 10.2154C11.2246 10.3086 11.2419 10.4453 11.3351 10.5188C11.3762 10.5491 11.4218 10.5643 11.4694 10.5643C11.5323 10.5643 11.5973 10.5361 11.6406 10.4795C11.7143 10.3864 11.697 10.2498 11.6016 10.1764C11.5063 10.1029 11.3719 10.12 11.2982 10.2154Z" fill="white"/>
<path d="M9.93259 11.5026C9.83507 11.5697 9.80907 11.706 9.87841 11.8038C9.91959 11.8644 9.98676 11.897 10.0561 11.897C10.0994 11.897 10.1406 11.8861 10.1796 11.8601C10.2771 11.7929 10.3031 11.6566 10.2338 11.5589C10.1666 11.4592 10.0325 11.4354 9.93259 11.5026Z" fill="white"/>
<path d="M10.4314 11.121C10.3404 11.199 10.3296 11.3355 10.4076 11.4265C10.4509 11.4763 10.5116 11.5026 10.5723 11.5026C10.6221 11.5026 10.672 11.4852 10.7132 11.4506C10.8042 11.3725 10.815 11.236 10.737 11.145C10.6588 11.054 10.5225 11.0432 10.4314 11.121Z" fill="white"/>
<path d="M11.9543 9.63002C11.8524 9.56718 11.7181 9.59969 11.6552 9.69937C11.5924 9.80122 11.6227 9.93558 11.7246 9.99842C11.7614 10.0203 11.8004 10.0309 11.8394 10.0309C11.9109 10.0309 11.9825 9.99625 12.0236 9.92886C12.0867 9.82744 12.0563 9.69287 11.9543 9.63002Z" fill="white"/>
<path d="M10.8886 10.69C10.8041 10.7764 10.8085 10.9129 10.8952 10.9955C10.9363 11.0365 10.9905 11.056 11.0447 11.056C11.101 11.056 11.1595 11.0343 11.2007 10.9888C11.283 10.9021 11.2809 10.7656 11.1942 10.6832C11.1075 10.6009 10.9708 10.6033 10.8886 10.69Z" fill="white"/>
<path d="M12.754 7.17481C12.637 7.15769 12.5265 7.24221 12.5091 7.35923C12.4918 7.47841 12.5742 7.58677 12.6933 7.6041C12.7042 7.60627 12.715 7.60627 12.7237 7.60627C12.8299 7.60627 12.923 7.52847 12.9382 7.42012C12.9558 7.30289 12.8734 7.19215 12.754 7.17481Z" fill="white"/>
<path d="M12.6524 7.81626C12.5353 7.78809 12.4183 7.8596 12.388 7.97445C12.3598 8.09147 12.4313 8.20849 12.5462 8.23883C12.5635 8.24338 12.5808 8.24533 12.5982 8.24533C12.6957 8.24533 12.7845 8.17815 12.8084 8.08064C12.8387 7.96383 12.767 7.84682 12.6524 7.81626Z" fill="white"/>
<path d="M3.40355 11.715C3.29953 11.6545 3.16735 11.6868 3.10667 11.791C3.04383 11.8929 3.0785 12.0273 3.18035 12.0879C3.21502 12.1096 3.25403 12.1183 3.29087 12.1183C3.36454 12.1183 3.43606 12.0814 3.47723 12.0121C3.54007 11.91 3.50562 11.7778 3.40355 11.715Z" fill="white"/>
<path d="M12.4832 8.44489C12.3705 8.40394 12.2448 8.46223 12.2058 8.57491C12.1647 8.68782 12.221 8.81134 12.3337 8.85229C12.3575 8.86096 12.3835 8.86551 12.4074 8.86551C12.4962 8.86551 12.5807 8.81134 12.6111 8.72249C12.6525 8.60937 12.5959 8.48607 12.4832 8.44489Z" fill="white"/>
<path d="M12.2494 9.05169C12.1433 8.9999 12.0111 9.04302 11.9591 9.15137C11.9071 9.25972 11.9526 9.38996 12.0587 9.44175C12.0891 9.45692 12.1216 9.46364 12.1541 9.46364C12.2343 9.46364 12.3123 9.41813 12.3491 9.34207C12.4011 9.2335 12.3578 9.1037 12.2494 9.05169Z" fill="white"/>
<path d="M5.7589 12.5232C5.63972 12.5081 5.53353 12.5924 5.51836 12.7118C5.50319 12.831 5.58771 12.9393 5.70689 12.9521V12.9545C5.71556 12.9545 5.72423 12.9545 5.7329 12.9545C5.84125 12.9545 5.93443 12.8743 5.94743 12.7636C5.9626 12.6446 5.87787 12.5382 5.7589 12.5232Z" fill="white"/>
<path d="M4.539 12.2437C4.42631 12.2045 4.30279 12.2632 4.26379 12.3781C4.22478 12.4907 4.28546 12.6143 4.39814 12.6533C4.42198 12.6598 4.44582 12.6641 4.46965 12.6641C4.5585 12.6641 4.64301 12.6078 4.67335 12.5189C4.71236 12.4041 4.65168 12.2805 4.539 12.2437Z" fill="white"/>
<path d="M5.14173 12.4149C5.02471 12.3889 4.90986 12.4604 4.88169 12.5774C4.85569 12.6945 4.92937 12.8115 5.04422 12.8375C5.06155 12.8418 5.07672 12.8418 5.09406 12.8418C5.19158 12.8418 5.28259 12.7746 5.30426 12.675C5.33222 12.5579 5.25875 12.4409 5.14173 12.4149Z" fill="white"/>
<path d="M3.95828 12.0097C3.84776 11.9577 3.71991 12.0051 3.67007 12.1135C3.62022 12.2218 3.66573 12.3521 3.77408 12.4017C3.80442 12.4149 3.83476 12.4212 3.8651 12.4212C3.94745 12.4212 4.02546 12.3757 4.0623 12.2957C4.11214 12.1874 4.06663 12.0593 3.95828 12.0097Z" fill="white"/>
<path d="M7.63352 12.4626C7.5165 12.4843 7.43849 12.5991 7.46016 12.7161C7.47966 12.8201 7.57284 12.8919 7.67469 12.8919C7.6877 12.8919 7.7007 12.8919 7.7137 12.8895C7.83072 12.8659 7.90873 12.753 7.88706 12.6359C7.86539 12.5168 7.75054 12.4409 7.63352 12.4626Z" fill="white"/>
<path d="M8.24241 12.3152C8.12755 12.3475 8.06254 12.4691 8.09722 12.5837C8.12539 12.6771 8.21207 12.7378 8.30525 12.7378C8.32475 12.7378 8.34642 12.7354 8.3681 12.7291C8.48295 12.6944 8.54796 12.5729 8.51329 12.4582C8.4784 12.3456 8.35726 12.2805 8.24241 12.3152Z" fill="white"/>
<path d="M8.83416 12.1028C8.72365 12.1483 8.67164 12.2762 8.71715 12.3869C8.75182 12.4693 8.832 12.5189 8.91651 12.5189C8.94468 12.5189 8.97285 12.5146 9.00103 12.5039C9.11154 12.4561 9.16355 12.3304 9.11804 12.2198C9.07015 12.1093 8.94468 12.0573 8.83416 12.1028Z" fill="white"/>
<path d="M7.01157 12.5469C6.89238 12.5579 6.80354 12.6617 6.81437 12.7809C6.82304 12.8938 6.91839 12.9803 7.03107 12.9803C7.03541 12.9803 7.04191 12.9803 7.04841 12.9803V12.9781C7.1676 12.9694 7.25644 12.8654 7.24561 12.7462C7.23694 12.6273 7.13097 12.5382 7.01157 12.5469Z" fill="white"/>
<path d="M9.39954 11.832C9.29335 11.8883 9.25435 12.0205 9.31286 12.1247C9.35186 12.1984 9.42554 12.2394 9.50356 12.2394C9.53823 12.2394 9.5729 12.2307 9.60541 12.2112C9.71159 12.1548 9.7506 12.0227 9.69209 11.9186C9.63596 11.8125 9.50356 11.7735 9.39954 11.832Z" fill="white"/>
</svg>
