<svg width="26" height="26" viewBox="0 0 26 26" fill="none" xmlns="http://www.w3.org/2000/svg">
<path fill-rule="evenodd" clip-rule="evenodd" d="M12.9998 22.75C18.3845 22.75 22.7498 18.3847 22.7498 13C22.7498 7.6153 18.3845 3.25001 12.9998 3.25001C7.61513 3.25001 3.24984 7.6153 3.24984 13C3.24984 18.3847 7.61513 22.75 12.9998 22.75ZM12.9998 23.8333C18.9831 23.8333 23.8332 18.9833 23.8332 13C23.8332 7.01676 18.9831 2.16667 12.9998 2.16667C7.01659 2.16667 2.1665 7.01676 2.1665 13C2.1665 18.9833 7.01659 23.8333 12.9998 23.8333Z" fill="#24AAE3"/>
<path d="M6.5 19.2996C6.5 18.74 6.91817 18.2672 7.475 18.2054C11.654 17.7428 14.365 17.7845 18.5347 18.2157C18.743 18.2376 18.9403 18.3196 19.1027 18.4518C19.2651 18.584 19.3854 18.7606 19.4491 18.96C19.5127 19.1595 19.5169 19.3732 19.4611 19.575C19.4053 19.7768 19.292 19.9579 19.1349 20.0964C14.2139 24.3858 11.4015 24.3268 6.84667 20.1007C6.62458 19.8949 6.5 19.6024 6.5 19.3001V19.2996Z" fill="#24AAE3"/>
<path fill-rule="evenodd" clip-rule="evenodd" d="M18.4786 18.7541C14.3419 18.3262 11.6699 18.2861 7.53372 18.7438C7.2553 18.7747 7.04134 19.0125 7.04134 19.3001C7.04134 19.455 7.1058 19.6018 7.21468 19.7037C9.47234 21.7977 11.1829 22.744 12.8551 22.75C14.5331 22.756 16.3358 21.8172 18.7787 19.6885C18.8563 19.6194 18.9122 19.5293 18.9395 19.429C18.9669 19.3288 18.9645 19.2228 18.9327 19.1239C18.9009 19.025 18.8411 18.9374 18.7605 18.8719C18.6799 18.8063 18.582 18.7656 18.4786 18.7547V18.7541ZM7.41509 17.667C11.6379 17.1995 14.3885 17.2418 18.5908 17.6767C18.904 17.7094 19.2009 17.8328 19.4452 18.0316C19.6894 18.2305 19.8704 18.4962 19.9659 18.7963C20.0614 19.0964 20.0674 19.4179 19.983 19.7213C19.8987 20.0248 19.7277 20.297 19.491 20.5048C17.0129 22.665 14.9491 23.8415 12.8518 23.8333C10.7485 23.8257 8.77576 22.6292 6.47855 20.4977C6.31408 20.3445 6.18296 20.1591 6.0934 19.9529C6.00383 19.7468 5.95774 19.5244 5.95801 19.2996C5.95722 18.8957 6.10545 18.5058 6.37432 18.2044C6.64318 17.9031 7.01377 17.7115 7.41509 17.6665V17.667Z" fill="#24AAE3"/>
<path d="M17.3332 10.8333C17.3332 11.9826 16.8766 13.0848 16.064 13.8975C15.2513 14.7101 14.1491 15.1667 12.9998 15.1667C11.8506 15.1667 10.7484 14.7101 9.93571 13.8975C9.12305 13.0848 8.6665 11.9826 8.6665 10.8333C8.6665 9.68406 9.12305 8.58186 9.93571 7.7692C10.7484 6.95655 11.8506 6.5 12.9998 6.5C14.1491 6.5 15.2513 6.95655 16.064 7.7692C16.8766 8.58186 17.3332 9.68406 17.3332 10.8333Z" fill="#24AAE3"/>
<path fill-rule="evenodd" clip-rule="evenodd" d="M12.9998 14.0833C13.8618 14.0833 14.6884 13.7409 15.2979 13.1314C15.9074 12.5219 16.2498 11.6953 16.2498 10.8333C16.2498 9.97138 15.9074 9.14473 15.2979 8.53524C14.6884 7.92574 13.8618 7.58333 12.9998 7.58333C12.1379 7.58333 11.3112 7.92574 10.7017 8.53524C10.0922 9.14473 9.74984 9.97138 9.74984 10.8333C9.74984 11.6953 10.0922 12.5219 10.7017 13.1314C11.3112 13.7409 12.1379 14.0833 12.9998 14.0833ZM12.9998 15.1667C14.1491 15.1667 15.2513 14.7101 16.064 13.8975C16.8766 13.0848 17.3332 11.9826 17.3332 10.8333C17.3332 9.68406 16.8766 8.58186 16.064 7.7692C15.2513 6.95655 14.1491 6.5 12.9998 6.5C11.8506 6.5 10.7484 6.95655 9.93571 7.7692C9.12305 8.58186 8.6665 9.68406 8.6665 10.8333C8.6665 11.9826 9.12305 13.0848 9.93571 13.8975C10.7484 14.7101 11.8506 15.1667 12.9998 15.1667Z" fill="#24AAE3"/>
</svg>
