<svg width="617" height="604" viewBox="0 0 617 604" fill="none" xmlns="http://www.w3.org/2000/svg">
<g clip-path="url(#clip0_66_1659)">
<path d="M258.561 602.462C400.51 602.462 515.583 487.44 515.583 345.552C515.583 203.665 400.51 88.6421 258.561 88.6421C116.612 88.6421 1.53906 203.665 1.53906 345.552C1.53906 487.44 116.612 602.462 258.561 602.462Z" fill="#FAFAFA"/>
<path d="M258.561 604C207.422 604 157.432 588.843 114.912 560.444C72.392 532.045 39.2517 491.681 19.6819 444.456C0.112027 397.231 -5.00833 345.266 4.96828 295.131C14.9449 244.997 39.5704 198.946 75.7308 162.802C111.891 126.657 157.962 102.042 208.118 92.0701C258.274 82.0978 310.262 87.216 357.507 106.777C404.753 126.339 445.135 159.465 473.546 201.966C501.957 244.468 517.121 294.436 517.121 345.552C517.043 414.073 489.777 479.765 441.304 528.216C392.832 576.668 327.111 603.922 258.561 604ZM258.561 90.1802C208.031 90.1802 158.636 105.157 116.622 133.218C74.6078 161.279 41.8619 201.162 22.525 247.826C3.18809 294.489 -1.87139 345.835 7.98649 395.373C17.8444 444.91 42.1768 490.413 77.9067 526.127C113.637 561.842 159.159 586.164 208.718 596.017C258.277 605.871 309.646 600.814 356.33 581.485C403.013 562.157 442.914 529.425 470.987 487.429C499.06 445.434 514.044 396.06 514.044 345.552C513.967 277.847 487.026 212.936 439.13 165.061C391.234 117.186 326.295 90.2567 258.561 90.1802Z" fill="#263238"/>
<path d="M600.164 210.167C600.164 210.167 627.842 360.212 612.221 375.9C596.6 391.588 401.846 432.477 401.846 432.477L384.105 307.729L529.723 301.626L528.609 215.805L600.164 210.167Z" fill="#E0E0E0"/>
<path d="M264.322 601.312C288.057 600.196 311.591 596.423 334.486 590.066C357.381 581.825 376.738 573.455 390.367 564.178L393.556 518.157L401.865 432.478L395.781 296.046L314.606 267.359L209.723 247.181C208.446 246.021 177.143 274.25 175.696 273.92C175.696 273.92 146.4 286.791 138.528 290.014C113.62 300.214 110.201 298.166 101.187 332.913C99.8054 338.243 107.671 357.441 107.865 362.962C109.019 395.722 128.822 479.467 118.482 511.725C115.041 522.451 109.801 536.58 104.545 549.296C104.526 549.296 165.12 602.785 264.322 601.312Z" fill="#E0E0E0"/>
<path d="M315.47 269.614L327.964 286.354L355.987 372.421L292.368 566.518L213.342 326.803L197.789 263.551L209.713 247.18L315.47 269.614Z" fill="#011936"/>
<path d="M453.635 353.534C453.635 353.534 289.029 526.493 257.665 551.243C226.3 575.993 175.961 570.394 166.058 564.618C157.946 559.89 107.089 452.456 96.0355 411.92C88.8037 385.411 84.5754 362.498 86.631 344.928C88.7852 326.588 101.661 307.135 123.938 295.376C156.903 277.978 178.441 340.197 178.441 340.197L226.811 424.48L395.377 269.011L453.635 353.534Z" fill="#E0E0E0"/>
<path d="M96.0356 411.936C96.0356 411.936 96.3433 412.754 96.8234 414.369C97.3035 415.984 98.0543 418.414 99.0237 421.533C101.042 427.805 104.08 437.039 108.413 448.78C112.746 460.522 118.279 474.804 125.277 491.143C128.742 499.33 132.649 507.975 136.999 517.081C141.399 526.136 146.126 535.7 151.924 545.242C154.804 550.158 158.051 554.851 161.636 559.281C165.5 563.758 170.291 567.342 175.678 569.785C187.374 574.648 200.315 575.661 212.625 572.677C225.84 569.666 238.345 564.122 249.449 556.352C250.923 555.429 252.326 554.374 253.726 553.313C255.126 552.252 256.585 551.255 257.924 550.099C260.592 547.767 263.368 545.54 266.002 543.082C271.307 538.213 276.637 533.239 281.93 528.056C324.339 486.782 369.531 439.912 416.934 390.73L453.06 353.002L452.98 354.002C432.798 324.703 413.281 296.397 394.75 269.476L395.891 269.602L221.466 429.795L221.005 430.22L220.697 429.672L184.501 362.762C180.346 355.02 177.146 349.062 174.961 344.992C173.908 342.996 173.114 341.473 172.539 340.406C171.964 339.338 171.757 338.831 171.757 338.831C171.757 338.831 172.08 339.329 172.656 340.341C173.231 341.353 174.093 342.894 175.198 344.863L184.959 362.513L221.58 429.208L220.823 429.085L394.876 268.488L395.519 267.891L396.017 268.614L454.309 353.1L454.675 353.636L454.229 354.103L418.107 391.843C370.691 441.035 325.478 487.867 282.97 529.123C277.665 534.288 272.313 539.274 266.986 544.156C264.343 546.617 261.524 548.874 258.831 551.215C257.474 552.381 255.991 553.368 254.585 554.454C253.178 555.54 251.747 556.58 250.255 557.53C238.991 565.381 226.309 570.971 212.914 573.99C200.328 577 187.111 575.923 175.179 570.914C169.637 568.385 164.713 564.678 160.75 560.053C157.136 555.565 153.866 550.811 150.967 545.832C145.169 536.213 140.47 526.619 136.094 517.533C131.785 508.407 127.91 499.732 124.467 491.506C117.54 475.114 112.096 460.786 107.85 449.005C103.603 437.224 100.658 427.949 98.7375 421.628C97.7713 418.475 97.1496 416.036 96.688 414.412C96.2264 412.788 96.0356 411.936 96.0356 411.936Z" fill="#263238"/>
<path d="M202.355 490.971C202.169 490.128 202.12 489.261 202.211 488.403C202.211 486.754 202.34 484.373 202.62 481.435C204.165 466.089 208.64 451.18 215.804 437.519C217.188 434.917 218.389 432.856 219.299 431.478C220.21 430.1 220.74 429.361 220.838 429.417C219.653 432.357 218.313 435.232 216.822 438.03C210.3 451.807 205.893 466.489 203.75 481.58C203.453 484.733 202.987 487.868 202.355 490.971Z" fill="#263238"/>
<path d="M177.823 272.915C177.996 273.51 178.099 274.123 178.13 274.742C178.29 276.117 178.49 277.858 178.746 280.005C179.294 284.57 180.048 291.18 181.254 299.31C184.378 320.485 188.955 341.419 194.954 361.966C196.493 367.346 198.176 372.563 199.823 377.613L199.235 377.091L214.517 380.25L215.44 380.437L215.071 381.28C212.58 386.908 208.057 391.39 202.405 393.83L202.712 392.886C208.646 403.624 213.603 412.573 217.176 419.072C218.803 422.111 220.118 424.563 221.121 426.427C221.626 427.274 222.052 428.166 222.392 429.091C221.777 428.322 221.233 427.498 220.767 426.63C219.684 424.813 218.262 422.422 216.502 419.457L201.531 393.55L201.161 392.907L201.848 392.6C207.137 390.239 211.352 385.985 213.662 380.674L214.197 381.705L198.9 378.629L198.453 378.539L198.309 378.106C196.641 373.042 194.954 367.807 193.385 362.418C187.347 341.806 182.905 320.76 180.1 299.467C179.035 291.294 178.453 284.653 178.093 280.063C177.967 277.91 177.866 276.151 177.786 274.766C177.726 274.15 177.738 273.528 177.823 272.915Z" fill="#263238"/>
<path d="M292.332 597.19C291.469 592.125 291.206 586.976 291.55 581.849C291.365 576.727 291.639 571.598 292.369 566.525C293.234 571.59 293.497 576.74 293.153 581.868C293.338 586.989 293.063 592.117 292.332 597.19Z" fill="#263238"/>
<path d="M390.361 563.163C389.921 563.12 393.002 528.096 397.236 484.942C401.471 441.789 405.268 406.83 405.708 406.873C406.148 406.916 403.071 441.939 398.833 485.099C394.596 528.259 390.801 563.206 390.361 563.163Z" fill="#263238"/>
<path d="M508.185 133.084C509.501 129.385 511.311 125.88 513.567 122.666C515.379 119.178 517.657 115.953 520.337 113.078C519.023 116.778 517.212 120.283 514.955 123.496C513.143 126.984 510.866 130.21 508.185 133.084Z" fill="#263238"/>
<path d="M497.352 117.624C499.836 116.241 502.741 115.816 505.516 116.431C508.266 117.05 510.929 118.002 513.447 119.267C514.476 122.15 514.675 125.264 514.022 128.254C513.37 131.245 511.891 133.993 509.754 136.185C507.352 133.799 504.354 132.099 501.073 131.264C499.44 130.837 497.936 130.02 496.69 128.884C495.444 127.747 494.492 126.325 493.918 124.739C493.717 123.346 493.937 121.926 494.549 120.658C495.161 119.391 496.137 118.335 497.352 117.624Z" fill="#455A64"/>
<path d="M523.605 94.6434L510.957 304.509H504.889L513.813 94.1451C513.862 92.8786 514.4 91.6803 515.314 90.8017C516.228 89.9231 517.447 89.4325 518.715 89.4326C519.385 89.433 520.048 89.5704 520.662 89.8366C521.277 90.1028 521.83 90.4921 522.288 90.9804C522.746 91.4686 523.1 92.0456 523.326 92.6756C523.553 93.3056 523.648 93.9753 523.605 94.6434Z" fill="#E0E0E0"/>
<path d="M523.605 94.6434C523.562 94.6434 523.605 94.2497 523.461 93.5207C523.245 92.4403 522.67 91.4647 521.829 90.7522C521.156 90.1876 520.34 89.8204 519.471 89.6911C518.602 89.5619 517.714 89.6758 516.906 90.0201C515.888 90.4628 515.06 91.252 514.57 92.2472C514.118 93.4478 513.935 94.7332 514.035 96.0122C513.616 107.292 513.016 123.454 512.281 143.383C510.64 183.455 508.381 238.666 505.889 299.645C505.818 301.288 505.75 302.924 505.683 304.533L504.883 303.7H510.948L510.151 304.45C513.77 246.006 517.017 193.575 519.365 155.656C520.596 136.813 521.611 121.577 522.31 110.953C522.685 105.763 522.981 101.703 523.187 98.8453C523.297 97.5287 523.387 96.489 523.454 95.7016C523.469 95.3422 523.516 94.9849 523.596 94.6342C523.638 94.9916 523.643 95.3524 523.611 95.7108C523.584 96.5013 523.547 97.5564 523.501 98.8637C523.362 101.728 523.165 105.794 522.916 110.993C522.334 121.623 521.5 136.868 520.469 155.724C518.248 193.649 515.173 246.083 511.748 304.546L511.702 305.299H504.045L504.079 304.466C504.147 302.928 504.218 301.251 504.288 299.578C506.966 238.605 509.388 183.405 511.148 143.337C512.099 123.414 512.871 107.261 513.41 95.9846C513.333 94.6186 513.561 93.2527 514.078 91.9857C514.644 90.8911 515.583 90.0339 516.724 89.568C517.607 89.2117 518.572 89.1093 519.51 89.2724C520.448 89.4354 521.322 89.8575 522.033 90.4908C522.896 91.2636 523.456 92.3178 523.614 93.4653C523.682 93.8554 523.679 94.2544 523.605 94.6434Z" fill="#263238"/>
<path d="M588.026 174.51L593.51 210.924L532.606 215.808L532.031 183.621" fill="#D38D6E"/>
<path d="M507.239 135.115L509.849 130.344L519.752 114.219C519.752 114.219 527.575 96.7166 533.874 98.2239C533.874 98.2239 572.787 107.32 573.729 109.516C574.671 111.712 578.748 120.808 578.748 120.808C578.748 120.808 593.184 141.51 593.498 145.902C593.812 150.295 588.79 173.817 588.79 173.817L589.731 187.619C589.731 187.619 582.201 203.922 568.707 205.5C555.212 207.078 529.723 204.101 529.723 204.101L530.646 188.025C525.14 182.842 523.159 180.569 522.266 177.896C520.383 172.249 522.266 149.978 522.266 149.978L521.429 143.079C521.429 143.079 517.872 150.292 511.911 148.099C505.95 145.905 504.1 141.076 507.239 135.115Z" fill="#455A64"/>
<path d="M540.084 151.242C540.149 151.242 539.653 152.301 537.875 153.036C536.789 153.45 535.613 153.574 534.465 153.396C532.886 153.177 531.456 152.35 530.48 151.092C529.394 149.523 528.901 147.619 529.089 145.721C529.273 143.674 529.673 141.652 530.283 139.689C531.421 135.548 532.652 131.076 533.942 126.382C534.56 124.011 535.472 121.727 536.659 119.584C537.852 117.576 539.472 115.855 541.404 114.542C544.651 112.42 548.377 111.143 552.243 110.826C555.443 110.399 558.034 110.211 559.832 110.091C560.762 109.954 561.707 109.961 562.635 110.113C562.663 110.353 558.715 110.848 552.421 111.958C548.783 112.405 545.303 113.708 542.266 115.76C540.538 116.977 539.092 118.551 538.025 120.374C536.924 122.418 536.073 124.587 535.493 126.834C534.163 131.51 532.892 135.967 531.72 140.092C530.473 144.06 529.646 147.963 531.412 150.44C532.137 151.363 533.122 152.049 534.241 152.408C535.359 152.766 536.56 152.781 537.687 152.451C538.53 152.142 539.334 151.736 540.084 151.242Z" fill="#263238"/>
<path d="M542.66 110.113C540.027 116.192 536.797 121.994 533.015 127.434C529.678 133.156 525.778 138.532 521.374 143.481C524.452 137.636 527.887 131.986 531.661 126.563C534.985 120.858 538.658 115.364 542.66 110.113Z" fill="#263238"/>
<path d="M565.19 147.041C564.776 148.18 564.221 149.263 563.537 150.264C562.361 152.276 560.537 155.118 558.136 158.517C556.905 160.224 555.65 162.045 554.135 164.054C552.38 166.204 549.992 167.747 547.31 168.465C545.789 168.831 544.193 168.744 542.722 168.213C541.153 167.599 539.889 166.392 539.204 164.854C538.055 161.735 538.18 158.29 539.552 155.263C541.444 149.534 544.105 144.088 547.461 139.074C550.229 134.97 553.698 131.385 557.708 128.483C560.404 126.529 563.388 125.006 566.553 123.97C567.688 123.521 568.893 123.27 570.113 123.229C565.92 124.689 561.967 126.762 558.382 129.381C554.588 132.322 551.31 135.875 548.682 139.892C545.476 144.838 542.916 150.174 541.066 155.77C539.836 158.411 539.679 161.426 540.626 164.18C541.178 165.331 542.121 166.247 543.287 166.766C544.453 167.284 545.766 167.371 546.99 167.01C549.373 166.391 551.509 165.059 553.114 163.193L557.225 157.85C559.736 154.549 561.687 151.827 563.017 149.929C563.638 148.893 564.367 147.925 565.19 147.041Z" fill="#263238"/>
<path d="M563.226 140.809C562.774 140.747 562.731 138.692 561.429 136.69C560.198 134.647 558.351 133.715 558.499 133.282C558.542 132.839 561.183 133.263 562.786 135.838C564.389 138.412 563.644 140.962 563.226 140.809Z" fill="#263238"/>
<path d="M581.357 138.412C581.401 138.64 577.194 139.375 570.39 140.873C569.971 140.975 569.537 141.085 569.134 141.211C569.054 141.222 568.977 141.249 568.909 141.293C568.841 141.337 568.783 141.395 568.74 141.464C568.603 141.604 568.48 141.757 568.374 141.922C567.836 142.651 567.306 143.506 566.768 144.383C565.697 146.139 564.583 148.059 563.423 150.098L555.942 163.571L555.908 163.63L555.871 163.676C555.362 164.335 555.008 165.099 554.833 165.913C554.658 166.727 554.668 167.569 554.861 168.379C555.054 169.188 555.426 169.944 555.95 170.592C556.473 171.239 557.135 171.761 557.887 172.119C559.229 172.736 560.75 172.846 562.167 172.427C564.953 171.467 567.343 169.615 568.968 167.158L577.972 155.1L578.123 154.9H578.357C581.961 154.584 585.546 154.079 589.097 153.386C588.258 153.882 587.343 154.237 586.389 154.438C583.792 155.197 581.126 155.698 578.431 155.933L578.813 155.721C576.48 159.077 573.581 163.279 570.119 168.053C568.335 170.808 565.676 172.885 562.57 173.95C560.788 174.476 558.875 174.337 557.188 173.559C556.222 173.099 555.371 172.428 554.699 171.597C554.026 170.765 553.549 169.793 553.302 168.752C553.056 167.711 553.045 166.628 553.273 165.583C553.5 164.538 553.958 163.557 554.615 162.713L554.548 162.817C557.225 157.973 559.801 153.448 562.207 149.397C563.41 147.373 564.574 145.472 565.712 143.718C566.288 142.842 566.832 142.008 567.463 141.214C567.676 140.907 568.309 140.19 568.805 140.162C569.282 140.033 569.728 139.941 570.162 139.855C573.636 139.2 576.421 138.849 578.351 138.624C579.34 138.423 580.35 138.351 581.357 138.412Z" fill="#263238"/>
<path d="M252.704 34.1839C241.761 19.542 254.099 5.94287 263.429 2.94066C270.756 0.584424 278.616 -1.79027 285.334 1.96249C289.454 4.26336 292.956 8.02534 297.616 8.77897C303.222 9.70178 308.386 5.97363 313.766 4.13724C318.725 2.54433 324.05 2.48775 329.042 3.97492C334.033 5.46209 338.458 8.42348 341.736 12.4702C344.198 15.6416 346.072 19.5451 349.608 21.4676C355.11 24.4513 361.917 21.3199 368.13 22.1412C374.71 23.0148 379.874 28.2441 383.474 33.8302C387.075 39.4162 389.709 45.6237 394.125 50.5914C396.944 53.7505 400.541 56.4913 401.886 60.5024C403.855 66.3869 400.347 73.2987 403.074 78.8755C405.228 83.2896 410.558 85.2675 413.294 89.3494C417.251 95.2493 414.525 103.376 410.287 109.085C406.05 114.794 400.394 119.639 397.852 126.271C394.116 136.019 398.043 147.133 395.821 157.339C394.173 163.821 390.191 169.469 384.637 173.199C379.083 176.929 372.348 178.48 365.721 177.555C367.613 185.398 369.491 193.719 367.029 201.403C364.567 209.087 355.987 215.408 348.488 212.428" fill="#263238"/>
<path d="M210.714 270.057L202.386 81.6133C202.292 77.2566 203.835 73.0229 206.712 69.7487C209.589 66.4745 213.59 64.3979 217.924 63.9292L310.245 40.3883C339.822 37.1923 359.575 73.5633 361.511 103.238C363.665 136.204 364.989 176.54 361.136 201.148C353.387 250.635 315.467 257.015 315.467 257.015C315.452 256.762 315.806 249.967 315.178 294.078L299.65 347.232L210.714 270.057Z" fill="#D38D6E"/>
<path d="M351.86 136.982C351.879 138.636 351.251 140.232 350.11 141.43C348.969 142.628 347.405 143.333 345.752 143.395C344.944 143.461 344.132 143.365 343.363 143.112C342.593 142.859 341.882 142.455 341.271 141.923C340.66 141.391 340.162 140.743 339.806 140.016C339.45 139.289 339.243 138.498 339.197 137.689C339.176 136.036 339.802 134.44 340.942 133.242C342.081 132.043 343.643 131.337 345.296 131.273C346.104 131.207 346.917 131.303 347.688 131.555C348.458 131.808 349.17 132.213 349.782 132.745C350.393 133.277 350.893 133.926 351.249 134.653C351.606 135.381 351.814 136.173 351.86 136.982Z" fill="#263238"/>
<path d="M354.781 122.355C354.233 123.358 348.666 121.171 342.074 122.971C335.467 124.665 331.54 129.356 330.605 128.744C330.159 128.48 330.543 126.831 332.239 124.73C334.563 121.983 337.68 120.023 341.163 119.119C344.59 118.185 348.226 118.365 351.543 119.633C353.981 120.636 355.042 121.894 354.781 122.355Z" fill="#263238"/>
<path d="M285.82 136.982C285.84 138.635 285.212 140.231 284.072 141.429C282.931 142.627 281.368 143.333 279.714 143.395C278.907 143.461 278.095 143.365 277.325 143.112C276.556 142.859 275.845 142.455 275.234 141.923C274.623 141.391 274.125 140.743 273.769 140.016C273.412 139.289 273.205 138.498 273.16 137.689C273.14 136.036 273.766 134.441 274.905 133.243C276.044 132.044 277.606 131.337 279.259 131.273C280.067 131.206 280.88 131.302 281.651 131.555C282.421 131.807 283.133 132.211 283.744 132.744C284.356 133.276 284.855 133.925 285.211 134.653C285.567 135.381 285.775 136.173 285.82 136.982Z" fill="#263238"/>
<path d="M286.725 128.618C285.758 129.233 281.939 124.619 275.311 123.001C268.71 121.285 263.001 123.487 262.478 122.5C262.217 122.054 263.346 120.796 265.863 119.777C269.224 118.499 272.898 118.292 276.382 119.184C279.833 120.025 282.926 121.943 285.214 124.659C286.842 126.723 287.177 128.35 286.725 128.618Z" fill="#263238"/>
<path d="M310.572 176.223C314.166 175.088 317.887 174.408 321.65 174.196C323.395 174.011 325.035 173.663 325.343 172.473C325.483 170.672 325.073 168.871 324.167 167.308L318.979 154.044C311.775 135.161 306.556 119.63 307.319 119.347C308.082 119.064 314.541 134.139 321.745 153.026C323.477 157.683 325.134 162.13 326.715 166.367C327.817 168.468 328.144 170.89 327.639 173.208C327.387 173.823 326.998 174.373 326.503 174.816C326.007 175.259 325.417 175.583 324.777 175.764C323.81 176.027 322.815 176.167 321.813 176.183C318.083 176.671 314.305 176.685 310.572 176.223Z" fill="#263238"/>
<path d="M315.47 256.999C292.166 257.404 269.207 251.334 249.15 239.466C249.15 239.466 265.946 274.342 315.47 269.611V256.999Z" fill="#B26746"/>
<path d="M309.891 191.646C308.516 189.43 306.65 187.56 304.436 186.18C302.223 184.801 299.722 183.948 297.126 183.688C295.571 183.598 294.022 183.951 292.66 184.707C291.298 185.463 290.178 186.59 289.433 187.958C288.655 189.682 288.323 191.573 288.466 193.459C288.609 195.345 289.223 197.164 290.251 198.752C291.3 200.421 292.82 201.742 294.619 202.548C296.418 203.354 298.416 203.608 300.361 203.28C303.679 202.282 306.651 200.373 308.937 197.77C309.709 197.132 310.316 196.318 310.707 195.396C310.9 194.836 310.96 194.238 310.882 193.651C310.804 193.063 310.59 192.502 310.257 192.012" fill="#B26746"/>
<path d="M290.482 180.987C291.593 180.923 291.624 188.333 297.982 193.578C304.339 198.822 312.23 197.992 312.288 199.028C312.393 199.493 310.531 200.471 307.198 200.566C302.855 200.636 298.626 199.174 295.255 196.435C292.022 193.802 289.938 190.017 289.442 185.878C289.153 182.784 289.977 180.947 290.482 180.987Z" fill="#263238"/>
<path d="M288.051 112.217C287.128 113.958 280.496 112.112 272.427 111.909C264.362 111.558 257.631 112.955 256.819 111.155C256.462 110.3 257.825 108.731 260.669 107.326C264.436 105.645 268.536 104.843 272.66 104.982C276.783 105.12 280.82 106.195 284.466 108.125C287.208 109.731 288.464 111.386 288.051 112.217Z" fill="#263238"/>
<path d="M354.171 105.606C352.971 107.16 348.266 105.56 342.607 105.499C336.95 105.237 332.159 106.563 331.051 104.942C330.568 104.158 331.319 102.601 333.408 101.131C336.217 99.3655 339.487 98.4737 342.803 98.5685C346.119 98.6632 349.333 99.7402 352.036 101.663C354.039 103.256 354.698 104.853 354.171 105.606Z" fill="#263238"/>
<path d="M245.088 36.6723C245.068 41.6435 246.143 46.5581 248.239 51.0666C250.334 55.5751 253.398 59.5666 257.212 62.7574C261.026 65.9481 265.496 68.2596 270.305 69.5276C275.114 70.7955 280.143 70.9887 285.035 70.0934C292.596 68.7092 300.884 64.8918 307.429 68.9183C314.313 73.151 314.596 83.5264 320.702 88.8233C329.426 96.3904 343.299 89.2878 354.374 92.573C362.93 95.1077 368.272 103.281 373.953 110.156C379.634 117.031 388.148 123.567 396.701 121.029C396.453 113.321 395.318 105.666 393.315 98.2175C391.269 90.714 386.691 84.1481 380.357 79.6322C376.606 77.6978 372.955 75.5746 369.42 73.2709C362.317 67.5403 360.674 57.5832 356.292 49.5855C353.409 44.4398 349.341 40.0551 344.424 36.7951C339.507 33.5351 333.884 31.4937 328.02 30.8402C318.283 29.8435 308.251 32.7658 298.76 30.3726C291.747 28.607 285.62 24.0544 278.511 22.7041C264.663 20.0741 251.803 30.0035 241.771 39.8868" fill="#263238"/>
<path d="M219.023 143.863C217.548 143.466 211.637 152.19 221.121 154.321C237.739 158.083 239.943 125.622 236.231 116.338C242.507 111.217 248.113 105.326 252.917 98.8051C257.505 92.0225 261.533 73.5294 260.57 65.2056C266.562 65.5563 292.092 57.128 289.368 56.3497C283.164 54.5749 270.467 50.5576 267.14 45.1807C259.912 33.4918 247.168 25.5187 234.148 26.2293C227.409 26.7573 221.022 29.4518 215.943 33.9097C210.863 38.3677 207.364 44.3495 205.968 50.9605C197.876 51.2477 190.012 53.7115 183.204 58.0922C176.395 62.4729 170.895 68.6083 167.283 75.8518C163.566 83.4444 161.751 91.8265 161.995 100.276C162.239 108.725 164.534 116.989 168.683 124.355C170.886 128.114 173.678 131.869 173.739 136.311C173.816 141.817 187.824 195.574 205.642 199.705" fill="#263238"/>
<path d="M219.721 157.462C219.636 155.024 218.934 152.647 217.68 150.553C216.426 148.46 214.662 146.719 212.552 145.492C210.442 144.266 208.055 143.595 205.615 143.541C203.174 143.487 200.76 144.053 198.598 145.185C193.585 148.08 189.754 153.9 190.215 165.075C191.446 194.876 221.118 187.496 221.137 186.641C221.146 186.109 220.337 169.788 219.721 157.462Z" fill="#D38D6E"/>
<path d="M211.563 175.74C211.428 175.651 211.058 176.124 210.197 176.564C208.984 177.141 207.594 177.227 206.319 176.804C203.122 175.777 200.263 170.889 199.9 165.524C199.719 162.973 200.11 160.413 201.045 158.031C201.286 157.089 201.753 156.219 202.405 155.497C203.057 154.775 203.874 154.221 204.787 153.885C205.377 153.702 206.013 153.733 206.583 153.97C207.154 154.207 207.623 154.636 207.91 155.183C208.347 156.001 208.181 156.601 208.341 156.647C208.427 156.718 208.957 156.121 208.67 154.9C208.474 154.169 208.033 153.527 207.421 153.082C206.574 152.495 205.531 152.265 204.516 152.442C203.302 152.735 202.184 153.333 201.269 154.181C200.353 155.029 199.67 156.097 199.284 157.284C198.122 159.916 197.622 162.793 197.826 165.663C198.266 171.661 201.571 177.155 205.932 178.222C206.742 178.421 207.586 178.435 208.402 178.265C209.218 178.095 209.986 177.744 210.649 177.238C211.542 176.447 211.668 175.774 211.563 175.74Z" fill="#B26746"/>
<path d="M351.174 176.484C350.473 176.484 349.771 176.453 349.069 176.392C346.154 176.199 343.311 175.397 340.724 174.04C338.137 172.682 335.863 170.797 334.049 168.508C331.617 164.772 329.556 160.807 327.894 156.671C326.168 152.538 324.156 148.53 321.875 144.675C320.425 142.392 319.437 142.149 318.634 142.245C318.07 142.3 317.534 142.522 317.096 142.882C316.658 143.241 316.336 143.723 316.172 144.266C315.348 146.994 307.556 171.027 288.297 174.005C258.069 178.696 231.822 165.017 230.72 164.432L230.388 164.192L211.837 146.699L209.991 103.444L343.521 102.075C359.976 101.269 370.217 103.274 373.987 108.033C380.025 115.671 383.474 155.533 370.023 168.369C365.03 173.414 358.272 176.323 351.174 176.484ZM318.887 139.166C320.073 139.277 321.21 139.693 322.189 140.371C323.168 141.05 323.955 141.97 324.475 143.041C326.837 147.016 328.918 151.151 330.704 155.416C332.292 159.351 334.25 163.127 336.551 166.693C338.115 168.619 340.059 170.203 342.263 171.344C344.467 172.486 346.882 173.161 349.359 173.328C352.783 173.53 356.212 172.995 359.412 171.758C362.612 170.521 365.508 168.611 367.906 166.158C379.763 154.841 376.923 116.707 371.58 109.953C369.829 107.738 363.887 104.182 343.687 105.157L342.878 105.194L213.216 106.498L214.871 145.333L232.348 161.817C234.699 163.008 259.903 175.306 287.836 170.978C305.244 168.28 312.47 145.927 313.237 143.386C313.577 142.261 314.243 141.263 315.151 140.517C316.06 139.771 317.169 139.312 318.339 139.196C318.521 139.176 318.704 139.166 318.887 139.166Z" fill="#FAFAFA"/>
<path d="M189.403 161.559L188.649 155.201C187.869 148.747 187.473 142.252 187.464 135.751C187.735 128.218 208.147 106.381 210.477 103.917L212.711 106.028C204.233 115.016 190.714 131.057 190.554 135.865C190.51 140.522 190.726 145.178 191.2 149.812C193.234 146.551 196.252 144.02 199.817 142.583C202.209 141.832 204.741 141.631 207.221 141.997C209.702 142.362 212.068 143.284 214.142 144.693L212.603 147.354C210.916 146.183 208.987 145.406 206.959 145.08C204.93 144.753 202.855 144.886 200.885 145.468C194.598 147.732 191.68 155.472 191.653 155.548L189.403 161.559Z" fill="#FAFAFA"/>
<path d="M323.269 129.839C328.999 134.414 334.467 139.309 339.646 144.499C345.191 149.298 350.462 154.404 355.433 159.793C353.538 158.747 351.787 157.46 350.223 155.964C347.146 153.432 343.001 149.812 338.554 145.671C334.107 141.531 330.205 137.649 327.457 134.761C325.856 133.306 324.448 131.652 323.269 129.839Z" fill="#FAFAFA"/>
<path d="M341.16 152.946C344.216 154.19 346.994 156.031 349.33 158.36C352.006 160.294 354.268 162.74 355.987 165.558C353.183 163.894 350.599 161.886 348.293 159.581C345.649 157.674 343.253 155.445 341.16 152.946Z" fill="#FAFAFA"/>
<path d="M367.813 155.847C369.676 149.026 370.99 142.068 371.743 135.038C371.943 127.969 371.578 120.897 370.651 113.887C371.586 115.787 372.194 117.832 372.448 119.934C374.333 129.998 373.631 140.376 370.408 150.095C369.875 152.145 368.998 154.09 367.813 155.847Z" fill="#FAFAFA"/>
<path d="M267.337 164.94C267.417 164.669 270.353 165.715 275.255 166.05C281.63 166.542 288.018 165.286 293.731 162.416C299.444 159.547 304.265 155.174 307.676 149.769C310.334 145.638 311.245 142.66 311.51 142.755C311.515 143.496 311.365 144.229 311.07 144.909C310.455 146.806 309.642 148.634 308.645 150.362C305.352 156.164 300.412 160.859 294.45 163.853C288.487 166.848 281.77 168.007 275.148 167.185C273.165 166.953 271.213 166.513 269.322 165.872C267.999 165.395 267.307 165.035 267.337 164.94Z" fill="#FAFAFA"/>
<path d="M236.794 125.763C241.716 128.639 246.25 132.13 250.289 136.151C254.681 139.783 258.592 143.96 261.927 148.581C257.467 145.092 253.22 141.336 249.212 137.335C244.842 133.733 240.695 129.868 236.794 125.763Z" fill="#FAFAFA"/>
<path d="M226.812 123.447C232.454 127.305 237.788 131.596 242.765 136.28C248.089 140.566 253.071 145.259 257.665 150.319C252.021 146.463 246.688 142.172 241.712 137.486C236.386 133.203 231.404 128.509 226.812 123.447Z" fill="#FAFAFA"/>
<path d="M501.793 372.965C498.706 372.812 495.806 371.44 493.732 369.151C491.657 366.861 490.577 363.842 490.73 360.757L497.127 231.339L520.404 232.489L514.007 361.907C513.931 363.435 513.556 364.933 512.901 366.316C512.246 367.698 511.326 368.938 510.191 369.965C509.057 370.992 507.732 371.786 506.29 372.3C504.849 372.815 503.321 373.041 501.793 372.965Z" fill="#E0E0E0"/>
<path d="M501.792 372.965C501.792 372.873 502.829 372.987 504.704 372.575C507.442 371.944 509.858 370.342 511.505 368.065C512.674 366.436 513.388 364.525 513.576 362.528C513.729 360.323 513.782 357.841 513.905 355.217C514.133 349.932 514.391 343.934 514.674 337.302C515.93 310.596 517.666 273.72 519.598 232.446L520.358 233.286L508.726 232.714L497.081 232.136L497.918 231.376C495.764 272.65 493.868 309.507 492.483 336.213C492.114 342.839 491.779 348.825 491.483 354.116C491.348 356.736 491.157 359.213 491.092 361.421C491.083 363.426 491.607 365.397 492.61 367.133C494.022 369.56 496.268 371.391 498.931 372.286C500.755 372.882 501.799 372.87 501.786 372.962C500.789 373.01 499.791 372.88 498.838 372.581C496.026 371.77 493.62 369.935 492.096 367.438C490.988 365.626 490.387 363.55 490.357 361.427C490.382 359.133 490.529 356.715 490.622 354.072C490.849 348.788 491.108 342.79 491.391 336.158C492.646 309.458 494.382 272.582 496.315 231.299L496.352 230.499L497.152 230.539L508.797 231.111L520.426 231.69L521.226 231.73L521.186 232.526C519.032 273.791 517.136 310.657 515.751 337.354C515.382 343.983 515.047 349.966 514.751 355.26C514.585 357.899 514.493 360.32 514.29 362.605C514.05 364.716 513.249 366.723 511.969 368.419C510.205 370.755 507.629 372.344 504.75 372.873C503.777 373.076 502.776 373.107 501.792 372.965Z" fill="#263238"/>
<path d="M502.054 368.985C499.791 368.873 497.665 367.867 496.144 366.188C494.623 364.51 493.831 362.296 493.942 360.034L497.152 295.105C497.207 293.985 497.482 292.887 497.962 291.873C498.442 290.859 499.117 289.95 499.949 289.197C500.78 288.444 501.752 287.862 502.809 287.484C503.866 287.107 504.986 286.941 506.107 286.997C508.37 287.108 510.497 288.114 512.019 289.792C513.541 291.471 514.333 293.685 514.222 295.948L511.012 360.877C510.9 363.139 509.893 365.265 508.213 366.785C506.533 368.306 504.318 369.097 502.054 368.985Z" fill="#011936"/>
<path d="M481.048 236.313C482.854 237.669 540.65 260.687 540.65 260.687C540.65 260.687 551.477 267.455 548.999 276.935C548.999 276.935 555.554 285.511 553.308 293.186C554.45 294.975 554.878 297.128 554.507 299.217C554.136 301.307 552.993 303.182 551.304 304.468H549.012C548.784 306.26 548.098 307.963 547.02 309.412C545.941 310.862 544.508 312.009 542.857 312.743C539.952 314.066 517.85 309.433 517.85 309.433L489.175 308.532C489.175 308.532 457.115 318.461 444.021 323.426L439.796 333.789L401.846 278.421C401.846 278.421 469.76 237.663 473.822 236.307C476.162 235.489 478.71 235.492 481.048 236.313Z" fill="#455A64"/>
<path d="M549.941 280.764C547.056 279.249 544.253 277.58 541.546 275.766C528.121 267.657 513.596 261.526 498.42 257.562C495.231 256.886 492.081 256.042 488.981 255.033C489.864 254.95 490.754 255.007 491.619 255.203C493.302 255.403 495.721 255.818 498.697 256.461C514.188 259.858 528.92 266.077 542.158 274.806C544.682 276.489 546.67 277.928 547.987 278.996C549.304 280.063 550.006 280.675 549.941 280.764Z" fill="#263238"/>
<path d="M553.775 292.106C551.052 291.527 548.389 290.696 545.82 289.624L526.928 282.881L508.033 276.114C505.367 275.313 502.781 274.267 500.309 272.988C503.066 273.399 505.774 274.085 508.393 275.037C513.317 276.517 520.087 278.728 527.473 281.361C534.859 283.994 541.484 286.591 546.245 288.559C548.868 289.484 551.392 290.672 553.775 292.106Z" fill="#263238"/>
<path d="M550.701 303.361C548.278 302.804 545.909 302.031 543.623 301.051C539.3 299.513 533.293 297.52 526.547 295.702C519.801 293.884 513.6 292.604 509.092 291.758C506.62 291.458 504.181 290.937 501.802 290.202C504.299 290.03 506.808 290.177 509.268 290.642C521.225 292.192 532.921 295.338 544.042 299.996C546.396 300.83 548.634 301.961 550.701 303.361Z" fill="#263238"/>
</g>
<defs>
<clipPath id="clip0_66_1659">
<rect width="617" height="604" fill="white"/>
</clipPath>
</defs>
</svg>
